STARTFONT 2.1
FONTBOUNDINGBOX 29 28 0 -4
STARTPROPERTIES 2
FONT_ASCENT 23
FONT_DESCENT 5
ENDPROPERTIES
CHARS 7447
STARTCHAR 0000
ENCODING 0
SWIDTH 520 0
DWIDTH 0 0
BBX 0 28 0 -4
BITMAP
80
ENDCHAR
STARTCHAR 00A4
ENCODING 164
SWIDTH 520 0
DWIDTH 29 0
BBX 29 28 0 -4
BITMAP
00000000
00000000
00000000
180001c0
1c3fe380
0ef07f00
07c01e00
03800e00
07000700
06000300
0e000380
0c000180
0c000180
0c000180
0c000180
0c000180
0c000380
0e000380
06000300
07000700
03800e00
07c01e00
0ef0ff00
1c3fe380
180001c0
00000000
00000000
00000000
ENDCHAR
STARTCHAR 00A7
ENCODING 167
SWIDTH 520 0
DWIDTH 29 0
BBX 29 28 0 -4
BITMAP
00000000
00000000
00078000
001ce000
0038f000
00386000
00380000
001c0000
000e0000
00070000
00078000
003fc000
0070e000
0070f000
00707000
00387000
001c7000
001e6000
000fc000
00078000
0003c000
0001e000
0030e000
0070e000
0039c000
000f8000
00000000
00000000
ENDCHAR
STARTCHAR 00A8
ENCODING 168
SWIDTH 520 0
DWIDTH 29 0
BBX 29 28 0 -4
BITMAP
00000000
00000000
00000000
00000000
00306000
0078f000
0070f000
00000000
00000000
00000000
00000000
00000000
00000000
00000000
00000000
00000000
00000000
00000000
00000000
00000000
00000000
00000000
00000000
00000000
00000000
00000000
00000000
00000000
ENDCHAR
STARTCHAR 00B0
ENCODING 176
SWIDTH 520 0
DWIDTH 29 0
BBX 29 28 0 -4
BITMAP
00000000
00000000
00000000
00000000
07c00000
0c600000
0c600000
0c600000
0ce00000
07c00000
00000000
00000000
00000000
00000000
00000000
00000000
00000000
00000000
00000000
00000000
00000000
00000000
00000000
00000000
00000000
00000000
00000000
00000000
ENDCHAR
STARTCHAR 00B1
ENCODING 177
SWIDTH 520 0
DWIDTH 29 0
BBX 29 28 0 -4
BITMAP
00000000
00000000
00000000
00060000
00060000
00060000
00060000
00060000
00060000
00060000
00060000
00060000
0fffff80
00060000
00060000
00060000
00060000
00060000
00060000
00060000
00060000
00000000
00000000
0fffff80
0fffff80
00000000
00000000
00000000
ENDCHAR
STARTCHAR 00D7
ENCODING 215
SWIDTH 520 0
DWIDTH 29 0
BBX 29 28 0 -4
BITMAP
00000000
00000000
00000000
00000000
00000000
00000600
07000e00
03801c00
01c03800
00e07000
0070e000
0039c000
001f8000
000f0000
000f0000
001f8000
0039c000
0070e000
00e07000
01c03800
03801c00
07000e00
00000600
00000000
00000000
00000000
00000000
00000000
ENDCHAR
STARTCHAR 00E0
ENCODING 224
SWIDTH 520 0
DWIDTH 15 0
BBX 15 28 0 -4
BITMAP
0000
0000
0000
0000
0000
0000
0e00
0700
0300
0180
0000
0780
0ef0
1870
3830
3030
7030
7030
7030
7030
3030
3870
1ff0
0fb8
0000
0000
0000
0000
ENDCHAR
STARTCHAR 00E1
ENCODING 225
SWIDTH 520 0
DWIDTH 15 0
BBX 15 28 0 -4
BITMAP
0000
0000
0000
0000
0000
0000
0060
01c0
0380
0380
0000
0780
0ef0
1870
3830
3030
7030
7030
7030
7030
3030
3870
1ff0
0fb8
0000
0000
0000
0000
ENDCHAR
STARTCHAR 00E8
ENCODING 232
SWIDTH 520 0
DWIDTH 15 0
BBX 15 28 0 -4
BITMAP
0000
0000
0000
0000
0000
0600
0f00
0700
0380
0180
0000
07e0
0e70
1c38
3838
3838
3ff8
3800
3800
3800
3c18
1c38
0ff0
03c0
0000
0000
0000
0000
ENDCHAR
STARTCHAR 00E9
ENCODING 233
SWIDTH 520 0
DWIDTH 15 0
BBX 15 28 0 -4
BITMAP
0000
0000
0000
0000
0000
0000
0060
01c0
03c0
0380
0000
07c0
0e70
1c38
3838
3838
3ff8
3800
3800
3800
3c00
1c18
0ff0
07c0
0000
0000
0000
0000
ENDCHAR
STARTCHAR 00EA
ENCODING 234
SWIDTH 520 0
DWIDTH 15 0
BBX 15 28 0 -4
BITMAP
0000
0000
0000
0000
0000
0380
07c0
0fe0
0c60
1830
0000
07c0
0e70
1c38
3838
3838
3ff8
3800
3800
3800
3c00
1c18
0ff0
07c0
0000
0000
0000
0000
ENDCHAR
STARTCHAR 00EC
ENCODING 236
SWIDTH 520 0
DWIDTH 15 0
BBX 15 28 0 -4
BITMAP
0000
0000
0000
0000
0000
1800
1c00
1e00
0e00
0600
0000
0700
0f00
0700
0700
0700
0700
0700
0700
0700
0700
0700
0700
1fc0
0000
0000
0000
0000
ENDCHAR
STARTCHAR 00ED
ENCODING 237
SWIDTH 520 0
DWIDTH 15 0
BBX 15 28 0 -4
BITMAP
0000
0000
0000
0000
0000
0000
0180
0300
0700
0600
0000
0700
0f00
0700
0700
0700
0700
0700
0700
0700
0700
0700
0700
1fc0
0000
0000
0000
0000
ENDCHAR
STARTCHAR 00F2
ENCODING 242
SWIDTH 520 0
DWIDTH 15 0
BBX 15 28 0 -4
BITMAP
0000
0000
0000
0000
0000
0000
0e00
0700
0300
0180
0000
07c0
0e60
1c30
3838
3838
301c
701c
701c
3838
3838
1c30
1e70
07c0
0000
0000
0000
0000
ENDCHAR
STARTCHAR 00F3
ENCODING 243
SWIDTH 520 0
DWIDTH 15 0
BBX 15 28 0 -4
BITMAP
0000
0000
0000
0000
0000
0000
0060
01c0
03c0
0380
0000
07c0
0e70
1c38
3838
3818
701c
701c
701c
3838
3838
1c70
0ee0
0380
0000
0000
0000
0000
ENDCHAR
STARTCHAR 00F7
ENCODING 247
SWIDTH 520 0
DWIDTH 29 0
BBX 29 28 0 -4
BITMAP
00000000
00000000
00000000
00000000
00000000
00070000
000f8000
000f8000
000f0000
00000000
00000000
00000000
00000000
0fffff80
0fffff80
00000000
00000000
00000000
00000000
000f0000
000f8000
000f8000
000f0000
00000000
00000000
00000000
00000000
00000000
ENDCHAR
STARTCHAR 00F9
ENCODING 249
SWIDTH 520 0
DWIDTH 15 0
BBX 15 28 0 -4
BITMAP
0000
0000
0000
0000
0000
0600
0e00
0700
0300
0180
0000
3870
1830
1830
1830
1830
1830
1830
1830
1830
1830
1cf0
1ff8
061c
0000
0000
0000
0000
ENDCHAR
STARTCHAR 00FA
ENCODING 250
SWIDTH 520 0
DWIDTH 15 0
BBX 15 28 0 -4
BITMAP
0000
0000
0000
0000
0000
0000
00e0
01c0
0380
0380
0000
3870
1830
1830
1830
1830
1830
1830
1830
1830
1830
1cf0
1ff8
061c
0000
0000
0000
0000
ENDCHAR
STARTCHAR 00FC
ENCODING 252
SWIDTH 520 0
DWIDTH 15 0
BBX 15 28 0 -4
BITMAP
0000
0000
0000
0000
0000
0000
0000
1c60
1cf0
1c70
0000
3870
1830
1830
1830
1830
1830
1830
1830
1830
1830
1cf0
1ff8
061c
0000
0000
0000
0000
ENDCHAR
STARTCHAR 0101
ENCODING 257
SWIDTH 520 0
DWIDTH 15 0
BBX 15 28 0 -4
BITMAP
0000
0000
0000
0000
0000
0000
0000
0fe0
0fe0
0000
0000
0780
0ef0
1870
3830
3030
7030
7030
7030
7030
3030
3870
1ff0
0fb8
0000
0000
0000
0000
ENDCHAR
STARTCHAR 0113
ENCODING 275
SWIDTH 520 0
DWIDTH 15 0
BBX 15 28 0 -4
BITMAP
0000
0000
0000
0000
0000
0000
0000
1fe0
1fe0
0000
0000
07c0
0e70
1c38
3838
3838
3ff8
3800
3800
3800
3c00
1c18
0ff0
07c0
0000
0000
0000
0000
ENDCHAR
STARTCHAR 011B
ENCODING 283
SWIDTH 520 0
DWIDTH 15 0
BBX 15 28 0 -4
BITMAP
0000
0000
0000
0000
0000
0000
1c60
0ee0
07c0
0380
0000
07e0
0e70
1c38
3838
3838
3ff8
3800
3800
3800
3c18
1c38
0ff0
03c0
0000
0000
0000
0000
ENDCHAR
STARTCHAR 012B
ENCODING 299
SWIDTH 520 0
DWIDTH 15 0
BBX 15 28 0 -4
BITMAP
0000
0000
0000
0000
0000
0000
0000
1fc0
1fc0
0000
0000
0700
0f00
0700
0700
0700
0700
0700
0700
0700
0700
0700
0700
1fc0
0000
0000
0000
0000
ENDCHAR
STARTCHAR 014D
ENCODING 333
SWIDTH 520 0
DWIDTH 15 0
BBX 15 28 0 -4
BITMAP
0000
0000
0000
0000
0000
0000
0000
0fe0
0fe0
0000
0000
07c0
0e70
1c30
3838
3838
701c
701c
701c
3838
3838
1c30
1e70
07c0
0000
0000
0000
0000
ENDCHAR
STARTCHAR 016B
ENCODING 363
SWIDTH 520 0
DWIDTH 15 0
BBX 15 28 0 -4
BITMAP
0000
0000
0000
0000
0000
0000
0000
0fe0
0fe0
0000
0000
78f0
1830
1830
1830
1830
1830
1830
1830
1830
1830
1cf0
1ff8
061c
0000
0000
0000
0000
ENDCHAR
STARTCHAR 01CE
ENCODING 462
SWIDTH 520 0
DWIDTH 15 0
BBX 15 28 0 -4
BITMAP
0000
0000
0000
0000
0000
0000
1860
0ee0
07c0
0780
0000
0380
0ff0
1870
3830
3030
7030
7030
7030
7030
3030
3870
1cf0
0fb8
0000
0000
0000
0000
ENDCHAR
STARTCHAR 01D0
ENCODING 464
SWIDTH 520 0
DWIDTH 15 0
BBX 15 28 0 -4
BITMAP
0000
0000
0000
0000
0000
0000
18c0
1d80
0f00
0700
0000
0700
0f00
0700
0700
0700
0700
0700
0700
0700
0700
0700
0700
1fc0
0000
0000
0000
0000
ENDCHAR
STARTCHAR 01D2
ENCODING 466
SWIDTH 520 0
DWIDTH 15 0
BBX 15 28 0 -4
BITMAP
0000
0000
0000
0000
0000
0000
0c60
0ee0
07c0
0380
0000
07c0
0e70
1c30
3838
3838
701c
701c
701c
3838
3838
1c30
1e70
07c0
0000
0000
0000
0000
ENDCHAR
STARTCHAR 01D4
ENCODING 468
SWIDTH 520 0
DWIDTH 15 0
BBX 15 28 0 -4
BITMAP
0000
0000
0000
0000
0000
0000
0c60
0ee0
07c0
0380
0000
3870
1830
1830
1830
1830
1830
1830
1830
1830
1830
1cf0
1ff8
061c
0000
0000
0000
0000
ENDCHAR
STARTCHAR 01D6
ENCODING 470
SWIDTH 520 0
DWIDTH 15 0
BBX 15 28 0 -4
BITMAP
0000
0000
0000
0000
0000
0fe0
0000
1c60
1cf0
1c70
0000
3870
1830
1830
1830
1830
1830
1830
1830
1830
1830
1cf0
1ff8
061c
0000
0000
0000
0000
ENDCHAR
STARTCHAR 01D8
ENCODING 472
SWIDTH 520 0
DWIDTH 15 0
BBX 15 28 0 -4
BITMAP
0000
0000
0060
00c0
01c0
0380
0300
1c60
1cf0
1c70
0000
3870
1830
1830
1830
1830
1830
1830
1830
1830
1830
1cf0
1ff8
061c
0000
0000
0000
0000
ENDCHAR
STARTCHAR 01DA
ENCODING 474
SWIDTH 520 0
DWIDTH 15 0
BBX 15 28 0 -4
BITMAP
0000
0000
1830
0c60
07e0
07c0
0380
1c60
1cf0
1c70
0000
3870
1830
1830
1830
1830
1830
1830
1830
1830
1830
1cf0
1ff8
061c
0000
0000
0000
0000
ENDCHAR
STARTCHAR 01DC
ENCODING 476
SWIDTH 520 0
DWIDTH 15 0
BBX 15 28 0 -4
BITMAP
0000
0000
0600
0f00
0700
0300
0180
1c60
1cf0
1c70
0000
3870
1830
1830
1830
1830
1830
1830
1830
1830
1830
1cf0
1ff8
061c
0000
0000
0000
0000
ENDCHAR
STARTCHAR 02C7
ENCODING 711
SWIDTH 520 0
DWIDTH 29 0
BBX 29 28 0 -4
BITMAP
00000000
00000000
00000000
00000000
00707000
0018c000
000f8000
00070000
00000000
00000000
00000000
00000000
00000000
00000000
00000000
00000000
00000000
00000000
00000000
00000000
00000000
00000000
00000000
00000000
00000000
00000000
00000000
00000000
ENDCHAR
STARTCHAR 02C9
ENCODING 713
SWIDTH 520 0
DWIDTH 29 0
BBX 29 28 0 -4
BITMAP
00000000
00000000
00000000
00000000
00000000
007ff000
00000000
00000000
00000000
00000000
00000000
00000000
00000000
00000000
00000000
00000000
00000000
00000000
00000000
00000000
00000000
00000000
00000000
00000000
00000000
00000000
00000000
00000000
ENDCHAR
STARTCHAR 0391
ENCODING 913
SWIDTH 520 0
DWIDTH 29 0
BBX 29 28 0 -4
BITMAP
00000000
00000000
00000000
00000000
00000000
00000000
000e0000
000e0000
001f0000
001f0000
001b8000
00338000
00318000
0061c000
0060c000
007fe000
00c0e000
00c07000
01807000
01803000
01803800
07e07e00
00000000
00000000
00000000
00000000
00000000
00000000
ENDCHAR
STARTCHAR 0392
ENCODING 914
SWIDTH 520 0
DWIDTH 29 0
BBX 29 28 0 -4
BITMAP
00000000
00000000
00000000
00000000
00000000
00fff000
00703800
00703800
00701800
00701800
00703800
00703800
0070f000
007ff000
00703800
00701c00
00701c00
00701c00
00701c00
00703c00
00f07800
01ffc000
00000000
00000000
00000000
00000000
00000000
00000000
ENDCHAR
STARTCHAR 0393
ENCODING 915
SWIDTH 520 0
DWIDTH 29 0
BBX 29 28 0 -4
BITMAP
00000000
00000000
00000000
00000000
00000000
01fffc00
00703c00
00701c00
00700c00
00700c00
00700000
00700000
00700000
00700000
00700000
00700000
00700000
00700000
00700000
00700000
00700000
01fc0000
00000000
00000000
00000000
00000000
00000000
00000000
ENDCHAR
STARTCHAR 0394
ENCODING 916
SWIDTH 520 0
DWIDTH 29 0
BBX 29 28 0 -4
BITMAP
00000000
00000000
00000000
00000000
00000000
00060000
00070000
000f0000
000f0000
000f8000
001b8000
0019c000
0031c000
0030e000
0030e000
00607000
00607000
00c07000
00c03800
00c03800
01801c00
01fffc00
00000000
00000000
00000000
00000000
00000000
00000000
ENDCHAR
STARTCHAR 0395
ENCODING 917
SWIDTH 520 0
DWIDTH 29 0
BBX 29 28 0 -4
BITMAP
00000000
00000000
00000000
00000000
00000000
03fffc00
00701c00
00700c00
0070cc00
0070c600
0070c000
0070c000
0071c000
007fc000
0070c000
0070c000
0070c600
00700600
00700600
00700e00
00f01e00
03fffe00
00000000
00000000
00000000
00000000
00000000
00000000
ENDCHAR
STARTCHAR 0396
ENCODING 918
SWIDTH 520 0
DWIDTH 29 0
BBX 29 28 0 -4
BITMAP
00000000
00000000
00000000
00000000
00000000
01fff800
01c07000
01c0f000
0180e000
0181c000
0183c000
00038000
00070000
000f0000
000e0000
001c0000
003c0c00
00380c00
00700c00
00f01c00
00e03c00
01fffc00
00000000
00000000
00000000
00000000
00000000
00000000
ENDCHAR
STARTCHAR 0397
ENCODING 919
SWIDTH 520 0
DWIDTH 29 0
BBX 29 28 0 -4
BITMAP
00000000
00000000
00000000
00000000
00000000
07f8ff00
00c01800
00c01800
00c01800
00c01800
00c01800
00c01800
00c01800
00fff800
00c01800
00c01800
00c01800
00c01800
00c01800
00c01800
01e01c00
07f8ff00
00000000
00000000
00000000
00000000
00000000
00000000
ENDCHAR
STARTCHAR 0398
ENCODING 920
SWIDTH 520 0
DWIDTH 29 0
BBX 29 28 0 -4
BITMAP
00000000
00000000
00000000
00000000
00000000
001fe000
00703000
00e03800
00c01c00
01c01c00
01800c00
0398cc00
039fce00
039fce00
039dce00
03980e00
01800c00
01c01c00
00c01800
00e03000
00306000
001fc000
00000000
00000000
00000000
00000000
00000000
00000000
ENDCHAR
STARTCHAR 0399
ENCODING 921
SWIDTH 520 0
DWIDTH 29 0
BBX 29 28 0 -4
BITMAP
00000000
00000000
00000000
00000000
00000000
003fe000
00070000
00070000
00070000
00070000
00070000
00070000
00070000
00070000
00070000
00070000
00070000
00070000
00070000
00070000
00070000
003fe000
00000000
00000000
00000000
00000000
00000000
00000000
ENDCHAR
STARTCHAR 039A
ENCODING 922
SWIDTH 520 0
DWIDTH 29 0
BBX 29 28 0 -4
BITMAP
00000000
00000000
00000000
00000000
00000000
07f8fe00
00e03000
00e06000
00e0c000
00e18000
00e30000
00e60000
00ee0000
00ff0000
00f38000
00e38000
00e1c000
00e0e000
00e0f000
00e07000
00e03800
07f8fe00
00000000
00000000
00000000
00000000
00000000
00000000
ENDCHAR
STARTCHAR 039B
ENCODING 923
SWIDTH 520 0
DWIDTH 29 0
BBX 29 28 0 -4
BITMAP
00000000
00000000
00000000
00000000
00000000
00060000
00070000
00070000
000f8000
000f8000
000f8000
0019c000
0019c000
0019c000
0030e000
0030e000
0030e000
00607000
00607000
00c07000
00c03800
03f07e00
00000000
00000000
00000000
00000000
00000000
00000000
ENDCHAR
STARTCHAR 039C
ENCODING 924
SWIDTH 520 0
DWIDTH 29 0
BBX 29 28 0 -4
BITMAP
00000000
00000000
00000000
00000000
00000000
0fc01f80
01e01e00
03e03e00
03e03e00
03706e00
03706e00
0378ce00
0338ce00
033cce00
031d8e00
031d8e00
031f0e00
030f0e00
030f0e00
03060e00
03860e00
0fc07f80
00000000
00000000
00000000
00000000
00000000
00000000
ENDCHAR
STARTCHAR 039D
ENCODING 925
SWIDTH 520 0
DWIDTH 29 0
BBX 29 28 0 -4
BITMAP
00000000
00000000
00000000
00000000
00000000
07e07e00
00f01800
00f01800
00f81800
00dc1800
00de1800
00ce1800
00c71800
00c39800
00c3d800
00c1d800
00c0f800
00c07800
00c07800
00c03800
00c01800
07f00000
00000000
00000000
00000000
00000000
00000000
00000000
ENDCHAR
STARTCHAR 039E
ENCODING 926
SWIDTH 520 0
DWIDTH 29 0
BBX 29 28 0 -4
BITMAP
00000000
00000000
00000000
00000000
00000000
01fffc00
01fffc00
01800c00
01800c00
00000000
00000000
00606000
0078e000
007fe000
0078e000
00600000
00000000
01800c00
01800c00
01c01c00
01fff800
01fff800
00000000
00000000
00000000
00000000
00000000
00000000
ENDCHAR
STARTCHAR 039F
ENCODING 927
SWIDTH 520 0
DWIDTH 29 0
BBX 29 28 0 -4
BITMAP
00000000
00000000
00000000
00000000
00000000
001fc000
00707000
00e03800
00c01800
01c01c00
01c01c00
01c01c00
03801c00
03801c00
01801c00
01c01c00
01c01c00
01c01800
00e01800
00603000
00306000
001fc000
00000000
00000000
00000000
00000000
00000000
00000000
ENDCHAR
STARTCHAR 03A0
ENCODING 928
SWIDTH 520 0
DWIDTH 29 0
BBX 29 28 0 -4
BITMAP
00000000
00000000
00000000
00000000
00000000
0fffff00
01c01c00
01c01c00
01c01c00
01c01c00
01c01c00
01c01c00
01c01c00
01c01c00
01c01c00
01c01c00
01c01c00
01c01c00
01c01c00
01c01c00
01e03c00
0ff86600
00000000
00000000
00000000
00000000
00000000
00000000
ENDCHAR
STARTCHAR 03A1
ENCODING 929
SWIDTH 520 0
DWIDTH 29 0
BBX 29 28 0 -4
BITMAP
00000000
00000000
00000000
00000000
00000000
03fff800
00701c00
00701e00
00700e00
00701e00
00701c00
00701c00
0070f800
007f8000
00700000
00700000
00700000
00700000
00700000
00700000
00700000
03fe0000
00000000
00000000
00000000
00000000
00000000
00000000
ENDCHAR
STARTCHAR 03A3
ENCODING 931
SWIDTH 520 0
DWIDTH 29 0
BBX 29 28 0 -4
BITMAP
00000000
00000000
00000000
00000000
00000000
01fffc00
00e00c00
00700600
00380600
001c0000
000e0000
000f0000
00078000
00030000
00060000
000c0000
00180000
00300600
00600600
00c01c00
01fffc00
03fffc00
00000000
00000000
00000000
00000000
00000000
00000000
ENDCHAR
STARTCHAR 03A4
ENCODING 932
SWIDTH 520 0
DWIDTH 29 0
BBX 29 28 0 -4
BITMAP
00000000
00000000
00000000
00000000
00000000
03fffc00
03870c00
03870c00
03070600
03070600
00070000
00070000
00070000
00070000
00070000
00070000
00070000
00070000
00070000
00070000
00070000
003fe000
00000000
00000000
00000000
00000000
00000000
00000000
ENDCHAR
STARTCHAR 03A5
ENCODING 933
SWIDTH 520 0
DWIDTH 29 0
BBX 29 28 0 -4
BITMAP
00000000
00000000
00000000
00000000
00007800
00f9fc00
01dd8c00
01870c00
00070000
00070000
00070000
00070000
00070000
00070000
00070000
00070000
00070000
00070000
00070000
00070000
00070000
001fc000
00000000
00000000
00000000
00000000
00000000
00000000
ENDCHAR
STARTCHAR 03A6
ENCODING 934
SWIDTH 520 0
DWIDTH 29 0
BBX 29 28 0 -4
BITMAP
00000000
00000000
00000000
00000000
00000000
000f8000
00070000
007ff000
01c71c00
03870e00
07070700
07070700
07070700
07070700
07070700
07070700
07070e00
03871c00
01f77800
001fc000
00070000
001fc000
00000000
00000000
00000000
00000000
00000000
00000000
ENDCHAR
STARTCHAR 03A7
ENCODING 935
SWIDTH 520 0
DWIDTH 29 0
BBX 29 28 0 -4
BITMAP
00000000
00000000
00000000
00000000
00000000
07f87f00
00e01800
00703000
00786000
003cc000
001d8000
000f8000
000f0000
00070000
000f8000
0019c000
0031e000
0030e000
00607000
00c07800
01803c00
07e0ff00
00000000
00000000
00000000
00000000
00000000
00000000
ENDCHAR
STARTCHAR 03A8
ENCODING 936
SWIDTH 520 0
DWIDTH 29 0
BBX 29 28 0 -4
BITMAP
00000000
00000000
00000000
00000000
00000000
079fcf80
03870e00
03870e00
03870e00
03870e00
03870e00
03870e00
01870e00
01870e00
01c71c00
01c71c00
007ff000
00070000
00070000
00070000
00070000
001fc000
00000000
00000000
00000000
00000000
00000000
00000000
ENDCHAR
STARTCHAR 03A9
ENCODING 937
SWIDTH 520 0
DWIDTH 29 0
BBX 29 28 0 -4
BITMAP
00000000
00000000
00000000
00000000
000f8000
0038e000
00707000
00e03800
00e01c00
01c01c00
01c01c00
01c01c00
01c01c00
01c01c00
01c01c00
00e03800
00e03800
0038e000
000d8c00
018d8c00
01fdfc00
01fdfc00
00000000
00000000
00000000
00000000
00000000
00000000
ENDCHAR
STARTCHAR 03B1
ENCODING 945
SWIDTH 520 0
DWIDTH 29 0
BBX 29 28 0 -4
BITMAP
00000000
00000000
00000000
00000000
00000000
00000000
00000000
00000000
00000000
001c6000
0077c000
00e1c000
00e1c000
00c1c000
01c1c000
01c1c000
00c1c000
00c1c000
00e1c000
0063c000
003ff000
00000000
00000000
00000000
00000000
00000000
00000000
00000000
ENDCHAR
STARTCHAR 03B2
ENCODING 946
SWIDTH 520 0
DWIDTH 29 0
BBX 29 28 0 -4
BITMAP
00000000
00000000
00000000
00000000
001f8000
0030e000
0060e000
00606000
00606000
00606000
0060c000
007f8000
0060e000
00607000
00603000
00603000
00603000
00603000
00707000
00786000
006fc000
00600000
00600000
00600000
01f80000
00000000
00000000
00000000
ENDCHAR
STARTCHAR 03B3
ENCODING 947
SWIDTH 520 0
DWIDTH 29 0
BBX 29 28 0 -4
BITMAP
00000000
00000000
00000000
00000000
00000000
00000000
00000000
00000000
00000000
00000000
00703800
00386000
00386000
0018c000
001cc000
001d8000
000f0000
000f0000
00060000
00070000
000f0000
000f8000
001b8000
001f8000
000f0000
00000000
00000000
00000000
ENDCHAR
STARTCHAR 03B4
ENCODING 948
SWIDTH 520 0
DWIDTH 29 0
BBX 29 28 0 -4
BITMAP
00000000
00000000
00000000
000fc000
001ce000
0038e000
00380000
001c0000
000e0000
00070000
001dc000
0038e000
00306000
00707000
00707000
00707000
00707000
00707000
00706000
0038e000
001f8000
00000000
00000000
00000000
00000000
00000000
00000000
00000000
ENDCHAR
STARTCHAR 03B5
ENCODING 949
SWIDTH 520 0
DWIDTH 29 0
BBX 29 28 0 -4
BITMAP
00000000
00000000
00000000
00000000
00000000
00000000
00000000
00000000
00000000
00070000
001dc000
0038e000
0038c000
00180000
000f0000
00180000
00380000
00380000
00386000
001dc000
000f8000
00000000
00000000
00000000
00000000
00000000
00000000
00000000
ENDCHAR
STARTCHAR 03B6
ENCODING 950
SWIDTH 520 0
DWIDTH 29 0
BBX 29 28 0 -4
BITMAP
00000000
00000000
00000000
00000000
00000000
001fc000
00318000
00030000
00060000
000c0000
00180000
00380000
00300000
00700000
00600000
00600000
00700000
00780000
007fe000
000cf000
00003000
00003000
00066000
000fc000
00000000
00000000
00000000
00000000
ENDCHAR
STARTCHAR 03B7
ENCODING 951
SWIDTH 520 0
DWIDTH 29 0
BBX 29 28 0 -4
BITMAP
00000000
00000000
00000000
00000000
00000000
00000000
00000000
00000000
00000000
0003f000
007f7800
001c3800
001c3800
001c3800
001c3800
001c3800
001c3800
001c3800
001c3800
001c3800
003e3800
00003800
00003800
00003800
00003e00
00001c00
00000000
00000000
ENDCHAR
STARTCHAR 03B8
ENCODING 952
SWIDTH 520 0
DWIDTH 29 0
BBX 29 28 0 -4
BITMAP
00000000
00000000
00000000
00000000
000f8000
0018c000
0018e000
0038e000
0030e000
00306000
00306000
00706000
007fe000
00306000
00306000
00306000
0030e000
0038e000
0018c000
001dc000
00070000
00000000
00000000
00000000
00000000
00000000
00000000
00000000
ENDCHAR
STARTCHAR 03B9
ENCODING 953
SWIDTH 520 0
DWIDTH 29 0
BBX 29 28 0 -4
BITMAP
00000000
00000000
00000000
00000000
00000000
00000000
00000000
00000000
00000000
00000000
003c0000
000c0000
000c0000
000c0000
000c0000
000c0000
000c0000
000c0000
000c0000
000d8000
000f0000
00000000
00000000
00000000
00000000
00000000
00000000
00000000
ENDCHAR
STARTCHAR 03BA
ENCODING 954
SWIDTH 520 0
DWIDTH 29 0
BBX 29 28 0 -4
BITMAP
00000000
00000000
00000000
00000000
00000000
00000000
00000000
00000000
00000000
00000000
0063c000
00630000
00660000
00660000
006c0000
007e0000
006e0000
00670000
00670000
00738000
01fbe000
00000000
00000000
00000000
00000000
00000000
00000000
00000000
ENDCHAR
STARTCHAR 03BB
ENCODING 955
SWIDTH 520 0
DWIDTH 29 0
BBX 29 28 0 -4
BITMAP
00000000
00000000
00000000
00000000
007c0000
001c0000
001c0000
000c0000
000e0000
000e0000
00060000
00070000
000f0000
000f0000
001b8000
001b8000
00318000
0031c000
0061d800
0060f000
01f0f000
00000000
00000000
00000000
00000000
00000000
00000000
00000000
ENDCHAR
STARTCHAR 03BC
ENCODING 956
SWIDTH 520 0
DWIDTH 29 0
BBX 29 28 0 -4
BITMAP
00000000
00000000
00000000
00000000
00000000
00000000
00000000
00000000
00000000
00000000
00e1c000
00e1c000
00e1c000
00e1c000
00e1c000
00e1c000
00e1c000
00e1c000
00e1c000
00e3f000
00fee000
00e00000
00e00000
00e00000
00000000
00000000
00000000
00000000
ENDCHAR
STARTCHAR 03BD
ENCODING 957
SWIDTH 520 0
DWIDTH 29 0
BBX 29 28 0 -4
BITMAP
00000000
00000000
00000000
00000000
00000000
00000000
00000000
00000000
00000000
00000000
00383000
00183000
001c6000
001c6000
000c6000
000ec000
000ec000
00078000
00078000
00070000
00030000
00000000
00000000
00000000
00000000
00000000
00000000
00000000
ENDCHAR
STARTCHAR 03BE
ENCODING 958
SWIDTH 520 0
DWIDTH 29 0
BBX 29 28 0 -4
BITMAP
00000000
00000000
00000000
00000000
007fc000
007fc000
001c0000
00180000
00300000
00380000
00380000
001f0000
000e0000
00380000
00700000
00700000
00700000
00700000
00380000
001fc000
0003e000
00007000
00007000
00067000
0007e000
00000000
00000000
00000000
ENDCHAR
STARTCHAR 03BF
ENCODING 959
SWIDTH 520 0
DWIDTH 29 0
BBX 29 28 0 -4
BITMAP
00000000
00000000
00000000
00000000
00000000
00000000
00000000
00000000
00000000
00060000
001fc000
0030e000
00706000
00707000
00707000
00707000
00707000
00706000
00306000
0038c000
000f8000
00000000
00000000
00000000
00000000
00000000
00000000
00000000
ENDCHAR
STARTCHAR 03C0
ENCODING 960
SWIDTH 520 0
DWIDTH 29 0
BBX 29 28 0 -4
BITMAP
00000000
00000000
00000000
00000000
00000000
00000000
00000000
00000000
00000000
00000000
007ff800
00dcc000
001cc000
001cc000
001cc000
001cc000
001cc000
001cc000
001cc000
00fcf800
0078f000
00000000
00000000
00000000
00000000
00000000
00000000
00000000
ENDCHAR
STARTCHAR 03C1
ENCODING 961
SWIDTH 520 0
DWIDTH 29 0
BBX 29 28 0 -4
BITMAP
00000000
00000000
00000000
00000000
00000000
00000000
00000000
00000000
00000000
00070000
001dc000
0030e000
00707000
00607000
00607000
00607000
00607000
00607000
0070e000
0078e000
006f8000
00600000
00600000
00600000
01f80000
00000000
00000000
00000000
ENDCHAR
STARTCHAR 03C3
ENCODING 963
SWIDTH 520 0
DWIDTH 29 0
BBX 29 28 0 -4
BITMAP
00000000
00000000
00000000
00000000
00000000
00000000
00000000
00000000
00000000
000ff000
003bf000
0061c000
00e0c000
00e0e000
00c0e000
00c0e000
00e0e000
00e0e000
00e1c000
00718000
003f0000
00000000
00000000
00000000
00000000
00000000
00000000
00000000
ENDCHAR
STARTCHAR 03C4
ENCODING 964
SWIDTH 520 0
DWIDTH 29 0
BBX 29 28 0 -4
BITMAP
00000000
00000000
00000000
00000000
00000000
00000000
00000000
00000000
00000000
00000000
003ff000
00670000
00070000
00070000
00070000
00070000
00070000
00070000
00070000
0007c000
0003c000
00000000
00000000
00000000
00000000
00000000
00000000
00000000
ENDCHAR
STARTCHAR 03C5
ENCODING 965
SWIDTH 520 0
DWIDTH 29 0
BBX 29 28 0 -4
BITMAP
00000000
00000000
00000000
00000000
00000000
00000000
00000000
00000000
00000000
0000f000
0039f800
00183800
00183800
00183800
00183800
00183800
00183000
00183000
00187000
001c6000
000fc000
00000000
00000000
00000000
00000000
00000000
00000000
00000000
ENDCHAR
STARTCHAR 03C6
ENCODING 966
SWIDTH 520 0
DWIDTH 29 0
BBX 29 28 0 -4
BITMAP
00000000
00000000
00000000
00000000
00070000
00070000
00030000
00030000
00030000
00038000
003ff000
00733800
00e31c00
01c31c00
01c30e00
01c30e00
01c31e00
01c31c00
00e31c00
00733800
003fe000
00030000
00030000
00030000
000fc000
00000000
00000000
00000000
ENDCHAR
STARTCHAR 03C7
ENCODING 967
SWIDTH 520 0
DWIDTH 29 0
BBX 29 28 0 -4
BITMAP
00000000
00000000
00000000
00000000
00000000
00000000
00000000
00000000
00000000
00f0f800
00386000
0038c000
001cc000
000f8000
000f0000
00070000
00078000
000f8000
0019c000
0030e000
00f0f800
00e07800
00000000
00000000
00000000
00000000
00000000
00000000
ENDCHAR
STARTCHAR 03C8
ENCODING 968
SWIDTH 520 0
DWIDTH 29 0
BBX 29 28 0 -4
BITMAP
00000000
00000000
00000000
00000000
00000000
00000000
00000000
00000000
00000000
00f79f00
01f39c00
00739800
00739800
00739800
00739800
00739800
00739800
00339800
0033b800
003bb000
001fe000
00038000
00038000
00038000
0007c000
00000000
00000000
00000000
ENDCHAR
STARTCHAR 03C9
ENCODING 969
SWIDTH 520 0
DWIDTH 29 0
BBX 29 28 0 -4
BITMAP
00000000
00000000
00000000
00000000
00000000
00000000
00000000
00000000
00000000
00000000
00707000
00c01800
01c01c00
01800c00
03800e00
03870e00
03870e00
03870e00
01c71c00
00c71800
007df000
00000000
00000000
00000000
00000000
00000000
00000000
00000000
ENDCHAR
STARTCHAR 0401
ENCODING 1025
SWIDTH 520 0
DWIDTH 29 0
BBX 29 28 0 -4
BITMAP
00000000
00306000
00387000
00387000
00000000
01fffc00
00700c00
00700c00
0070cc00
0070c000
0070c000
0070c000
007fc000
0071c000
0070c000
0070c600
0070c600
00700600
00700600
00700e00
01fffe00
00000000
00000000
00000000
00000000
00000000
00000000
00000000
ENDCHAR
STARTCHAR 0410
ENCODING 1040
SWIDTH 520 0
DWIDTH 29 0
BBX 29 28 0 -4
BITMAP
00000000
00000000
00000000
00000000
00060000
00060000
00070000
000f0000
000f0000
001b8000
00198000
0019c000
0031c000
0030e000
0060e000
007fe000
00607000
00c07000
00c03800
01803800
03c03c00
00000000
00000000
00000000
00000000
00000000
00000000
00000000
ENDCHAR
STARTCHAR 0411
ENCODING 1041
SWIDTH 520 0
DWIDTH 29 0
BBX 29 28 0 -4
BITMAP
00000000
00000000
00000000
00000000
01fff800
00e03800
00601800
00601800
00601800
00600000
00600000
00600000
007fe000
00607800
00603c00
00601c00
00601c00
00601c00
00601c00
00603800
00fff000
00000000
00000000
00000000
00000000
00000000
00000000
00000000
ENDCHAR
STARTCHAR 0412
ENCODING 1042
SWIDTH 520 0
DWIDTH 29 0
BBX 29 28 0 -4
BITMAP
00000000
00000000
00000000
00000000
03ff8000
0060f000
00603800
00601800
00601c00
00603c00
00603800
00607000
007fe000
00603800
00601c00
00601c00
00601e00
00601c00
00601c00
00603800
01fff000
00000000
00000000
00000000
00000000
00000000
00000000
00000000
ENDCHAR
STARTCHAR 0413
ENCODING 1043
SWIDTH 520 0
DWIDTH 29 0
BBX 29 28 0 -4
BITMAP
00000000
00000000
00000000
00000000
01fffc00
00703c00
00701c00
00700c00
00700c00
00700000
00700000
00700000
00700000
00700000
00700000
00700000
00700000
00700000
00700000
00700000
00f80000
00000000
00000000
00000000
00000000
00000000
00000000
00000000
ENDCHAR
STARTCHAR 0414
ENCODING 1044
SWIDTH 520 0
DWIDTH 29 0
BBX 29 28 0 -4
BITMAP
00000000
00000000
00000000
00000000
00fffe00
00383800
00303800
00303800
00303800
00303800
00303800
00303800
00303800
00303800
00303800
00603800
00603800
00603800
00603800
00c03800
07fffe00
07000e00
06000600
06000600
06000300
00000000
00000000
00000000
ENDCHAR
STARTCHAR 0415
ENCODING 1045
SWIDTH 520 0
DWIDTH 29 0
BBX 29 28 0 -4
BITMAP
00000000
00000000
00000000
00000000
03fffc00
00701c00
00700c00
00700c00
0070cc00
0070c000
0070c000
0071c000
007fc000
0071c000
0070c000
0070c000
0070c600
00700600
00700600
00700e00
01fffe00
00000000
00000000
00000000
00000000
00000000
00000000
00000000
ENDCHAR
STARTCHAR 0416
ENCODING 1046
SWIDTH 520 0
DWIDTH 29 0
BBX 29 28 0 -4
BITMAP
00000000
00000000
00000000
00000000
0f1fc700
0f070780
01870f00
01870c00
01870c00
00c71800
00c71800
00777000
007ff000
00c71800
01c71c00
03870e00
03870e00
03870e00
1b0707c0
1f0707c0
0e1fc7c0
00000000
00000000
00000000
00000000
00000000
00000000
00000000
ENDCHAR
STARTCHAR 0417
ENCODING 1047
SWIDTH 520 0
DWIDTH 29 0
BBX 29 28 0 -4
BITMAP
00000000
00000000
00000000
00000000
00078000
00dce000
00707000
00607000
00607000
00007000
00007000
0000e000
001f8000
0000e000
00007000
00003800
00603800
00e03800
00e07000
0060e000
003fc000
00000000
00000000
00000000
00000000
00000000
00000000
00000000
ENDCHAR
STARTCHAR 0418
ENCODING 1048
SWIDTH 520 0
DWIDTH 29 0
BBX 29 28 0 -4
BITMAP
00000000
00000000
00000000
00000000
07f8ff00
01c01c00
01c03c00
01c03c00
01c07c00
01c0dc00
01c19c00
01c31c00
01c61c00
01c61c00
01cc1c00
01d81c00
01f01c00
01e01c00
01e01c00
01c01c00
03f07e00
00000000
00000000
00000000
00000000
00000000
00000000
00000000
ENDCHAR
STARTCHAR 0419
ENCODING 1049
SWIDTH 520 0
DWIDTH 29 0
BBX 29 28 0 -4
BITMAP
00000000
001dc000
001dc000
001f8000
07feff00
01c01c00
01c03c00
01c03c00
01c07c00
01c0dc00
01c19c00
01c31c00
01c31c00
01c61c00
01cc1c00
01d81c00
01f01c00
01f01c00
01e01c00
01c01c00
03f07e00
00000000
00000000
00000000
00000000
00000000
00000000
00000000
ENDCHAR
STARTCHAR 041A
ENCODING 1050
SWIDTH 520 0
DWIDTH 29 0
BBX 29 28 0 -4
BITMAP
00000000
00000000
00000000
00000000
03f80000
00e0f800
00e1f800
00e18000
00e18000
00e30000
00e30000
00ee0000
00fe0000
00e3c000
00e1e000
00e0e000
00e0e000
00e0e000
00e0ec00
00e0fc00
01f07800
00000000
00000000
00000000
00000000
00000000
00000000
00000000
ENDCHAR
STARTCHAR 041B
ENCODING 1051
SWIDTH 520 0
DWIDTH 29 0
BBX 29 28 0 -4
BITMAP
00000000
00000000
00000000
00000000
007fff00
000c1c00
00181c00
00181c00
00181c00
00181c00
00181c00
00181c00
00181c00
00181c00
00181c00
00181c00
00181c00
03301c00
07301c00
07601c00
03c07f00
00000000
00000000
00000000
00000000
00000000
00000000
00000000
ENDCHAR
STARTCHAR 041C
ENCODING 1052
SWIDTH 520 0
DWIDTH 29 0
BBX 29 28 0 -4
BITMAP
00000000
00000000
00000000
00000000
0fc01f80
03c01e00
03e03e00
03e03e00
03e03e00
03706e00
03706e00
0378ce00
0338ce00
0338ce00
031d8e00
031d8e00
031f0e00
030f0e00
030f0e00
03060e00
07863f00
00000000
00000000
00000000
00000000
00000000
00000000
00000000
ENDCHAR
STARTCHAR 041D
ENCODING 1053
SWIDTH 520 0
DWIDTH 29 0
BBX 29 28 0 -4
BITMAP
00000000
00000000
00000000
00000000
07f8ff00
01c03c00
01c01800
01c01800
01c01800
01c01800
01c01800
01c01800
01fff800
01c01800
01c01800
01c01800
01c01800
01c01800
01c01800
01c01800
03f07e00
00000000
00000000
00000000
00000000
00000000
00000000
00000000
ENDCHAR
STARTCHAR 041E
ENCODING 1054
SWIDTH 520 0
DWIDTH 29 0
BBX 29 28 0 -4
BITMAP
00000000
00000000
00000000
00000000
00070000
003de000
00603000
00e03800
01c01c00
01c01c00
01801c00
03800e00
03800e00
03800e00
03800e00
01c01c00
01c01c00
01c01c00
00e03800
00707000
001fc000
00000000
00000000
00000000
00000000
00000000
00000000
00000000
ENDCHAR
STARTCHAR 041F
ENCODING 1055
SWIDTH 520 0
DWIDTH 29 0
BBX 29 28 0 -4
BITMAP
00000000
00000000
00000000
00000000
07ffff00
01c01c00
01c01800
01c01800
01c01800
01c01800
01c01800
01c01800
01c01800
01c01800
01c01800
01c01800
01c01800
01c01800
01c01800
01c01800
07f87f00
00000000
00000000
00000000
00000000
00000000
00000000
00000000
ENDCHAR
STARTCHAR 0420
ENCODING 1056
SWIDTH 520 0
DWIDTH 29 0
BBX 29 28 0 -4
BITMAP
00000000
00000000
00000000
00000000
03ffc000
00707800
00701c00
00701e00
00701e00
00701e00
00701c00
00703800
007fe000
00700000
00700000
00700000
00700000
00700000
00700000
00700000
01fc0000
00000000
00000000
00000000
00000000
00000000
00000000
00000000
ENDCHAR
STARTCHAR 0421
ENCODING 1057
SWIDTH 520 0
DWIDTH 29 0
BBX 29 28 0 -4
BITMAP
00000000
00000000
00000000
00000000
00078c00
003cec00
00703c00
00e01c00
00e01c00
01c00c00
01c00c00
01c00000
01c00000
01c00000
01c00000
01c00000
01c00c00
00e01800
00e01800
00787000
001fc000
00000000
00000000
00000000
00000000
00000000
00000000
00000000
ENDCHAR
STARTCHAR 0422
ENCODING 1058
SWIDTH 520 0
DWIDTH 29 0
BBX 29 28 0 -4
BITMAP
00000000
00000000
00000000
00000000
03fffe00
03c71e00
03870e00
03070600
03070600
03070600
00070000
00070000
00070000
00070000
00070000
00070000
00070000
00070000
00070000
00070000
001fc000
00000000
00000000
00000000
00000000
00000000
00000000
00000000
ENDCHAR
STARTCHAR 0423
ENCODING 1059
SWIDTH 520 0
DWIDTH 29 0
BBX 29 28 0 -4
BITMAP
00000000
00000000
00000000
00000000
07f83e00
01e01800
00e03000
00703000
00706000
00786000
0038c000
0038c000
001d8000
001d8000
000f0000
000f0000
00060000
01c60000
01cc0000
018c0000
00f80000
00000000
00000000
00000000
00000000
00000000
00000000
00000000
ENDCHAR
STARTCHAR 0424
ENCODING 1060
SWIDTH 520 0
DWIDTH 29 0
BBX 29 28 0 -4
BITMAP
00000000
00000000
00000000
00000000
001fc000
00070000
00070000
007ff800
01c71c00
03870e00
07070700
07070700
07070700
07070700
07070700
07870f00
03870e00
01e73800
003fe000
00070000
000f8000
00000000
00000000
00000000
00000000
00000000
00000000
00000000
ENDCHAR
STARTCHAR 0425
ENCODING 1061
SWIDTH 520 0
DWIDTH 29 0
BBX 29 28 0 -4
BITMAP
00000000
00000000
00000000
00000000
00000000
03f83e00
00f03800
00783000
00386000
001cc000
001f8000
000f8000
00070000
000f8000
001fc000
0019c000
0030e000
0060f000
00c07800
01c03c00
0ff1ff00
00000000
00000000
00000000
00000000
00000000
00000000
00000000
ENDCHAR
STARTCHAR 0426
ENCODING 1062
SWIDTH 520 0
DWIDTH 29 0
BBX 29 28 0 -4
BITMAP
00000000
00000000
00000000
00000000
07f0ff00
01c01c00
01c01800
01c01800
01c01800
01c01800
01c01800
01c01800
01c01800
01c01800
01c01800
01c01800
01c01800
01c01800
01c01800
01c01800
03c01c00
007ff700
00000300
00000300
00000000
00000000
00000000
00000000
ENDCHAR
STARTCHAR 0427
ENCODING 1063
SWIDTH 520 0
DWIDTH 29 0
BBX 29 28 0 -4
BITMAP
00000000
00000000
00000000
00000000
07f8ff00
01c03c00
01c01800
01c01800
01c01800
01c01800
01c01800
01c01800
01e03800
00fff800
003f1800
00001800
00001800
00001800
00001800
00001800
00007e00
00000000
00000000
00000000
00000000
00000000
00000000
00000000
ENDCHAR
STARTCHAR 0428
ENCODING 1064
SWIDTH 520 0
DWIDTH 29 0
BBX 29 28 0 -4
BITMAP
00000000
00000000
00000000
00000000
7f9fcff0
1e070380
1c070380
1c070380
1c070380
1c070380
1c070380
1c070380
1c070380
1c070380
1c070380
1c070380
1c070380
1c070380
1c070380
1c070380
3fffffc0
00000000
00000000
00000000
00000000
00000000
00000000
00000000
ENDCHAR
STARTCHAR 0429
ENCODING 1065
SWIDTH 520 0
DWIDTH 29 0
BBX 29 28 0 -4
BITMAP
00000000
00000000
00000000
00000000
7f9fcfe0
1e070380
0c070380
0c070380
0c070380
0c070380
0c070380
0c070380
0c070380
0c070380
0c070380
0c070380
0c070380
0c070380
0c070380
0c070380
1fffffc0
000001e0
00000060
00000060
00000000
00000000
00000000
00000000
ENDCHAR
STARTCHAR 042A
ENCODING 1066
SWIDTH 520 0
DWIDTH 29 0
BBX 29 28 0 -4
BITMAP
00000000
00000000
00000000
00000000
0fff8000
0f1c0000
0e1c0000
0c1c0000
0c1c0000
001c0000
001c0000
001c0000
001ff000
001c1e00
001c0700
001c0700
001c0700
001c0700
001c0700
001c0e00
003ffc00
00000000
00000000
00000000
00000000
00000000
00000000
00000000
ENDCHAR
STARTCHAR 042B
ENCODING 1067
SWIDTH 520 0
DWIDTH 29 0
BBX 29 28 0 -4
BITMAP
00000000
00000000
00000000
00000000
1fe03f80
07000e00
07000600
07000600
07000600
07000600
07000600
07000600
07000600
07ff8600
0701c600
0700e600
0700e600
0700e600
0700e600
0701c600
0fff9f80
00000000
00000000
00000000
00000000
00000000
00000000
00000000
ENDCHAR
STARTCHAR 042C
ENCODING 1068
SWIDTH 520 0
DWIDTH 29 0
BBX 29 28 0 -4
BITMAP
00000000
00000000
00000000
00000000
03fc0000
00700000
00700000
00700000
00700000
00700000
00700000
00700000
007fe000
00703800
00701c00
00701c00
00701c00
00701c00
00701c00
00703800
01fff000
00000000
00000000
00000000
00000000
00000000
00000000
00000000
ENDCHAR
STARTCHAR 042D
ENCODING 1069
SWIDTH 520 0
DWIDTH 29 0
BBX 29 28 0 -4
BITMAP
00000000
00000000
00000000
00000000
00000000
00ffc000
00e06000
00c07000
00c03800
00c03800
00001800
00001800
000ffc00
00001c00
00001800
00003800
00003800
00e03800
00e07000
0070e000
003f8000
00000000
00000000
00000000
00000000
00000000
00000000
00000000
ENDCHAR
STARTCHAR 042E
ENCODING 1070
SWIDTH 520 0
DWIDTH 29 0
BBX 29 28 0 -4
BITMAP
00000000
00000000
00000000
00000000
1f81f000
0e071e00
0e0c0300
0e180380
0e380180
0e3001c0
0e3001c0
0e7000c0
0ff000c0
0e7000c0
0e3001c0
0e3001c0
0e3801c0
0e180380
0e1c0300
0e0e0700
0f07fc00
00000000
00000000
00000000
00000000
00000000
00000000
00000000
ENDCHAR
STARTCHAR 042F
ENCODING 1071
SWIDTH 520 0
DWIDTH 29 0
BBX 29 28 0 -4
BITMAP
00000000
00000000
00000000
00000000
000ffc00
00787000
00e07000
00e07000
01e07000
01e07000
01e07000
00e07000
00707000
003c7000
000ff000
00187000
00387000
00307000
00707000
03707000
03f0f000
01e01800
00000000
00000000
00000000
00000000
00000000
00000000
ENDCHAR
STARTCHAR 0430
ENCODING 1072
SWIDTH 520 0
DWIDTH 29 0
BBX 29 28 0 -4
BITMAP
00000000
00000000
00000000
00000000
00000000
00000000
00000000
00000000
00000000
00000000
001f8000
00398000
00398000
00018000
00078000
001d8000
00398000
00718000
0071b000
0073e000
003fe000
00000000
00000000
00000000
00000000
00000000
00000000
00000000
ENDCHAR
STARTCHAR 0431
ENCODING 1073
SWIDTH 520 0
DWIDTH 29 0
BBX 29 28 0 -4
BITMAP
00000000
00000000
00000000
00000000
00000000
00006000
000fe000
00180000
00300000
00600000
007fc000
0070e000
00706000
00607000
00607000
00607000
00607000
00607000
00306000
0038e000
000fc000
00000000
00000000
00000000
00000000
00000000
00000000
00000000
ENDCHAR
STARTCHAR 0432
ENCODING 1074
SWIDTH 520 0
DWIDTH 29 0
BBX 29 28 0 -4
BITMAP
00000000
00000000
00000000
00000000
00000000
00000000
00000000
00000000
00000000
007ff000
00387000
00387000
00387000
00386000
003fc000
00387000
00387800
00383800
00383800
00387000
007fe000
00000000
00000000
00000000
00000000
00000000
00000000
00000000
ENDCHAR
STARTCHAR 0433
ENCODING 1075
SWIDTH 520 0
DWIDTH 29 0
BBX 29 28 0 -4
BITMAP
00000000
00000000
00000000
00000000
00000000
00000000
00000000
00000000
00000000
00000000
003ff000
00383000
00383000
00380000
00380000
00380000
00380000
00380000
00380000
00380000
003e0000
00000000
00000000
00000000
00000000
00000000
00000000
00000000
ENDCHAR
STARTCHAR 0434
ENCODING 1076
SWIDTH 520 0
DWIDTH 29 0
BBX 29 28 0 -4
BITMAP
00000000
00000000
00000000
00000000
00000000
00000000
00000000
00000000
00000000
00000000
003ff000
0018e000
0018e000
0018e000
0018e000
0018e000
0018e000
0030e000
0030e000
0030e000
00fff800
00e1b800
00c01800
00c01800
00000000
00000000
00000000
00000000
ENDCHAR
STARTCHAR 0435
ENCODING 1077
SWIDTH 520 0
DWIDTH 29 0
BBX 29 28 0 -4
BITMAP
00000000
00000000
00000000
00000000
00000000
00000000
00000000
00000000
00000000
00078000
001de000
0038e000
00307000
00707000
007ff000
00700000
00700000
00780000
00383000
001ce000
000f8000
00000000
00000000
00000000
00000000
00000000
00000000
00000000
ENDCHAR
STARTCHAR 0436
ENCODING 1078
SWIDTH 520 0
DWIDTH 29 0
BBX 29 28 0 -4
BITMAP
00000000
00000000
00000000
00000000
00000000
00000000
00000000
00000000
00000000
00000000
01cf9c00
00c73800
00673000
00673000
0037e000
001fc000
00376000
00677000
00e73000
00e73e00
03cfbc00
00000000
00000000
00000000
00000000
00000000
00000000
00000000
ENDCHAR
STARTCHAR 0437
ENCODING 1079
SWIDTH 520 0
DWIDTH 29 0
BBX 29 28 0 -4
BITMAP
00000000
00000000
00000000
00000000
00000000
00000000
00000000
00000000
00000000
00070000
001dc000
0030e000
0060e000
0000e000
0001c000
0007c000
00006000
00306000
00707000
0030e000
0038e000
000f8000
00000000
00000000
00000000
00000000
00000000
00000000
ENDCHAR
STARTCHAR 0438
ENCODING 1080
SWIDTH 520 0
DWIDTH 29 0
BBX 29 28 0 -4
BITMAP
00000000
00000000
00000000
00000000
00000000
00000000
00000000
00000000
00000000
00000000
00707000
00707000
0070f000
0071f000
00737000
00767000
00767000
007c7000
00787000
00707000
00787000
00000000
00000000
00000000
00000000
00000000
00000000
00000000
ENDCHAR
STARTCHAR 0439
ENCODING 1081
SWIDTH 520 0
DWIDTH 29 0
BBX 29 28 0 -4
BITMAP
00000000
00000000
00000000
00000000
00000000
00000000
001dc000
0018c000
000f8000
00000000
00707000
00707000
0070f000
0071f000
00737000
00767000
007c7000
00787000
00707000
0070f000
00000000
00000000
00000000
00000000
00000000
00000000
00000000
00000000
ENDCHAR
STARTCHAR 043A
ENCODING 1082
SWIDTH 520 0
DWIDTH 29 0
BBX 29 28 0 -4
BITMAP
00000000
00000000
00000000
00000000
00000000
00000000
00000000
00000000
00000000
00006000
0070f000
00318000
00318000
00318000
003f0000
00338000
00318000
0031c000
0031c000
0030d800
0078f000
00000000
00000000
00000000
00000000
00000000
00000000
00000000
ENDCHAR
STARTCHAR 043B
ENCODING 1083
SWIDTH 520 0
DWIDTH 29 0
BBX 29 28 0 -4
BITMAP
00000000
00000000
00000000
00000000
00000000
00000000
00000000
00000000
00000000
00000000
001ff000
000c6000
000c6000
00186000
00186000
00186000
00186000
00186000
00186000
00f86000
00f0f000
00000000
00000000
00000000
00000000
00000000
00000000
00000000
ENDCHAR
STARTCHAR 043C
ENCODING 1084
SWIDTH 520 0
DWIDTH 29 0
BBX 29 28 0 -4
BITMAP
00000000
00000000
00000000
00000000
00000000
00000000
00000000
00000000
00000000
00000000
00e03800
00e07800
00f07800
00f0f800
00f8f800
00d9b800
00ddb800
00cf3800
00cf3800
00c73800
00c63800
00660000
00000000
00000000
00000000
00000000
00000000
00000000
ENDCHAR
STARTCHAR 043D
ENCODING 1085
SWIDTH 520 0
DWIDTH 29 0
BBX 29 28 0 -4
BITMAP
00000000
00000000
00000000
00000000
00000000
00000000
00000000
00000000
00000000
00000000
00000000
00f0f800
00607000
00607000
00607000
00607000
007ff000
00607000
00607000
00607000
00607000
00607000
01f9fc00
00000000
00000000
00000000
00000000
00000000
ENDCHAR
STARTCHAR 043E
ENCODING 1086
SWIDTH 520 0
DWIDTH 29 0
BBX 29 28 0 -4
BITMAP
00000000
00000000
00000000
00000000
00000000
00000000
00000000
00000000
00000000
00070000
001dc000
0030e000
00707000
00607000
00607000
00607000
00607000
00607000
00707000
00306000
0038c000
000f8000
00000000
00000000
00000000
00000000
00000000
00000000
ENDCHAR
STARTCHAR 043F
ENCODING 1087
SWIDTH 520 0
DWIDTH 29 0
BBX 29 28 0 -4
BITMAP
00000000
00000000
00000000
00000000
00000000
00000000
00000000
00000000
00000000
00000000
00fff000
00706000
00706000
00706000
00706000
00706000
00706000
00706000
00706000
00706000
0070f000
00000000
00000000
00000000
00000000
00000000
00000000
00000000
ENDCHAR
STARTCHAR 0440
ENCODING 1088
SWIDTH 520 0
DWIDTH 29 0
BBX 29 28 0 -4
BITMAP
00000000
00000000
00000000
00000000
00000000
00000000
00000000
00000000
00000000
00018000
007fe000
00387000
00383000
00383800
00383800
00383800
00383800
00383800
00383000
003c7000
003fe000
00398000
00380000
00380000
00fe0000
00000000
00000000
00000000
ENDCHAR
STARTCHAR 0441
ENCODING 1089
SWIDTH 520 0
DWIDTH 29 0
BBX 29 28 0 -4
BITMAP
00000000
00000000
00000000
00000000
00000000
00000000
00000000
00000000
00000000
00078000
001ce000
00386000
00307000
00706000
00700000
00700000
00700000
00703000
00306000
00386000
001cc000
00078000
00000000
00000000
00000000
00000000
00000000
00000000
ENDCHAR
STARTCHAR 0442
ENCODING 1090
SWIDTH 520 0
DWIDTH 29 0
BBX 29 28 0 -4
BITMAP
00000000
00000000
00000000
00000000
00000000
00000000
00000000
00000000
00000000
00000000
007ff000
00673000
00673000
00070000
00070000
00070000
00070000
00070000
00070000
00070000
000f8000
00000000
00000000
00000000
00000000
00000000
00000000
00000000
ENDCHAR
STARTCHAR 0443
ENCODING 1091
SWIDTH 520 0
DWIDTH 29 0
BBX 29 28 0 -4
BITMAP
00000000
00000000
00000000
00000000
00000000
00000000
00000000
00000000
00000000
01f83800
00703000
00703000
00386000
00386000
001cc000
001cc000
000f8000
000f0000
00070000
00060000
00060000
000c0000
000c0000
01d80000
01d80000
00f00000
00000000
00000000
ENDCHAR
STARTCHAR 0444
ENCODING 1092
SWIDTH 520 0
DWIDTH 29 0
BBX 29 28 0 -4
BITMAP
00000000
00000000
00000000
00000000
001f0000
00070000
00070000
00070000
00070000
0037e000
00ffb800
01c71800
01871c00
03871c00
03871c00
03871c00
03871c00
03871c00
01c71c00
01c71c00
00cfb800
007fe000
00070000
00070000
001fc000
00000000
00000000
00000000
ENDCHAR
STARTCHAR 0445
ENCODING 1093
SWIDTH 520 0
DWIDTH 29 0
BBX 29 28 0 -4
BITMAP
00000000
00000000
00000000
00000000
00000000
00000000
00000000
00000000
00000000
00000000
00f87000
00386000
001cc000
000f8000
000f0000
00070000
000f8000
0019c000
0030e000
0030e000
00e07800
00000000
00000000
00000000
00000000
00000000
00000000
00000000
ENDCHAR
STARTCHAR 0446
ENCODING 1094
SWIDTH 520 0
DWIDTH 29 0
BBX 29 28 0 -4
BITMAP
00000000
00000000
00000000
00000000
00000000
00000000
00000000
00000000
00000000
00000000
00f0f000
00706000
00706000
00706000
00706000
00706000
00706000
00706000
00706000
00706000
0070f000
001ff800
00001800
00001800
00000000
00000000
00000000
00000000
ENDCHAR
STARTCHAR 0447
ENCODING 1095
SWIDTH 520 0
DWIDTH 29 0
BBX 29 28 0 -4
BITMAP
00000000
00000000
00000000
00000000
00000000
00000000
00000000
00000000
00000000
00707000
00707000
00707000
00707000
00707000
00707000
003bf000
001e7000
00007000
00007000
00007000
0000f000
00000000
00000000
00000000
00000000
00000000
00000000
00000000
ENDCHAR
STARTCHAR 0448
ENCODING 1096
SWIDTH 520 0
DWIDTH 29 0
BBX 29 28 0 -4
BITMAP
00000000
00000000
00000000
00000000
00000000
00000000
00000000
00000000
00000000
0fcf9f80
03870f00
03870600
03870600
03870600
03870600
03870600
03870600
03870600
03870600
03870600
07ffff00
00000000
00000000
00000000
00000000
00000000
00000000
00000000
ENDCHAR
STARTCHAR 0449
ENCODING 1097
SWIDTH 520 0
DWIDTH 29 0
BBX 29 28 0 -4
BITMAP
00000000
00000000
00000000
00000000
00000000
00000000
00000000
00000000
00000000
00000000
07870f00
03070600
03070600
03070600
03070600
03070600
03070600
03070600
03070600
03070600
07870e00
00fdff80
00000380
00000180
00000180
00000000
00000000
00000000
ENDCHAR
STARTCHAR 044A
ENCODING 1098
SWIDTH 520 0
DWIDTH 29 0
BBX 29 28 0 -4
BITMAP
00000000
00000000
00000000
00000000
00000000
00000000
00000000
00000000
00000000
00000000
01fe0000
018c0000
018c0000
000c0000
000c0000
000ff800
000c1c00
000c1c00
000c1c00
000c1c00
001ff800
00000000
00000000
00000000
00000000
00000000
00000000
00000000
ENDCHAR
STARTCHAR 044B
ENCODING 1099
SWIDTH 520 0
DWIDTH 29 0
BBX 29 28 0 -4
BITMAP
00000000
00000000
00000000
00000000
00000000
00000000
00000000
00000000
00000000
00000000
01e03c00
00c01800
00c01800
00c01800
00c01800
00ff1800
00c19800
00c1d800
00c1d800
00c1d800
01ffbc00
00000000
00000000
00000000
00000000
00000000
00000000
00000000
ENDCHAR
STARTCHAR 044C
ENCODING 1100
SWIDTH 520 0
DWIDTH 29 0
BBX 29 28 0 -4
BITMAP
00000000
00000000
00000000
00000000
00000000
00000000
00000000
00000000
00000000
00000000
007c0000
00380000
00380000
00380000
00380000
003fc000
00387000
00383000
00383000
00383000
003fe000
00000000
00000000
00000000
00000000
00000000
00000000
00000000
ENDCHAR
STARTCHAR 044D
ENCODING 1101
SWIDTH 520 0
DWIDTH 29 0
BBX 29 28 0 -4
BITMAP
00000000
00000000
00000000
00000000
00000000
00000000
00000000
00000000
00000000
00070000
007dc000
0070e000
00706000
00607000
00007000
0007f000
00007000
00607000
00706000
0060e000
0031c000
001f0000
00000000
00000000
00000000
00000000
00000000
00000000
ENDCHAR
STARTCHAR 044E
ENCODING 1102
SWIDTH 520 0
DWIDTH 29 0
BBX 29 28 0 -4
BITMAP
00000000
00000000
00000000
00000000
00000000
00000000
00000000
00000000
00000000
0001e000
01c73800
01c61c00
01ce0c00
01cc0e00
01cc0e00
01fc0e00
01cc0e00
01cc0e00
01ce0c00
01c61c00
01c33800
0061e000
00000000
00000000
00000000
00000000
00000000
00000000
ENDCHAR
STARTCHAR 044F
ENCODING 1103
SWIDTH 520 0
DWIDTH 29 0
BBX 29 28 0 -4
BITMAP
00000000
00000000
00000000
00000000
00000000
00000000
00000000
00000000
00000000
00000000
001ff000
00386000
00386000
00386000
001c6000
000fe000
001c6000
001c6000
001c6000
00186000
00f87000
0079f800
00000000
00000000
00000000
00000000
00000000
00000000
ENDCHAR
STARTCHAR 0451
ENCODING 1105
SWIDTH 520 0
DWIDTH 29 0
BBX 29 28 0 -4
BITMAP
00000000
00000000
00000000
00000000
00000000
00000000
00000000
001dc000
001dc000
00000000
001fc000
0038e000
00306000
00707000
007ff000
00700000
00700000
00700000
00703000
00386000
001fc000
00070000
00000000
00000000
00000000
00000000
00000000
00000000
ENDCHAR
STARTCHAR 2015
ENCODING 8213
SWIDTH 520 0
DWIDTH 29 0
BBX 29 28 0 -4
BITMAP
00000000
00000000
00000000
00000000
00000000
00000000
00000000
00000000
00000000
00000000
00000000
00000000
00000000
0fffff80
0fffff80
00000000
00000000
00000000
00000000
00000000
00000000
00000000
00000000
00000000
00000000
00000000
00000000
00000000
ENDCHAR
STARTCHAR 2016
ENCODING 8214
SWIDTH 520 0
DWIDTH 29 0
BBX 29 28 0 -4
BITMAP
00000000
00000000
0018c000
0018c000
0018c000
0018c000
0018c000
0018c000
0018c000
0018c000
0018c000
0018c000
0018c000
0018c000
0018c000
0018c000
0018c000
0018c000
0018c000
0018c000
0018c000
0018c000
0018c000
0018c000
0018c000
0018c000
00000000
00000000
ENDCHAR
STARTCHAR 2018
ENCODING 8216
SWIDTH 520 0
DWIDTH 29 0
BBX 29 28 0 -4
BITMAP
00000000
00000000
00000000
00000180
00000700
00000e00
00000c00
00001e00
00001f00
00001f00
00000e00
00000000
00000000
00000000
00000000
00000000
00000000
00000000
00000000
00000000
00000000
00000000
00000000
00000000
00000000
00000000
00000000
00000000
ENDCHAR
STARTCHAR 2019
ENCODING 8217
SWIDTH 520 0
DWIDTH 29 0
BBX 29 28 0 -4
BITMAP
00000000
00000000
00000000
03800000
07c00000
07c00000
03800000
01800000
03000000
06000000
0c000000
00000000
00000000
00000000
00000000
00000000
00000000
00000000
00000000
00000000
00000000
00000000
00000000
00000000
00000000
00000000
00000000
00000000
ENDCHAR
STARTCHAR 201C
ENCODING 8220
SWIDTH 520 0
DWIDTH 29 0
BBX 29 28 0 -4
BITMAP
00000000
00000000
00000000
00006180
0001c700
00018e00
00030c00
00079e00
0007df00
0007df00
0003ce00
00000000
00000000
00000000
00000000
00000000
00000000
00000000
00000000
00000000
00000000
00000000
00000000
00000000
00000000
00000000
00000000
00000000
ENDCHAR
STARTCHAR 201D
ENCODING 8221
SWIDTH 520 0
DWIDTH 29 0
BBX 29 28 0 -4
BITMAP
00000000
00000000
00000000
039e0000
07de0000
07de0000
038e0000
018e0000
030c0000
06180000
0c300000
00000000
00000000
00000000
00000000
00000000
00000000
00000000
00000000
00000000
00000000
00000000
00000000
00000000
00000000
00000000
00000000
00000000
ENDCHAR
STARTCHAR 2026
ENCODING 8230
SWIDTH 520 0
DWIDTH 29 0
BBX 29 28 0 -4
BITMAP
00000000
00000000
00000000
00000000
00000000
00000000
00000000
00000000
00000000
00000000
00000000
00000000
0e0f0780
1f0f87c0
1f0f87c0
1e0f0780
00000000
00000000
00000000
00000000
00000000
00000000
00000000
00000000
00000000
00000000
00000000
00000000
ENDCHAR
STARTCHAR 2030
ENCODING 8240
SWIDTH 520 0
DWIDTH 29 0
BBX 29 28 0 -4
BITMAP
00000000
00000000
00003000
06003000
1f806000
3980c000
31c1c000
31c18000
31c30000
31c60000
398e0000
198c0000
1f180000
00300000
00700000
006f87c0
00dcce60
0198cc60
0398cc60
0318cc60
0618cc60
0c18cc60
1c18cc60
180dc6c0
00070380
00000000
00000000
00000000
ENDCHAR
STARTCHAR 2032
ENCODING 8242
SWIDTH 520 0
DWIDTH 29 0
BBX 29 28 0 -4
BITMAP
00000000
00000000
01800000
01c00000
01800000
03800000
03800000
03000000
03000000
06000000
06000000
06000000
00000000
00000000
00000000
00000000
00000000
00000000
00000000
00000000
00000000
00000000
00000000
00000000
00000000
00000000
00000000
00000000
ENDCHAR
STARTCHAR 2033
ENCODING 8243
SWIDTH 520 0
DWIDTH 29 0
BBX 29 28 0 -4
BITMAP
00000000
00000000
01800000
01ce0000
019c0000
039c0000
03180000
03180000
03300000
06300000
06600000
00000000
00000000
00000000
00000000
00000000
00000000
00000000
00000000
00000000
00000000
00000000
00000000
00000000
00000000
00000000
00000000
00000000
ENDCHAR
STARTCHAR 203B
ENCODING 8251
SWIDTH 520 0
DWIDTH 29 0
BBX 29 28 0 -4
BITMAP
00000000
00000000
00000000
00000000
0c070180
0e0f8300
070f8600
03870c00
01c01800
00603000
0030e000
001dc000
070f8700
0f870f80
0f8f8f80
071dc700
0038e000
00707000
00e03800
01c01c00
03878e00
070f8700
0e0f8380
0c000180
00000000
00000000
00000000
00000000
ENDCHAR
STARTCHAR 2103
ENCODING 8451
SWIDTH 520 0
DWIDTH 29 0
BBX 29 28 0 -4
BITMAP
00000000
00000000
00000000
00000000
0f83f000
198f1c00
199c0780
0fb80380
06300180
00700180
00700180
00600000
00e00000
00e00000
00e00000
00e00000
00700000
00700000
00700000
00380180
00380300
001c0600
000f3c00
0003f000
00000000
00000000
00000000
00000000
ENDCHAR
STARTCHAR 2116
ENCODING 8470
SWIDTH 520 0
DWIDTH 29 0
BBX 29 28 0 -4
BITMAP
00000000
00000000
00000000
00000000
00000000
3e0fc000
0f038000
0f838000
0f838000
0dc38000
0dc38f00
0ce39980
0cf3b9c0
0c73b1c0
0c3bb1c0
0c3fb1c0
0c1fb1c0
0c0fb980
0c0f9980
0c078f00
0c078000
1e03bfe0
00000000
00000000
00000000
00000000
00000000
00000000
ENDCHAR
STARTCHAR 2160
ENCODING 8544
SWIDTH 520 0
DWIDTH 29 0
BBX 29 28 0 -4
BITMAP
00000000
00000000
00000000
003fe000
000f0000
00070000
00070000
00070000
00070000
00070000
00070000
00070000
00070000
00070000
00070000
00070000
00070000
00070000
00070000
00070000
00070000
00070000
00070000
00070000
003fe000
00000000
00000000
00000000
ENDCHAR
STARTCHAR 2161
ENCODING 8545
SWIDTH 520 0
DWIDTH 29 0
BBX 29 28 0 -4
BITMAP
00000000
00000000
00000000
03fdfe00
00f07800
00707000
00707000
00707000
00707000
00707000
00707000
00707000
00707000
00707000
00707000
00707000
00707000
00707000
00707000
00707000
00707000
00707000
00707000
00f07800
03fdfe00
00000000
00000000
00000000
ENDCHAR
STARTCHAR 2162
ENCODING 8546
SWIDTH 520 0
DWIDTH 29 0
BBX 29 28 0 -4
BITMAP
00000000
00000000
00000000
7ffffff0
1e0f0380
0e070380
0e070380
0e070380
0e070380
0e070380
0e070380
0e070380
0e070380
0e070380
0e070380
0e070380
0e070380
0e070380
0e070380
0e070380
0e070380
0e070380
0e070380
1e070380
7ffffff0
00000000
00000000
00000000
ENDCHAR
STARTCHAR 2163
ENCODING 8547
SWIDTH 520 0
DWIDTH 29 0
BBX 29 28 0 -4
BITMAP
00000000
00000000
00000000
1fff87e0
071e0180
070e0180
070e0300
070e0300
070e0300
07070300
07070600
07070600
07038600
07038600
07038c00
07038c00
0701cc00
0701cc00
0701d800
0701d800
0700f800
0700f000
0700f000
07007000
3fe07000
00000000
00000000
00000000
ENDCHAR
STARTCHAR 2164
ENCODING 8548
SWIDTH 520 0
DWIDTH 29 0
BBX 29 28 0 -4
BITMAP
00000000
00000000
00000000
0ff07f80
01c00c00
01c00c00
01e01800
00e01800
00e01800
00f03000
00703000
00703000
00786000
00386000
00386000
0038c000
001cc000
001cc000
001d8000
000f8000
000f8000
000f8000
000f0000
00070000
00070000
00000000
00000000
00000000
ENDCHAR
STARTCHAR 2165
ENCODING 8549
SWIDTH 520 0
DWIDTH 29 0
BBX 29 28 0 -4
BITMAP
00000000
00000000
00000000
7f87ffe0
0e018700
0e018700
0e018700
07018700
07030700
07030700
07030700
03830700
03860700
03860700
03860700
01c60700
01cc0700
01cc0700
01cc0700
00ec0700
00f80700
00f80700
00f80700
00780f00
00707fe0
00000000
00000000
00000000
ENDCHAR
STARTCHAR 2166
ENCODING 8550
SWIDTH 520 0
DWIDTH 29 0
BBX 29 28 0 -4
BITMAP
00000000
00000000
00000000
7f0ffff0
1c0671c0
1c0671c0
0e0671c0
0e0671c0
0e0c71c0
0e0c71c0
060c71c0
070c71c0
070c71c0
071871c0
071871c0
039871c0
039871c0
03b071c0
03b071c0
01b071c0
01f071c0
01f071c0
01e071c0
00e071c0
00e1fff0
00000000
00000000
00000000
ENDCHAR
STARTCHAR 2167
ENCODING 8551
SWIDTH 520 0
DWIDTH 29 0
BBX 29 28 0 -4
BITMAP
00000000
00000000
00000000
7e3ffff0
1c0ddce0
1c0ddce0
1c1ddce0
1c19dce0
1c19dce0
0e19dce0
0e19dce0
0e39dce0
0e31dce0
0e31dce0
0731dce0
0731dce0
0731dce0
0761dce0
0761dce0
03e1dce0
03e1dce0
03c1dce0
03c1dce0
03c1dce0
01c7fff0
00000000
00000000
00000000
ENDCHAR
STARTCHAR 2168
ENCODING 8552
SWIDTH 520 0
DWIDTH 29 0
BBX 29 28 0 -4
BITMAP
00000000
00000000
00000000
3fff8fe0
071e0380
070e0300
070e0600
07070600
07078c00
07038c00
0703d800
0701f000
0700f000
0700e000
07007000
0700f000
0700f800
0701bc00
07031c00
07031e00
07060e00
07060700
070c0700
070c0380
3ffe0fe0
00000000
00000000
00000000
ENDCHAR
STARTCHAR 2169
ENCODING 8553
SWIDTH 520 0
DWIDTH 29 0
BBX 29 28 0 -4
BITMAP
00000000
00000000
00000000
07f87f00
01e01800
00e01800
00703000
00706000
00386000
003cc000
001cc000
001f8000
000f0000
000f0000
00070000
000f8000
000f8000
0019c000
0019e000
0030e000
0060f000
00607000
00c03800
01c03800
07f0ff00
00000000
00000000
00000000
ENDCHAR
STARTCHAR 216A
ENCODING 8554
SWIDTH 520 0
DWIDTH 29 0
BBX 29 28 0 -4
BITMAP
00000000
00000000
00000000
1fc3ffe0
0700c780
07818700
03818700
03c30700
01c30700
01e60700
00ec0700
00fc0700
00780700
00380700
00380700
007c0700
007c0700
00ce0700
018e0700
01870700
03078700
03038700
0603c700
0e01c700
3f07ffe0
00000000
00000000
00000000
ENDCHAR
STARTCHAR 216B
ENCODING 8555
SWIDTH 520 0
DWIDTH 29 0
BBX 29 28 0 -4
BITMAP
00000000
00000000
00000000
7f87fff0
1e0339c0
0e0639c0
0e0639c0
070c39c0
070c39c0
039839c0
039839c0
01f039c0
01e039c0
00e039c0
00e039c0
00f039c0
01f039c0
01b839c0
033839c0
061c39c0
061c39c0
0c0e39c0
0c0e39c0
180739c0
7e1ffff0
00000000
00000000
00000000
ENDCHAR
STARTCHAR 2190
ENCODING 8592
SWIDTH 520 0
DWIDTH 29 0
BBX 29 28 0 -4
BITMAP
00000000
00000000
00000000
00000000
00000000
00000000
00000000
00000000
00000000
00000000
00000000
00700000
03f00000
0fffffe0
1fffffe0
03e00000
00700000
00000000
00000000
00000000
00000000
00000000
00000000
00000000
00000000
00000000
00000000
00000000
ENDCHAR
STARTCHAR 2191
ENCODING 8593
SWIDTH 520 0
DWIDTH 29 0
BBX 29 28 0 -4
BITMAP
00000000
00000000
00000000
00060000
00070000
00070000
00078000
000f8000
000f8000
001fc000
001fc000
00370000
00070000
00070000
00070000
00070000
00070000
00070000
00070000
00070000
00070000
00070000
00070000
00070000
00070000
00070000
00000000
00000000
ENDCHAR
STARTCHAR 2192
ENCODING 8594
SWIDTH 520 0
DWIDTH 29 0
BBX 29 28 0 -4
BITMAP
00000000
00000000
00000000
00000000
00000000
00000000
00000000
00000000
00000000
00000000
00000000
00007000
00007e00
3fffff80
3fffffc0
00003e00
00007000
0000c000
00000000
00000000
00000000
00000000
00000000
00000000
00000000
00000000
00000000
00000000
ENDCHAR
STARTCHAR 2193
ENCODING 8595
SWIDTH 520 0
DWIDTH 29 0
BBX 29 28 0 -4
BITMAP
00000000
00000000
00070000
00070000
00070000
00070000
00070000
00070000
00070000
00070000
00070000
00070000
00070000
00070000
00070000
00070000
00370000
001fc000
001fc000
000f8000
000f8000
000f0000
00070000
00070000
00060000
00000000
00000000
00000000
ENDCHAR
STARTCHAR 2208
ENCODING 8712
SWIDTH 520 0
DWIDTH 29 0
BBX 29 28 0 -4
BITMAP
00000000
00000000
00000000
00000000
00000000
00000000
00000000
00ffff00
01c00000
03800000
03000000
03000000
07000000
07ffff00
07ffff00
07000000
03000000
03000000
03800000
01c00000
00ffff00
00000000
00000000
00000000
00000000
00000000
00000000
00000000
ENDCHAR
STARTCHAR 220F
ENCODING 8719
SWIDTH 520 0
DWIDTH 29 0
BBX 29 28 0 -4
BITMAP
00000000
00000000
00000000
00000000
1fffffc0
03c01e00
03800e00
03800c00
03800c00
03800c00
03800c00
03800c00
03800c00
03800c00
03800c00
03800c00
03800c00
03800c00
03800c00
03800c00
03800c00
03800c00
03800e00
0ff07f80
0ff07f80
00000000
00000000
00000000
ENDCHAR
STARTCHAR 2211
ENCODING 8721
SWIDTH 520 0
DWIDTH 29 0
BBX 29 28 0 -4
BITMAP
00000000
00000000
00000000
00000000
07fffc00
07801e00
03800e00
01c00600
01e00000
00e00000
00700000
00780000
00380000
001c0000
001e0000
000c0000
00180000
00380000
00700000
00e00000
00c00000
01800600
03801e00
07fffe00
07fffc00
00000000
00000000
00000000
ENDCHAR
STARTCHAR 221A
ENCODING 8730
SWIDTH 520 0
DWIDTH 29 0
BBX 29 28 0 -4
BITMAP
00000000
00000000
00000000
00000000
00000600
00000e00
00000c00
00000c00
00001c00
00001800
00001800
00003800
00003000
00003000
00007000
00306000
00786000
00dce000
001ec000
000ec000
0007c000
00038000
00038000
00018000
00000000
00000000
00000000
00000000
ENDCHAR
STARTCHAR 221D
ENCODING 8733
SWIDTH 520 0
DWIDTH 29 0
BBX 29 28 0 -4
BITMAP
00000000
00000000
00000000
00000000
00000000
00000000
00000000
00000000
00000000
00000000
07f83fc0
0e0e7000
1c07c000
18038000
1c038000
0c06c000
071c70c0
03f01f80
00000000
00000000
00000000
00000000
00000000
00000000
00000000
00000000
00000000
00000000
ENDCHAR
STARTCHAR 221E
ENCODING 8734
SWIDTH 520 0
DWIDTH 29 0
BBX 29 28 0 -4
BITMAP
00000000
00000000
00000000
00000000
00000000
00000000
00000000
00000000
00000000
00000000
03f0ff00
0e3dc380
0c0f81c0
1c0701c0
1c0701c0
1c0f81c0
0e1dc380
07f8ff00
00000000
00000000
00000000
00000000
00000000
00000000
00000000
00000000
00000000
00000000
ENDCHAR
STARTCHAR 2220
ENCODING 8736
SWIDTH 520 0
DWIDTH 29 0
BBX 29 28 0 -4
BITMAP
00000000
00000000
00000000
00000000
000000c0
000001c0
00000380
00000700
00000e00
00001c00
00003800
00006000
0000c000
00018000
00030000
00060000
000c0000
00380000
00700000
00e00000
01c00000
03800000
07000000
0fffff80
00000000
00000000
00000000
00000000
ENDCHAR
STARTCHAR 2225
ENCODING 8741
SWIDTH 520 0
DWIDTH 29 0
BBX 29 28 0 -4
BITMAP
00000000
00000000
00000000
00000000
00030300
00030300
00060700
00060600
000c0c00
000c0c00
00181800
00181800
00303000
00703000
00606000
00e0e000
00c0c000
01c1c000
01818000
03838000
03030000
07070000
06060000
000e0000
00000000
00000000
00000000
00000000
ENDCHAR
STARTCHAR 2227
ENCODING 8743
SWIDTH 520 0
DWIDTH 29 0
BBX 29 28 0 -4
BITMAP
00000000
00000000
00000000
00030000
00070000
00070000
000d8000
000d8000
001cc000
0018c000
0038e000
00306000
00707000
00603000
00603000
00c01800
00c01800
01800c00
01800c00
03000e00
03000600
06000700
06000300
0e000380
0c000180
00000000
00000000
00000000
ENDCHAR
STARTCHAR 2228
ENCODING 8744
SWIDTH 520 0
DWIDTH 29 0
BBX 29 28 0 -4
BITMAP
00000000
00000000
00000000
00000000
0c000180
0c000180
06000300
06000300
03000600
03000600
01800e00
01800c00
00c01c00
00c01800
00603800
00603000
00307000
00306000
0018e000
0018c000
000dc000
000d8000
00078000
00070000
00030000
00000000
00000000
00000000
ENDCHAR
STARTCHAR 2229
ENCODING 8745
SWIDTH 520 0
DWIDTH 29 0
BBX 29 28 0 -4
BITMAP
00000000
00000000
00000000
00000000
00000000
000f8000
007ff000
00e03800
01c01c00
01800c00
03800e00
03800e00
03800e00
03800e00
03800e00
03800e00
03800e00
03800e00
03800e00
03800e00
03800e00
03800e00
03800e00
00000000
00000000
00000000
00000000
00000000
ENDCHAR
STARTCHAR 222A
ENCODING 8746
SWIDTH 520 0
DWIDTH 29 0
BBX 29 28 0 -4
BITMAP
00000000
00000000
00000000
00000000
00000000
00000000
03800c00
03800c00
03800c00
03800c00
03800c00
03800c00
03800c00
03800c00
03800c00
03800c00
03800c00
03800c00
01800c00
01c01c00
00e03800
007ff000
000f8000
00000000
00000000
00000000
00000000
00000000
ENDCHAR
STARTCHAR 222B
ENCODING 8747
SWIDTH 520 0
DWIDTH 29 0
BBX 29 28 0 -4
BITMAP
00000000
00000000
00000000
0000f000
0001b800
0003b800
00030000
00030000
00030000
00030000
00030000
00030000
00030000
00030000
00030000
00070000
00070000
00070000
00060000
00060000
00060000
00060000
00660000
006c0000
007c0000
00000000
00000000
00000000
ENDCHAR
STARTCHAR 222E
ENCODING 8750
SWIDTH 520 0
DWIDTH 29 0
BBX 29 28 0 -4
BITMAP
00000000
00000000
00000000
0001f000
0003b800
00033000
00030000
00030000
00030000
00030000
001fc000
003b6000
00333000
00333000
00333000
00337000
003f6000
001fc000
00070000
00060000
00060000
00060000
00760000
007c0000
00780000
00000000
00000000
00000000
ENDCHAR
STARTCHAR 2234
ENCODING 8756
SWIDTH 520 0
DWIDTH 29 0
BBX 29 28 0 -4
BITMAP
00000000
00000000
00000000
00000000
00000000
000f8000
000f8000
001f8000
000f8000
00070000
00000000
00000000
00000000
00000000
00000000
00000000
00000000
00000000
03c01e00
07e03f00
07e03f00
07e03f00
03c01e00
00000000
00000000
00000000
00000000
00000000
ENDCHAR
STARTCHAR 2235
ENCODING 8757
SWIDTH 520 0
DWIDTH 29 0
BBX 29 28 0 -4
BITMAP
00000000
00000000
00000000
00000000
00000000
03c01e00
07e03f00
07e03f00
07c03e00
03c01e00
00000000
00000000
00000000
00000000
00000000
00000000
00000000
00000000
00070000
000f8000
001f8000
000f8000
000f8000
00000000
00000000
00000000
00000000
00000000
ENDCHAR
STARTCHAR 2236
ENCODING 8758
SWIDTH 520 0
DWIDTH 29 0
BBX 29 28 0 -4
BITMAP
00000000
00000000
00000000
00000000
00000000
00070000
000f8000
000f8000
00070000
00000000
00000000
00000000
00000000
00000000
00000000
00000000
00000000
00000000
00000000
000f0000
000f8000
000f8000
00070000
00000000
00000000
00000000
00000000
00000000
ENDCHAR
STARTCHAR 2237
ENCODING 8759
SWIDTH 520 0
DWIDTH 29 0
BBX 29 28 0 -4
BITMAP
00000000
00000000
00000000
00000000
00000000
03800e00
07c01f00
07c01f00
03c01e00
00000000
00000000
00000000
00000000
00000000
00000000
00000000
00000000
00000000
00000000
03c01e00
07c01f00
07c01f00
03800e00
00000000
00000000
00000000
00000000
00000000
ENDCHAR
STARTCHAR 223D
ENCODING 8765
SWIDTH 520 0
DWIDTH 29 0
BBX 29 28 0 -4
BITMAP
00000000
00000000
00000000
00000000
00000000
00000000
00000000
00000000
00000000
00000000
0780ff00
0e01c380
1c038180
180701c0
180e01c0
1c1c0180
0e380700
03f00e00
00000000
00000000
00000000
00000000
00000000
00000000
00000000
00000000
00000000
00000000
ENDCHAR
STARTCHAR 2248
ENCODING 8776
SWIDTH 520 0
DWIDTH 29 0
BBX 29 28 0 -4
BITMAP
00000000
00000000
00000000
00000000
00000000
00000000
00000000
00000000
00000000
03f80000
0e1e00c0
1c070180
1801e700
00007c00
03f00000
071c00c0
1c0701c0
1803c780
0000fe00
00000000
00000000
00000000
00000000
00000000
00000000
00000000
00000000
00000000
ENDCHAR
STARTCHAR 224C
ENCODING 8780
SWIDTH 520 0
DWIDTH 29 0
BBX 29 28 0 -4
BITMAP
00000000
00000000
00000000
00000000
00000000
00000000
00000000
0780ff00
0e01c380
1c0381c0
1c0701c0
1c0601c0
0c0c0180
0e380380
03f00e00
00000000
00000000
1fffffc0
00000000
00000000
00000000
00000000
1fffffc0
00000000
00000000
00000000
00000000
00000000
ENDCHAR
STARTCHAR 2260
ENCODING 8800
SWIDTH 520 0
DWIDTH 29 0
BBX 29 28 0 -4
BITMAP
00000000
00000000
00000000
00000000
00000c00
00001800
00003800
00003000
00006000
0000e000
1fffffc0
1fffffc0
00038000
00030000
00060000
000e0000
1fffffc0
1fffffc0
00380000
00300000
00600000
00e00000
00c00000
00000000
00000000
00000000
00000000
00000000
ENDCHAR
STARTCHAR 2261
ENCODING 8801
SWIDTH 520 0
DWIDTH 29 0
BBX 29 28 0 -4
BITMAP
00000000
00000000
00000000
00000000
00000000
00000000
00000000
00000000
00000000
1fffffc0
00000000
00000000
00000000
1fffffc0
00000000
00000000
00000000
00000000
1fffffc0
00000000
00000000
00000000
00000000
00000000
00000000
00000000
00000000
00000000
ENDCHAR
STARTCHAR 2264
ENCODING 8804
SWIDTH 520 0
DWIDTH 29 0
BBX 29 28 0 -4
BITMAP
00000000
00000000
00000000
00000000
000003c0
00001e00
0000f000
00078000
003c0000
01e00000
0f000000
0f000000
01e00000
007c0000
000f8000
0001f000
18003c00
0f000780
01e000c0
003c0000
00078000
0000f000
00001e00
000003c0
00000000
00000000
00000000
00000000
ENDCHAR
STARTCHAR 2265
ENCODING 8805
SWIDTH 520 0
DWIDTH 29 0
BBX 29 28 0 -4
BITMAP
00000000
00000000
00000000
0c000000
0f000000
01e00000
003c0000
00078000
0000f000
00001e00
00000780
00000f80
00007c00
0003e000
001f0000
00f80000
07c000c0
0e000780
00003c00
0001e000
000f0000
00780000
03e00000
0f000000
00000000
00000000
00000000
00000000
ENDCHAR
STARTCHAR 226E
ENCODING 8814
SWIDTH 520 0
DWIDTH 29 0
BBX 29 28 0 -4
BITMAP
00000000
00000000
00000000
000e0000
000e0000
000e0000
000e0000
000e03c0
000e1e00
000ef000
000f8000
003e0000
01ee0000
0f0e0000
1e0e0000
03ce0000
007e0000
000f8000
000ff000
000e3e00
000e07c0
000e00c0
000e0000
000e0000
000e0000
00000000
00000000
00000000
ENDCHAR
STARTCHAR 226F
ENCODING 8815
SWIDTH 520 0
DWIDTH 29 0
BBX 29 28 0 -4
BITMAP
00000000
00000000
00000000
00030000
00030000
00030000
18030000
1f030000
03e30000
007f0000
000f8000
0003f000
00033e00
000303c0
00030780
00033c00
0003e000
000f0000
007b0000
03c30000
1e030000
00030000
00030000
00030000
00030000
00000000
00000000
00000000
ENDCHAR
STARTCHAR 2299
ENCODING 8857
SWIDTH 520 0
DWIDTH 29 0
BBX 29 28 0 -4
BITMAP
00000000
00000000
00000000
000f8000
007df000
01e03c00
03800e00
07000700
06000300
0c000380
0c000180
1c000180
1c0f01c0
180f81c0
180f81c0
1c0f01c0
1c000180
0c000180
0c000380
06000300
07000700
03800e00
01c01c00
0078f000
001fc000
00000000
00000000
00000000
ENDCHAR
STARTCHAR 22A5
ENCODING 8869
SWIDTH 520 0
DWIDTH 29 0
BBX 29 28 0 -4
BITMAP
00000000
00000000
00000000
00000000
00060000
00060000
00060000
00060000
00060000
00060000
00060000
00060000
00060000
00060000
00060000
00060000
00060000
00060000
00060000
00060000
00060000
00060000
00060000
0fffff80
00000000
00000000
00000000
00000000
ENDCHAR
STARTCHAR 2312
ENCODING 8978
SWIDTH 520 0
DWIDTH 29 0
BBX 29 28 0 -4
BITMAP
00000000
00000000
00000000
00000000
00000000
00000000
00000000
003fe000
00f07800
03c01e00
07000700
0e000300
0c000180
1c0001c0
180000c0
180000c0
00000000
00000000
00000000
00000000
00000000
00000000
00000000
00000000
00000000
00000000
00000000
00000000
ENDCHAR
STARTCHAR 2460
ENCODING 9312
SWIDTH 520 0
DWIDTH 29 0
BBX 29 28 0 -4
BITMAP
00000000
001fe000
00f03800
03800e00
07000300
0c000180
1c0300c0
180f00c0
301f0060
30070060
60070030
60070030
60070030
60070030
60070030
60070030
60070030
60070030
30070060
30070060
180700c0
1c3fe0c0
0c000180
07000300
03800e00
00e03800
003fe000
00000000
ENDCHAR
STARTCHAR 2461
ENCODING 9313
SWIDTH 520 0
DWIDTH 29 0
BBX 29 28 0 -4
BITMAP
00000000
001fe000
00f03800
03800e00
06000300
0c000180
181f80c0
1871c0c0
3060e060
30c07060
60f07060
60e07030
6000e030
6001c030
6001c030
60070030
600e0030
601c0060
30381860
30601860
18fff8c0
18fff9c0
0c000180
06000300
03800e00
00e03800
003fe000
00000000
ENDCHAR
STARTCHAR 2462
ENCODING 9314
SWIDTH 520 0
DWIDTH 29 0
BBX 29 28 0 -4
BITMAP
00000000
001fe000
00f03800
03800e00
06000300
0c000180
180f00c0
1839e0c0
30607060
30f07060
60f07060
60007030
6000e030
601f8030
6001e030
60007030
60003830
60e03860
30e03860
30e07060
1870e0c0
181f81c0
0c000180
06000300
03800e00
00e03800
003fe000
00000000
ENDCHAR
STARTCHAR 2463
ENCODING 9315
SWIDTH 520 0
DWIDTH 29 0
BBX 29 28 0 -4
BITMAP
00000000
001fe000
00f03800
03800e00
06000300
0c000180
180380c0
180780c0
30078060
300f8060
601f8060
601b8030
60338030
60738030
60638030
60c38030
60c38030
61fff060
30038060
30038060
180380c0
180fe1c0
0c000180
06000300
03800e00
00e03800
003fe000
00000000
ENDCHAR
STARTCHAR 2464
ENCODING 9316
SWIDTH 520 0
DWIDTH 29 0
BBX 29 28 0 -4
BITMAP
00000000
001fe000
00f03800
03800e00
06000300
0c003180
187ff0c0
187fc0c0
30600060
30600060
60600060
606fc030
6078e030
60607030
60003830
60003830
60003830
60e03860
30e03860
30607060
1838e0c0
180f81c0
0c000180
06000300
03800e00
00e03800
003fe000
00000000
ENDCHAR
STARTCHAR 2465
ENCODING 9317
SWIDTH 520 0
DWIDTH 29 0
BBX 29 28 0 -4
BITMAP
00000000
001fe000
00f03800
03800e00
06000300
0c000180
180fc0c0
183860c0
30307060
30707060
60e07060
60e00030
60efc030
60f86030
60e03030
60e03030
60e03830
60e03860
30603060
30607060
1830e0c0
181f81c0
0c000180
06000300
03800e00
00e03800
003fe000
00000000
ENDCHAR
STARTCHAR 2466
ENCODING 9318
SWIDTH 520 0
DWIDTH 29 0
BBX 29 28 0 -4
BITMAP
00000000
001fe000
00f03800
03800e00
06000300
0c000180
18fff8c0
18fff8c0
30c03060
30c06060
6000c060
6000c030
60018030
60038030
60038030
60030030
60070030
60070060
30070060
30070060
180700c0
180601c0
0c000180
06000300
03800e00
00e03800
003fe000
00000000
ENDCHAR
STARTCHAR 2467
ENCODING 9319
SWIDTH 520 0
DWIDTH 29 0
BBX 29 28 0 -4
BITMAP
00000000
001fe000
00f03800
03800e00
06000300
0c000180
180f80c0
1838c0c0
30306060
30607060
60607060
60607030
60306030
601dc030
601f8030
6070f030
60e03030
60e03860
30e03860
30e03860
186070c0
183dc1c0
0c070180
06000300
03800e00
00e03800
003fe000
00000000
ENDCHAR
STARTCHAR 2468
ENCODING 9320
SWIDTH 520 0
DWIDTH 29 0
BBX 29 28 0 -4
BITMAP
00000000
001fe000
00f03800
03800e00
06000300
0c000180
181f80c0
1870e0c0
30606060
30e07060
60e07060
60e03030
60e07830
60e07830
6070f830
6039f030
600f3030
60007060
30f07060
30f0e060
1861c0c0
183f81c0
0c000180
06000300
03800e00
00e03800
003fe000
00000000
ENDCHAR
STARTCHAR 2469
ENCODING 9321
SWIDTH 520 0
DWIDTH 29 0
BBX 29 28 0 -4
BITMAP
00000000
001fe000
00f03800
03800e00
06000300
0c000180
1830f0c0
19f1d8c0
30719c60
30738c60
60738c60
60738c30
60730c30
60730e30
60730c30
60730c30
60738c30
60738c60
30738c60
30719c60
1871d8c0
19fc71c0
0c000180
06000300
03800e00
00e03800
003fe000
00000000
ENDCHAR
STARTCHAR 2474
ENCODING 9332
SWIDTH 520 0
DWIDTH 29 0
BBX 29 28 0 -4
BITMAP
00000000
00000000
00000000
00000000
07030600
0e070300
0c0f0180
180700c0
380700c0
380700e0
30070060
70070060
70070070
70070070
70070070
70070070
70070060
30070060
380700e0
180700c0
180701c0
0c0f8180
0e18c300
06000600
03000000
00000000
00000000
00000000
ENDCHAR
STARTCHAR 2475
ENCODING 9333
SWIDTH 520 0
DWIDTH 29 0
BBX 29 28 0 -4
BITMAP
00000000
00000000
00000000
00000000
07070600
0e1dc300
0c38e180
183870c0
383870c0
383860e0
3000e060
7000e060
7001c070
70018070
70030070
70070070
70060060
300c0060
381800e0
183060c0
183061c0
0c3fe180
0e000300
06000600
03000000
00000000
00000000
00000000
ENDCHAR
STARTCHAR 2476
ENCODING 9334
SWIDTH 520 0
DWIDTH 29 0
BBX 29 28 0 -4
BITMAP
00000000
00000000
00000000
00000000
07070600
0e1dc300
0c30e180
1838e0c0
3838e0c0
3800e0e0
3001c060
70018060
700f0070
70038070
7000e070
70006070
70007060
30307060
387870e0
1830e0c0
1838e1c0
0c0f8180
0e000300
06000600
03000000
00000000
00000000
00000000
ENDCHAR
STARTCHAR 2477
ENCODING 9335
SWIDTH 520 0
DWIDTH 29 0
BBX 29 28 0 -4
BITMAP
00000000
00000000
00000000
00000000
07018600
0e018300
0c038180
180380c0
380780c0
380780e0
300d8060
700d8060
701d8070
70198070
70398070
70318070
70718060
307fe060
380180e0
180180c0
180181c0
0c03c180
0e060300
06000600
03000000
00000000
00000000
00000000
ENDCHAR
STARTCHAR 2478
ENCODING 9336
SWIDTH 520 0
DWIDTH 29 0
BBX 29 28 0 -4
BITMAP
00000000
00000000
00000000
00000000
0700e600
0e1fe300
0c300180
183000c0
383000c0
383000e0
30300060
703f8060
7038c070
7030e070
7000e070
70006070
70006060
30306060
387860e0
1830e0c0
1838c1c0
0c1f8180
0e060300
06000600
03000000
00000000
00000000
00000000
ENDCHAR
STARTCHAR 2479
ENCODING 9337
SWIDTH 520 0
DWIDTH 29 0
BBX 29 28 0 -4
BITMAP
00000000
00000000
00000000
00000000
07078600
0e0dc300
0c18e180
1838e0c0
383000c0
383000e0
30300060
70730060
707fc070
7078e070
7070e070
70706070
70706060
30706060
3830e0e0
1838e0c0
1838c1c0
0c1d8180
0e070300
06000600
03000000
00000000
00000000
00000000
ENDCHAR
STARTCHAR 247A
ENCODING 9338
SWIDTH 520 0
DWIDTH 29 0
BBX 29 28 0 -4
BITMAP
00000000
00000000
00000000
00000000
073fe600
0e3fe300
0c306180
1860c0c0
3860c0c0
380180e0
30018060
70030060
70030070
70070070
70060070
70060070
700e0060
300e0060
380e00e0
180e00c0
181e01c0
0c0c0180
0e000300
06000600
03000000
00000000
00000000
00000000
ENDCHAR
STARTCHAR 247B
ENCODING 9339
SWIDTH 520 0
DWIDTH 29 0
BBX 29 28 0 -4
BITMAP
00000000
00000000
00000000
00000600
07000300
0e1f8380
0c18c180
1838e1c0
3830e0c0
3830e0e0
3038c060
7019c060
700f8070
700f8070
7019c070
7038e070
70306060
30706060
387060e0
1830e0c0
1838c1c0
0c1f8180
0e000300
06000600
03000000
00000000
00000000
00000000
ENDCHAR
STARTCHAR 247C
ENCODING 9340
SWIDTH 520 0
DWIDTH 29 0
BBX 29 28 0 -4
BITMAP
00000000
00000000
00000000
00000000
07070600
0e1dc300
0c38e180
183060c0
383060c0
383060e0
30707060
70307060
7038f070
7018f070
700fe070
70006070
70006060
30006060
383860e0
1838e0c0
1838c1c0
0c1f8180
0e000300
06000600
03000000
00000000
00000000
00000000
ENDCHAR
STARTCHAR 247D
ENCODING 9341
SWIDTH 520 0
DWIDTH 29 0
BBX 29 28 0 -4
BITMAP
00000000
00000000
00000000
00000000
07300600
0e71fb00
0cf19980
18739cc0
38730cc0
38730ce0
30730c60
70730c60
70770c70
70770c70
70730c70
70730c70
70730c60
30730c60
38731ce0
18739cc0
187199c0
0df8f180
0e000300
06000600
03000000
00000000
00000000
00000000
ENDCHAR
STARTCHAR 247E
ENCODING 9342
SWIDTH 520 0
DWIDTH 29 0
BBX 29 28 0 -4
BITMAP
00000000
00000000
00000000
00000000
07303600
0ef0f300
0c707180
187030c0
387030c0
387030e0
30703060
70703060
70703070
70703070
70703070
70703070
70703060
30703060
387030e0
187030c0
187031c0
0dfcfd80
0e000300
06000600
03000000
00000000
00000000
00000000
ENDCHAR
STARTCHAR 247F
ENCODING 9343
SWIDTH 520 0
DWIDTH 29 0
BBX 29 28 0 -4
BITMAP
00000000
00000000
00000000
00000000
0730fe00
0ef19f00
0c731d80
18738cc0
38739cc0
38701ce0
30701c60
70703860
70703070
70703070
70706070
70706070
7070c060
3070c060
387180e0
18718cc0
18730dc0
0dfffd80
0e000300
06000600
03000000
00000000
00000000
00000000
ENDCHAR
STARTCHAR 2480
ENCODING 9344
SWIDTH 520 0
DWIDTH 29 0
BBX 29 28 0 -4
BITMAP
00000000
00000000
00000000
00000000
0730f600
0ef19b00
0c731d80
18739cc0
38739cc0
38701ce0
30701860
70703060
7070e070
70703870
70701c70
70700c70
70700c60
30700c60
38738ce0
18731cc0
187399c0
0dfcf180
0e000300
06000600
03000000
00000000
00000000
00000000
ENDCHAR
STARTCHAR 2481
ENCODING 9345
SWIDTH 520 0
DWIDTH 29 0
BBX 29 28 0 -4
BITMAP
00000000
00000000
00000000
00000000
07300600
0ef03300
0c703180
187070c0
387070c0
3870f0e0
3070f060
7070f060
7071b070
7071b070
70733070
70733070
70763060
3077fc60
387030e0
187030c0
187031c0
0dfc7d80
0e000300
06000600
03000000
00000000
00000000
00000000
ENDCHAR
STARTCHAR 2482
ENCODING 9346
SWIDTH 520 0
DWIDTH 29 0
BBX 29 28 0 -4
BITMAP
00000000
00000000
00000000
00000000
0731fe00
0ff18300
0c718180
187180c0
387180c0
387180e0
30730060
7073f860
70719c70
70701c70
70700c70
70700c70
70700c60
30700c60
38738ce0
18739cc0
187399c0
0dfdf180
0e000300
06000600
03000000
00000000
00000000
00000000
ENDCHAR
STARTCHAR 2483
ENCODING 9347
SWIDTH 520 0
DWIDTH 29 0
BBX 29 28 0 -4
BITMAP
00000000
00000000
00000000
00000000
07307e00
0ef0df00
0c719d80
18719cc0
387380c0
387300e0
30730060
70730060
7073f870
70739870
70739c70
70731c70
70731c60
30731c60
38739ce0
18739cc0
187199c0
0dfcf180
0e006300
06000600
03000000
00000000
00000000
00000000
ENDCHAR
STARTCHAR 2484
ENCODING 9348
SWIDTH 520 0
DWIDTH 29 0
BBX 29 28 0 -4
BITMAP
00000000
00000000
00000000
00000000
0733fe00
0e73ff00
0cf31980
187318c0
387018c0
387030e0
30703060
70706060
70706070
70706070
7070e070
7070c070
7070c060
3070c060
3871c0e0
1871c0c0
1871c1c0
0c71c180
0ed80300
06000600
03000000
00000000
00000000
00000000
ENDCHAR
STARTCHAR 2485
ENCODING 9349
SWIDTH 520 0
DWIDTH 29 0
BBX 29 28 0 -4
BITMAP
00000000
00000000
00000000
00000000
0730f600
0ef19b00
0c739980
18739cc0
38739cc0
38739ce0
30719860
7071f860
7070f070
7071f870
70719870
70731c70
70730c60
30730c60
38730ce0
18739cc0
187199c0
0dfcf180
0e000300
06000600
03000000
00000000
00000000
00000000
ENDCHAR
STARTCHAR 2486
ENCODING 9350
SWIDTH 520 0
DWIDTH 29 0
BBX 29 28 0 -4
BITMAP
00000000
00000000
00000000
00000000
0730f600
0ef19b00
0c739d80
18730cc0
38730cc0
38730ce0
30730c60
70730c60
70739c70
70719c70
7070fc70
70700c70
70700c60
30700c60
38718ce0
18739cc0
187199c0
0dfcf180
0e000300
06000600
03000000
00000000
00000000
00000000
ENDCHAR
STARTCHAR 2487
ENCODING 9351
SWIDTH 520 0
DWIDTH 29 0
BBX 29 28 0 -4
BITMAP
00000000
00000000
00000000
00000000
07fcf600
0eccdb00
0d8f9980
19cf9cc0
39cd9cc0
380d9ce0
301f9c60
701b9c60
701b9c70
70339c70
70639c70
70639c70
70c39c60
30c19c60
398198e0
198d98c0
1b0d99c0
0dfcf180
0e006300
06000600
03000000
00000000
00000000
00000000
ENDCHAR
STARTCHAR 2488
ENCODING 9352
SWIDTH 520 0
DWIDTH 29 0
BBX 29 28 0 -4
BITMAP
00000000
00000000
00000000
00000000
00030000
003f0000
00030000
00030000
00030000
00030000
00030000
00030000
00030000
00030000
00030000
00030000
00030000
00030000
000300e0
000301f0
000781f0
001fe0e0
00000000
00000000
00000000
00000000
00000000
00000000
ENDCHAR
STARTCHAR 2489
ENCODING 9353
SWIDTH 520 0
DWIDTH 29 0
BBX 29 28 0 -4
BITMAP
00000000
00000000
00000000
00000000
001fe000
00387000
00707800
00783800
00783800
00007800
00007000
0000f000
0000e000
0001c000
00038000
00070000
000e0000
000c0000
001830e0
003031f0
007ff1f0
007ff0e0
00000000
00000000
00000000
00000000
00000000
00000000
ENDCHAR
STARTCHAR 248A
ENCODING 9354
SWIDTH 520 0
DWIDTH 29 0
BBX 29 28 0 -4
BITMAP
00000000
00000000
00000000
00000000
000fe000
00387000
00387800
00387800
00007000
00007000
0000e000
0001c000
0007c000
00007000
00003800
00003c00
00001c00
00381c00
007838e0
003839f0
003c71f0
000fc0e0
00000000
00000000
00000000
00000000
00000000
00000000
ENDCHAR
STARTCHAR 248B
ENCODING 9355
SWIDTH 520 0
DWIDTH 29 0
BBX 29 28 0 -4
BITMAP
00000000
00000000
00000000
00000000
00006000
0000e000
0001e000
0001e000
0003e000
0006e000
000ee000
000ce000
0018e000
0038e000
0030e000
0060e000
00c0e000
00fffc00
0000e0e0
0000e1f0
0000e1f0
0007fce0
00000000
00000000
00000000
00000000
00000000
00000000
ENDCHAR
STARTCHAR 248C
ENCODING 9356
SWIDTH 520 0
DWIDTH 29 0
BBX 29 28 0 -4
BITMAP
00000000
00000000
00000000
00301800
003ff800
00300000
00300000
00300000
00300000
00300000
00378000
003ce000
00307000
00007800
00003800
00003800
00003800
00703800
007870e0
007071f0
0038e1f0
000f8000
00000000
00000000
00000000
00000000
00000000
00000000
ENDCHAR
STARTCHAR 248D
ENCODING 9357
SWIDTH 520 0
DWIDTH 29 0
BBX 29 28 0 -4
BITMAP
00000000
00000000
00000000
00000000
0007e000
000e7000
001c7800
00387000
00380000
00380000
00380000
007fe000
007c7000
00783800
00703800
00703800
00703800
00383800
003838e0
003871f0
001ce1f0
0007c000
00000000
00000000
00000000
00000000
00000000
00000000
ENDCHAR
STARTCHAR 248E
ENCODING 9358
SWIDTH 520 0
DWIDTH 29 0
BBX 29 28 0 -4
BITMAP
00000000
00000000
00000000
00000000
007ff800
00701800
00603000
00c06000
0000e000
0000c000
00018000
00038000
00030000
00030000
00070000
00070000
00070000
000f0000
000f00e0
000f01f0
000f01f0
000600e0
00000000
00000000
00000000
00000000
00000000
00000000
ENDCHAR
STARTCHAR 248F
ENCODING 9359
SWIDTH 520 0
DWIDTH 29 0
BBX 29 28 0 -4
BITMAP
00000000
00000000
00000000
00000000
000fc000
00386000
00383000
00703000
00783000
00387000
003ce000
001fc000
000f8000
001fe000
0038f000
00707000
00607800
00603800
006038e0
007071f0
0038e1f0
000fc000
00000000
00000000
00000000
00000000
00000000
00000000
ENDCHAR
STARTCHAR 2490
ENCODING 9360
SWIDTH 520 0
DWIDTH 29 0
BBX 29 28 0 -4
BITMAP
00000000
00000000
00000000
00000000
000fe000
001c7000
00387000
00303800
00703800
00703800
00703800
00303800
00387800
001cf800
0007b800
00003800
00003800
00003800
003830e0
003871f0
001de1f0
000f8000
00000000
00000000
00000000
00000000
00000000
00000000
ENDCHAR
STARTCHAR 2491
ENCODING 9361
SWIDTH 520 0
DWIDTH 29 0
BBX 29 28 0 -4
BITMAP
00000000
00000000
00000000
00000000
0181f000
0f833800
03871c00
03861c00
038e1c00
038e0c00
038e0c00
038e0c00
038e0c00
038e0c00
038e0c00
038e0c00
038e1c00
038e1c00
03861ce0
038719f0
038339f0
0fe1e0e0
00000000
00000000
00000000
00000000
00000000
00000000
ENDCHAR
STARTCHAR 2492
ENCODING 9362
SWIDTH 520 0
DWIDTH 29 0
BBX 29 28 0 -4
BITMAP
00000000
00000000
00000000
00000000
0180e000
0f87e000
0380e000
0380e000
0380e000
0380e000
0380e000
0380e000
0380e000
0380e000
0380e000
0380e000
0380e000
0380e000
0380e0e0
0380e1f0
0380e1f0
0fe3f8e0
00000000
00000000
00000000
00000000
00000000
00000000
ENDCHAR
STARTCHAR 2493
ENCODING 9363
SWIDTH 520 0
DWIDTH 29 0
BBX 29 28 0 -4
BITMAP
00000000
00000000
00000000
00000000
0183f800
0f871c00
03861c00
03871c00
03871c00
03801c00
03801c00
03803800
03803000
03807000
0380e000
0380c000
03818000
03830000
03860ce0
03860df0
038ffdf0
0feff8e0
00000000
00000000
00000000
00000000
00000000
00000000
ENDCHAR
STARTCHAR 2494
ENCODING 9364
SWIDTH 520 0
DWIDTH 29 0
BBX 29 28 0 -4
BITMAP
00000000
00000000
00000000
00000000
0183f000
0f863800
03871800
01871c00
01801c00
01803800
01803800
0180e000
0181e000
01803800
01801c00
01801c00
01801c00
01861c00
018f1ce0
018e1df0
018739f0
0fe1e0e0
00000000
00000000
00000000
00000000
00000000
00000000
ENDCHAR
STARTCHAR 2495
ENCODING 9365
SWIDTH 520 0
DWIDTH 29 0
BBX 29 28 0 -4
BITMAP
00000000
00000000
00000000
00000000
01800000
0f801800
03803800
01803800
01807800
0180f800
0181b800
0181b800
01833800
01863800
01863800
018c3800
01983800
019ffe00
018038e0
018039f0
018039f0
0fe0fee0
00000000
00000000
00000000
00000000
00000000
00000000
ENDCHAR
STARTCHAR 2496
ENCODING 9366
SWIDTH 520 0
DWIDTH 29 0
BBX 29 28 0 -4
BITMAP
00000000
00000000
00000000
00060c00
0387f800
0f860000
03860000
03860000
03860000
03860000
0386e000
0387b000
03861800
03801c00
03801c00
03801c00
03801c00
03861c00
038f1ce0
038e19f0
038739f0
0fe1e0e0
00000000
00000000
00000000
00000000
00000000
00000000
ENDCHAR
STARTCHAR 2497
ENCODING 9367
SWIDTH 520 0
DWIDTH 29 0
BBX 29 28 0 -4
BITMAP
00000000
00000000
00000000
00000000
0181f800
0f831c00
03871c00
03861800
03860000
03860000
038e0000
038ff000
038f3800
038e1c00
038e1c00
038e1c00
038e1c00
038e1c00
03861ce0
038719f0
038331f0
0fe1e0e0
00000000
00000000
00000000
00000000
00000000
00000000
ENDCHAR
STARTCHAR 2498
ENCODING 9368
SWIDTH 520 0
DWIDTH 29 0
BBX 29 28 0 -4
BITMAP
00000000
00000000
00000000
00000000
0187fc00
0f860c00
038c1800
018c1800
01803000
01803000
01803000
01806000
01806000
01806000
0180c000
0180c000
0180c000
0181c000
0181c0e0
0181c1f0
0381c1f0
0fe1c0e0
00000000
00000000
00000000
00000000
00000000
00000000
ENDCHAR
STARTCHAR 2499
ENCODING 9369
SWIDTH 520 0
DWIDTH 29 0
BBX 29 28 0 -4
BITMAP
00000000
00000000
00000000
00000000
0183f000
0f873800
03861800
03861c00
03861c00
03861800
03873800
0383f000
0380e000
0383b800
03871800
038e1c00
038e1c00
038e1c00
038e1ce0
03861df0
038739f0
0fe1e0e0
00000000
00000000
00000000
00000000
00000000
00000000
ENDCHAR
STARTCHAR 249A
ENCODING 9370
SWIDTH 520 0
DWIDTH 29 0
BBX 29 28 0 -4
BITMAP
00000000
00000000
00000000
00000000
0183f000
0f833800
03861c00
03861c00
03861c00
038e1c00
038e1c00
03861c00
03861c00
03833c00
0381fc00
03801c00
03801c00
03801c00
03871ce0
038719f0
038739f0
0fe3e0e0
00000000
00000000
00000000
00000000
00000000
00000000
ENDCHAR
STARTCHAR 249B
ENCODING 9371
SWIDTH 520 0
DWIDTH 29 0
BBX 29 28 0 -4
BITMAP
00000000
00000000
00000000
00000000
07e1f000
0c733800
1c371800
1e3e1c00
1c361c00
007e1c00
007e1c00
006e1c00
00ce1c00
01ce1c00
018e1c00
030e1c00
060e1c00
06061c00
0c061ce0
183719f0
1ff339f0
1ff1e0e0
00000000
00000000
00000000
00000000
00000000
00000000
ENDCHAR
STARTCHAR 2500
ENCODING 9472
SWIDTH 520 0
DWIDTH 29 0
BBX 29 28 0 -4
BITMAP
00000000
00000000
00000000
00000000
00000000
00000000
00000000
00000000
00000000
00000000
00000000
00000000
00000000
fffffff8
fffffff8
00000000
00000000
00000000
00000000
00000000
00000000
00000000
00000000
00000000
00000000
00000000
00000000
00000000
ENDCHAR
STARTCHAR 2501
ENCODING 9473
SWIDTH 520 0
DWIDTH 29 0
BBX 29 28 0 -4
BITMAP
00000000
00000000
00000000
00000000
00000000
00000000
00000000
00000000
00000000
00000000
00000000
00000000
fffffff8
fffffff8
fffffff8
fffffff8
00000000
00000000
00000000
00000000
00000000
00000000
00000000
00000000
00000000
00000000
00000000
00000000
ENDCHAR
STARTCHAR 2502
ENCODING 9474
SWIDTH 520 0
DWIDTH 29 0
BBX 29 28 0 -4
BITMAP
00070000
00070000
00070000
00070000
00070000
00070000
00070000
00070000
00070000
00070000
00070000
00070000
00070000
00070000
00070000
00070000
00070000
00070000
00070000
00070000
00070000
00070000
00070000
00070000
00070000
00070000
00070000
00070000
ENDCHAR
STARTCHAR 2503
ENCODING 9475
SWIDTH 520 0
DWIDTH 29 0
BBX 29 28 0 -4
BITMAP
000f8000
000f8000
000f8000
000f8000
000f8000
000f8000
000f8000
000f8000
000f8000
000f8000
000f8000
000f8000
000f8000
000f8000
000f8000
000f8000
000f8000
000f8000
000f8000
000f8000
000f8000
000f8000
000f8000
000f8000
000f8000
000f8000
000f8000
000f8000
ENDCHAR
STARTCHAR 2504
ENCODING 9476
SWIDTH 520 0
DWIDTH 29 0
BBX 29 28 0 -4
BITMAP
00000000
00000000
00000000
00000000
00000000
00000000
00000000
00000000
00000000
00000000
00000000
00000000
00000000
ff3fc7f8
ff3fc7f8
00000000
00000000
00000000
00000000
00000000
00000000
00000000
00000000
00000000
00000000
00000000
00000000
00000000
ENDCHAR
STARTCHAR 2505
ENCODING 9477
SWIDTH 520 0
DWIDTH 29 0
BBX 29 28 0 -4
BITMAP
00000000
00000000
00000000
00000000
00000000
00000000
00000000
00000000
00000000
00000000
00000000
00000000
ff3fc7f8
ff3fc7f8
ff3fc7f8
ff3fc7f8
00000000
00000000
00000000
00000000
00000000
00000000
00000000
00000000
00000000
00000000
00000000
00000000
ENDCHAR
STARTCHAR 2506
ENCODING 9478
SWIDTH 520 0
DWIDTH 29 0
BBX 29 28 0 -4
BITMAP
00070000
00070000
00070000
00070000
00070000
00070000
00070000
00000000
00000000
00000000
00000000
00070000
00070000
00070000
00070000
00070000
00070000
00000000
00000000
00000000
00000000
00070000
00070000
00070000
00070000
00070000
00070000
00070000
ENDCHAR
STARTCHAR 2507
ENCODING 9479
SWIDTH 520 0
DWIDTH 29 0
BBX 29 28 0 -4
BITMAP
000f8000
000f8000
000f8000
000f8000
000f8000
000f8000
000f8000
00000000
00000000
00000000
00000000
000f8000
000f8000
000f8000
000f8000
000f8000
000f8000
00000000
00000000
00000000
00000000
000f8000
000f8000
000f8000
000f8000
000f8000
000f8000
000f8000
ENDCHAR
STARTCHAR 2508
ENCODING 9480
SWIDTH 520 0
DWIDTH 29 0
BBX 29 28 0 -4
BITMAP
00000000
00000000
00000000
00000000
00000000
00000000
00000000
00000000
00000000
00000000
00000000
00000000
00000000
fffdfbf8
fffdfbf8
00000000
00000000
00000000
00000000
00000000
00000000
00000000
00000000
00000000
00000000
00000000
00000000
00000000
ENDCHAR
STARTCHAR 2509
ENCODING 9481
SWIDTH 520 0
DWIDTH 29 0
BBX 29 28 0 -4
BITMAP
00000000
00000000
00000000
00000000
00000000
00000000
00000000
00000000
00000000
00000000
00000000
00000000
fffdfbf8
fffdfbf8
fffdfbf8
fffdfbf8
00000000
00000000
00000000
00000000
00000000
00000000
00000000
00000000
00000000
00000000
00000000
00000000
ENDCHAR
STARTCHAR 250A
ENCODING 9482
SWIDTH 520 0
DWIDTH 29 0
BBX 29 28 0 -4
BITMAP
00070000
00070000
00070000
00070000
00070000
00070000
00000000
00070000
00070000
00070000
00070000
00070000
00070000
00000000
00000000
00070000
00070000
00070000
00070000
00070000
00070000
00000000
00070000
00070000
00070000
00070000
00070000
00070000
ENDCHAR
STARTCHAR 250B
ENCODING 9483
SWIDTH 520 0
DWIDTH 29 0
BBX 29 28 0 -4
BITMAP
000f8000
000f8000
000f8000
000f8000
000f8000
000f8000
00000000
000f8000
000f8000
000f8000
000f8000
000f8000
000f8000
00000000
00000000
000f8000
000f8000
000f8000
000f8000
000f8000
000f8000
00000000
000f8000
000f8000
000f8000
000f8000
000f8000
000f8000
ENDCHAR
STARTCHAR 250C
ENCODING 9484
SWIDTH 520 0
DWIDTH 29 0
BBX 29 28 0 -4
BITMAP
00000000
00000000
00000000
00000000
00000000
00000000
00000000
00000000
00000000
00000000
00000000
00000000
00000000
0007fff8
0007fff8
00070000
00070000
00070000
00070000
00070000
00070000
00070000
00070000
00070000
00070000
00070000
00070000
00070000
ENDCHAR
STARTCHAR 250D
ENCODING 9485
SWIDTH 520 0
DWIDTH 29 0
BBX 29 28 0 -4
BITMAP
00000000
00000000
00000000
00000000
00000000
00000000
00000000
00000000
00000000
00000000
00000000
00000000
0007fff8
0007fff8
0007fff8
0007fff8
00070000
00070000
00070000
00070000
00070000
00070000
00070000
00070000
00070000
00070000
00070000
00070000
ENDCHAR
STARTCHAR 250E
ENCODING 9486
SWIDTH 520 0
DWIDTH 29 0
BBX 29 28 0 -4
BITMAP
00000000
00000000
00000000
00000000
00000000
00000000
00000000
00000000
00000000
00000000
00000000
00000000
00000000
000ffff8
000ffff8
000f8000
000f8000
000f8000
000f8000
000f8000
000f8000
000f8000
000f8000
000f8000
000f8000
000f8000
000f8000
000f8000
ENDCHAR
STARTCHAR 250F
ENCODING 9487
SWIDTH 520 0
DWIDTH 29 0
BBX 29 28 0 -4
BITMAP
00000000
00000000
00000000
00000000
00000000
00000000
00000000
00000000
00000000
00000000
00000000
00000000
000ffff8
000ffff8
000ffff8
000ffff8
000f8000
000f8000
000f8000
000f8000
000f8000
000f8000
000f8000
000f8000
000f8000
000f8000
000f8000
000f8000
ENDCHAR
STARTCHAR 2510
ENCODING 9488
SWIDTH 520 0
DWIDTH 29 0
BBX 29 28 0 -4
BITMAP
00000000
00000000
00000000
00000000
00000000
00000000
00000000
00000000
00000000
00000000
00000000
00000000
00000000
ffff0000
ffff0000
00070000
00070000
00070000
00070000
00070000
00070000
00070000
00070000
00070000
00070000
00070000
00070000
00070000
ENDCHAR
STARTCHAR 2511
ENCODING 9489
SWIDTH 520 0
DWIDTH 29 0
BBX 29 28 0 -4
BITMAP
00000000
00000000
00000000
00000000
00000000
00000000
00000000
00000000
00000000
00000000
00000000
00000000
ffff0000
ffff0000
ffff0000
ffff0000
00070000
00070000
00070000
00070000
00070000
00070000
00070000
00070000
00070000
00070000
00070000
00070000
ENDCHAR
STARTCHAR 2512
ENCODING 9490
SWIDTH 520 0
DWIDTH 29 0
BBX 29 28 0 -4
BITMAP
00000000
00000000
00000000
00000000
00000000
00000000
00000000
00000000
00000000
00000000
00000000
00000000
00000000
ffff8000
ffff8000
000f8000
000f8000
000f8000
000f8000
000f8000
000f8000
000f8000
000f8000
000f8000
000f8000
000f8000
000f8000
000f8000
ENDCHAR
STARTCHAR 2513
ENCODING 9491
SWIDTH 520 0
DWIDTH 29 0
BBX 29 28 0 -4
BITMAP
00000000
00000000
00000000
00000000
00000000
00000000
00000000
00000000
00000000
00000000
00000000
00000000
ffff8000
ffff8000
ffff8000
ffff8000
000f8000
000f8000
000f8000
000f8000
000f8000
000f8000
000f8000
000f8000
000f8000
000f8000
000f8000
000f8000
ENDCHAR
STARTCHAR 2514
ENCODING 9492
SWIDTH 520 0
DWIDTH 29 0
BBX 29 28 0 -4
BITMAP
00070000
00070000
00070000
00070000
00070000
00070000
00070000
00070000
00070000
00070000
00070000
00070000
00070000
0007fff8
0007fff8
00000000
00000000
00000000
00000000
00000000
00000000
00000000
00000000
00000000
00000000
00000000
00000000
00000000
ENDCHAR
STARTCHAR 2515
ENCODING 9493
SWIDTH 520 0
DWIDTH 29 0
BBX 29 28 0 -4
BITMAP
00070000
00070000
00070000
00070000
00070000
00070000
00070000
00070000
00070000
00070000
00070000
00070000
0007fff8
0007fff8
0007fff8
0007fff8
00000000
00000000
00000000
00000000
00000000
00000000
00000000
00000000
00000000
00000000
00000000
00000000
ENDCHAR
STARTCHAR 2516
ENCODING 9494
SWIDTH 520 0
DWIDTH 29 0
BBX 29 28 0 -4
BITMAP
000f8000
000f8000
000f8000
000f8000
000f8000
000f8000
000f8000
000f8000
000f8000
000f8000
000f8000
000f8000
000f8000
000ffff8
000ffff8
00000000
00000000
00000000
00000000
00000000
00000000
00000000
00000000
00000000
00000000
00000000
00000000
00000000
ENDCHAR
STARTCHAR 2517
ENCODING 9495
SWIDTH 520 0
DWIDTH 29 0
BBX 29 28 0 -4
BITMAP
000f8000
000f8000
000f8000
000f8000
000f8000
000f8000
000f8000
000f8000
000f8000
000f8000
000f8000
000f8000
000ffff8
000ffff8
000ffff8
000ffff8
00000000
00000000
00000000
00000000
00000000
00000000
00000000
00000000
00000000
00000000
00000000
00000000
ENDCHAR
STARTCHAR 2518
ENCODING 9496
SWIDTH 520 0
DWIDTH 29 0
BBX 29 28 0 -4
BITMAP
00070000
00070000
00070000
00070000
00070000
00070000
00070000
00070000
00070000
00070000
00070000
00070000
00070000
ffff0000
ffff0000
00000000
00000000
00000000
00000000
00000000
00000000
00000000
00000000
00000000
00000000
00000000
00000000
00000000
ENDCHAR
STARTCHAR 2519
ENCODING 9497
SWIDTH 520 0
DWIDTH 29 0
BBX 29 28 0 -4
BITMAP
00070000
00070000
00070000
00070000
00070000
00070000
00070000
00070000
00070000
00070000
00070000
00070000
ffff0000
ffff0000
ffff0000
ffff0000
00000000
00000000
00000000
00000000
00000000
00000000
00000000
00000000
00000000
00000000
00000000
00000000
ENDCHAR
STARTCHAR 251A
ENCODING 9498
SWIDTH 520 0
DWIDTH 29 0
BBX 29 28 0 -4
BITMAP
000f8000
000f8000
000f8000
000f8000
000f8000
000f8000
000f8000
000f8000
000f8000
000f8000
000f8000
000f8000
000f8000
ffff8000
ffff8000
00000000
00000000
00000000
00000000
00000000
00000000
00000000
00000000
00000000
00000000
00000000
00000000
00000000
ENDCHAR
STARTCHAR 251B
ENCODING 9499
SWIDTH 520 0
DWIDTH 29 0
BBX 29 28 0 -4
BITMAP
000f8000
000f8000
000f8000
000f8000
000f8000
000f8000
000f8000
000f8000
000f8000
000f8000
000f8000
000f8000
ffff8000
ffff8000
ffff8000
ffff8000
00000000
00000000
00000000
00000000
00000000
00000000
00000000
00000000
00000000
00000000
00000000
00000000
ENDCHAR
STARTCHAR 251C
ENCODING 9500
SWIDTH 520 0
DWIDTH 29 0
BBX 29 28 0 -4
BITMAP
00070000
00070000
00070000
00070000
00070000
00070000
00070000
00070000
00070000
00070000
00070000
00070000
00070000
0007fff8
0007fff8
00070000
00070000
00070000
00070000
00070000
00070000
00070000
00070000
00070000
00070000
00070000
00070000
00070000
ENDCHAR
STARTCHAR 251D
ENCODING 9501
SWIDTH 520 0
DWIDTH 29 0
BBX 29 28 0 -4
BITMAP
00070000
00070000
00070000
00070000
00070000
00070000
00070000
00070000
00070000
00070000
00070000
00070000
0007fff8
0007fff8
0007fff8
0007fff8
00070000
00070000
00070000
00070000
00070000
00070000
00070000
00070000
00070000
00070000
00070000
00070000
ENDCHAR
STARTCHAR 251E
ENCODING 9502
SWIDTH 520 0
DWIDTH 29 0
BBX 29 28 0 -4
BITMAP
000f8000
000f8000
000f8000
000f8000
000f8000
000f8000
000f8000
000f8000
000f8000
000f8000
000f8000
000f8000
000f8000
000ffff8
000ffff8
00070000
00070000
00070000
00070000
00070000
00070000
00070000
00070000
00070000
00070000
00070000
00070000
00070000
ENDCHAR
STARTCHAR 251F
ENCODING 9503
SWIDTH 520 0
DWIDTH 29 0
BBX 29 28 0 -4
BITMAP
00070000
00070000
00070000
00070000
00070000
00070000
00070000
00070000
00070000
00070000
00070000
00070000
00070000
000ffff8
000ffff8
000f8000
000f8000
000f8000
000f8000
000f8000
000f8000
000f8000
000f8000
000f8000
000f8000
000f8000
000f8000
000f8000
ENDCHAR
STARTCHAR 2520
ENCODING 9504
SWIDTH 520 0
DWIDTH 29 0
BBX 29 28 0 -4
BITMAP
000f8000
000f8000
000f8000
000f8000
000f8000
000f8000
000f8000
000f8000
000f8000
000f8000
000f8000
000f8000
000f8000
000ffff8
000ffff8
000f8000
000f8000
000f8000
000f8000
000f8000
000f8000
000f8000
000f8000
000f8000
000f8000
000f8000
000f8000
000f8000
ENDCHAR
STARTCHAR 2521
ENCODING 9505
SWIDTH 520 0
DWIDTH 29 0
BBX 29 28 0 -4
BITMAP
000f8000
000f8000
000f8000
000f8000
000f8000
000f8000
000f8000
000f8000
000f8000
000f8000
000f8000
000f8000
000ffff8
000ffff8
000ffff8
000ffff8
00070000
00070000
00070000
00070000
00070000
00070000
00070000
00070000
00070000
00070000
00070000
00070000
ENDCHAR
STARTCHAR 2522
ENCODING 9506
SWIDTH 520 0
DWIDTH 29 0
BBX 29 28 0 -4
BITMAP
00070000
00070000
00070000
00070000
00070000
00070000
00070000
00070000
00070000
00070000
00070000
00070000
000ffff8
000ffff8
000ffff8
000ffff8
000f8000
000f8000
000f8000
000f8000
000f8000
000f8000
000f8000
000f8000
000f8000
000f8000
000f8000
000f8000
ENDCHAR
STARTCHAR 2523
ENCODING 9507
SWIDTH 520 0
DWIDTH 29 0
BBX 29 28 0 -4
BITMAP
000f8000
000f8000
000f8000
000f8000
000f8000
000f8000
000f8000
000f8000
000f8000
000f8000
000f8000
000f8000
000ffff8
000ffff8
000ffff8
000ffff8
000f8000
000f8000
000f8000
000f8000
000f8000
000f8000
000f8000
000f8000
000f8000
000f8000
000f8000
000f8000
ENDCHAR
STARTCHAR 2524
ENCODING 9508
SWIDTH 520 0
DWIDTH 29 0
BBX 29 28 0 -4
BITMAP
00070000
00070000
00070000
00070000
00070000
00070000
00070000
00070000
00070000
00070000
00070000
00070000
00070000
ffff0000
ffff0000
00070000
00070000
00070000
00070000
00070000
00070000
00070000
00070000
00070000
00070000
00070000
00070000
00070000
ENDCHAR
STARTCHAR 2525
ENCODING 9509
SWIDTH 520 0
DWIDTH 29 0
BBX 29 28 0 -4
BITMAP
00070000
00070000
00070000
00070000
00070000
00070000
00070000
00070000
00070000
00070000
00070000
00070000
ffff0000
ffff0000
ffff0000
ffff0000
00070000
00070000
00070000
00070000
00070000
00070000
00070000
00070000
00070000
00070000
00070000
00070000
ENDCHAR
STARTCHAR 2526
ENCODING 9510
SWIDTH 520 0
DWIDTH 29 0
BBX 29 28 0 -4
BITMAP
000f8000
000f8000
000f8000
000f8000
000f8000
000f8000
000f8000
000f8000
000f8000
000f8000
000f8000
000f8000
000f8000
ffff8000
ffff8000
00070000
00070000
00070000
00070000
00070000
00070000
00070000
00070000
00070000
00070000
00070000
00070000
00070000
ENDCHAR
STARTCHAR 2527
ENCODING 9511
SWIDTH 520 0
DWIDTH 29 0
BBX 29 28 0 -4
BITMAP
00070000
00070000
00070000
00070000
00070000
00070000
00070000
00070000
00070000
00070000
00070000
00070000
00070000
ffff8000
ffff8000
000f8000
000f8000
000f8000
000f8000
000f8000
000f8000
000f8000
000f8000
000f8000
000f8000
000f8000
000f8000
000f8000
ENDCHAR
STARTCHAR 2528
ENCODING 9512
SWIDTH 520 0
DWIDTH 29 0
BBX 29 28 0 -4
BITMAP
000f8000
000f8000
000f8000
000f8000
000f8000
000f8000
000f8000
000f8000
000f8000
000f8000
000f8000
000f8000
000f8000
ffff8000
ffff8000
000f8000
000f8000
000f8000
000f8000
000f8000
000f8000
000f8000
000f8000
000f8000
000f8000
000f8000
000f8000
000f8000
ENDCHAR
STARTCHAR 2529
ENCODING 9513
SWIDTH 520 0
DWIDTH 29 0
BBX 29 28 0 -4
BITMAP
000f8000
000f8000
000f8000
000f8000
000f8000
000f8000
000f8000
000f8000
000f8000
000f8000
000f8000
000f8000
ffff8000
ffff8000
ffff8000
ffff8000
00070000
00070000
00070000
00070000
00070000
00070000
00070000
00070000
00070000
00070000
00070000
00070000
ENDCHAR
STARTCHAR 252A
ENCODING 9514
SWIDTH 520 0
DWIDTH 29 0
BBX 29 28 0 -4
BITMAP
00070000
00070000
00070000
00070000
00070000
00070000
00070000
00070000
00070000
00070000
00070000
00070000
ffff8000
ffff8000
ffff8000
ffff8000
000f8000
000f8000
000f8000
000f8000
000f8000
000f8000
000f8000
000f8000
000f8000
000f8000
000f8000
000f8000
ENDCHAR
STARTCHAR 252B
ENCODING 9515
SWIDTH 520 0
DWIDTH 29 0
BBX 29 28 0 -4
BITMAP
000f8000
000f8000
000f8000
000f8000
000f8000
000f8000
000f8000
000f8000
000f8000
000f8000
000f8000
000f8000
ffff8000
ffff8000
ffff8000
ffff8000
000f8000
000f8000
000f8000
000f8000
000f8000
000f8000
000f8000
000f8000
000f8000
000f8000
000f8000
000f8000
ENDCHAR
STARTCHAR 252C
ENCODING 9516
SWIDTH 520 0
DWIDTH 29 0
BBX 29 28 0 -4
BITMAP
00000000
00000000
00000000
00000000
00000000
00000000
00000000
00000000
00000000
00000000
00000000
00000000
00000000
fffffff8
fffffff8
00070000
00070000
00070000
00070000
00070000
00070000
00070000
00070000
00070000
00070000
00070000
00070000
00070000
ENDCHAR
STARTCHAR 252D
ENCODING 9517
SWIDTH 520 0
DWIDTH 29 0
BBX 29 28 0 -4
BITMAP
00000000
00000000
00000000
00000000
00000000
00000000
00000000
00000000
00000000
00000000
00000000
00000000
ffff0000
fffffff8
fffffff8
ffff0000
00070000
00070000
00070000
00070000
00070000
00070000
00070000
00070000
00070000
00070000
00070000
00070000
ENDCHAR
STARTCHAR 252E
ENCODING 9518
SWIDTH 520 0
DWIDTH 29 0
BBX 29 28 0 -4
BITMAP
00000000
00000000
00000000
00000000
00000000
00000000
00000000
00000000
00000000
00000000
00000000
00000000
0007fff8
fffffff8
fffffff8
0007fff8
00070000
00070000
00070000
00070000
00070000
00070000
00070000
00070000
00070000
00070000
00070000
00070000
ENDCHAR
STARTCHAR 252F
ENCODING 9519
SWIDTH 520 0
DWIDTH 29 0
BBX 29 28 0 -4
BITMAP
00000000
00000000
00000000
00000000
00000000
00000000
00000000
00000000
00000000
00000000
00000000
00000000
fffffff8
fffffff8
fffffff8
fffffff8
00070000
00070000
00070000
00070000
00070000
00070000
00070000
00070000
00070000
00070000
00070000
00070000
ENDCHAR
STARTCHAR 2530
ENCODING 9520
SWIDTH 520 0
DWIDTH 29 0
BBX 29 28 0 -4
BITMAP
00000000
00000000
00000000
00000000
00000000
00000000
00000000
00000000
00000000
00000000
00000000
00000000
00000000
fffffff8
fffffff8
000f8000
000f8000
000f8000
000f8000
000f8000
000f8000
000f8000
000f8000
000f8000
000f8000
000f8000
000f8000
000f8000
ENDCHAR
STARTCHAR 2531
ENCODING 9521
SWIDTH 520 0
DWIDTH 29 0
BBX 29 28 0 -4
BITMAP
00000000
00000000
00000000
00000000
00000000
00000000
00000000
00000000
00000000
00000000
00000000
00000000
ffff8000
fffffff8
fffffff8
ffff8000
000f8000
000f8000
000f8000
000f8000
000f8000
000f8000
000f8000
000f8000
000f8000
000f8000
000f8000
000f8000
ENDCHAR
STARTCHAR 2532
ENCODING 9522
SWIDTH 520 0
DWIDTH 29 0
BBX 29 28 0 -4
BITMAP
00000000
00000000
00000000
00000000
00000000
00000000
00000000
00000000
00000000
00000000
00000000
00000000
000ffff8
fffffff8
fffffff8
000ffff8
000f8000
000f8000
000f8000
000f8000
000f8000
000f8000
000f8000
000f8000
000f8000
000f8000
000f8000
000f8000
ENDCHAR
STARTCHAR 2533
ENCODING 9523
SWIDTH 520 0
DWIDTH 29 0
BBX 29 28 0 -4
BITMAP
00000000
00000000
00000000
00000000
00000000
00000000
00000000
00000000
00000000
00000000
00000000
00000000
fffffff8
fffffff8
fffffff8
fffffff8
000f8000
000f8000
000f8000
000f8000
000f8000
000f8000
000f8000
000f8000
000f8000
000f8000
000f8000
000f8000
ENDCHAR
STARTCHAR 2534
ENCODING 9524
SWIDTH 520 0
DWIDTH 29 0
BBX 29 28 0 -4
BITMAP
00070000
00070000
00070000
00070000
00070000
00070000
00070000
00070000
00070000
00070000
00070000
00070000
00070000
fffffff8
fffffff8
00000000
00000000
00000000
00000000
00000000
00000000
00000000
00000000
00000000
00000000
00000000
00000000
00000000
ENDCHAR
STARTCHAR 2535
ENCODING 9525
SWIDTH 520 0
DWIDTH 29 0
BBX 29 28 0 -4
BITMAP
00070000
00070000
00070000
00070000
00070000
00070000
00070000
00070000
00070000
00070000
00070000
00070000
ffff0000
fffffff8
fffffff8
ffff0000
00000000
00000000
00000000
00000000
00000000
00000000
00000000
00000000
00000000
00000000
00000000
00000000
ENDCHAR
STARTCHAR 2536
ENCODING 9526
SWIDTH 520 0
DWIDTH 29 0
BBX 29 28 0 -4
BITMAP
00070000
00070000
00070000
00070000
00070000
00070000
00070000
00070000
00070000
00070000
00070000
00070000
0007fff8
fffffff8
fffffff8
0007fff8
00000000
00000000
00000000
00000000
00000000
00000000
00000000
00000000
00000000
00000000
00000000
00000000
ENDCHAR
STARTCHAR 2537
ENCODING 9527
SWIDTH 520 0
DWIDTH 29 0
BBX 29 28 0 -4
BITMAP
00070000
00070000
00070000
00070000
00070000
00070000
00070000
00070000
00070000
00070000
00070000
00070000
fffffff8
fffffff8
fffffff8
fffffff8
00000000
00000000
00000000
00000000
00000000
00000000
00000000
00000000
00000000
00000000
00000000
00000000
ENDCHAR
STARTCHAR 2538
ENCODING 9528
SWIDTH 520 0
DWIDTH 29 0
BBX 29 28 0 -4
BITMAP
000f8000
000f8000
000f8000
000f8000
000f8000
000f8000
000f8000
000f8000
000f8000
000f8000
000f8000
000f8000
000f8000
fffffff8
fffffff8
00000000
00000000
00000000
00000000
00000000
00000000
00000000
00000000
00000000
00000000
00000000
00000000
00000000
ENDCHAR
STARTCHAR 2539
ENCODING 9529
SWIDTH 520 0
DWIDTH 29 0
BBX 29 28 0 -4
BITMAP
000f8000
000f8000
000f8000
000f8000
000f8000
000f8000
000f8000
000f8000
000f8000
000f8000
000f8000
000f8000
ffff8000
fffffff8
fffffff8
ffff8000
00000000
00000000
00000000
00000000
00000000
00000000
00000000
00000000
00000000
00000000
00000000
00000000
ENDCHAR
STARTCHAR 253A
ENCODING 9530
SWIDTH 520 0
DWIDTH 29 0
BBX 29 28 0 -4
BITMAP
000f8000
000f8000
000f8000
000f8000
000f8000
000f8000
000f8000
000f8000
000f8000
000f8000
000f8000
000f8000
000ffff8
fffffff8
fffffff8
000ffff8
00000000
00000000
00000000
00000000
00000000
00000000
00000000
00000000
00000000
00000000
00000000
00000000
ENDCHAR
STARTCHAR 253B
ENCODING 9531
SWIDTH 520 0
DWIDTH 29 0
BBX 29 28 0 -4
BITMAP
000f8000
000f8000
000f8000
000f8000
000f8000
000f8000
000f8000
000f8000
000f8000
000f8000
000f8000
000f8000
fffffff8
fffffff8
fffffff8
fffffff8
00000000
00000000
00000000
00000000
00000000
00000000
00000000
00000000
00000000
00000000
00000000
00000000
ENDCHAR
STARTCHAR 253C
ENCODING 9532
SWIDTH 520 0
DWIDTH 29 0
BBX 29 28 0 -4
BITMAP
00070000
00070000
00070000
00070000
00070000
00070000
00070000
00070000
00070000
00070000
00070000
00070000
00070000
fffffff8
fffffff8
00070000
00070000
00070000
00070000
00070000
00070000
00070000
00070000
00070000
00070000
00070000
00070000
00070000
ENDCHAR
STARTCHAR 253D
ENCODING 9533
SWIDTH 520 0
DWIDTH 29 0
BBX 29 28 0 -4
BITMAP
00070000
00070000
00070000
00070000
00070000
00070000
00070000
00070000
00070000
00070000
00070000
00070000
ffff0000
fffffff8
fffffff8
ffff0000
00070000
00070000
00070000
00070000
00070000
00070000
00070000
00070000
00070000
00070000
00070000
00070000
ENDCHAR
STARTCHAR 253E
ENCODING 9534
SWIDTH 520 0
DWIDTH 29 0
BBX 29 28 0 -4
BITMAP
00070000
00070000
00070000
00070000
00070000
00070000
00070000
00070000
00070000
00070000
00070000
00070000
0007fff8
fffffff8
fffffff8
0007fff8
00070000
00070000
00070000
00070000
00070000
00070000
00070000
00070000
00070000
00070000
00070000
00070000
ENDCHAR
STARTCHAR 253F
ENCODING 9535
SWIDTH 520 0
DWIDTH 29 0
BBX 29 28 0 -4
BITMAP
00070000
00070000
00070000
00070000
00070000
00070000
00070000
00070000
00070000
00070000
00070000
00070000
fffffff8
fffffff8
fffffff8
fffffff8
00070000
00070000
00070000
00070000
00070000
00070000
00070000
00070000
00070000
00070000
00070000
00070000
ENDCHAR
STARTCHAR 2540
ENCODING 9536
SWIDTH 520 0
DWIDTH 29 0
BBX 29 28 0 -4
BITMAP
000f8000
000f8000
000f8000
000f8000
000f8000
000f8000
000f8000
000f8000
000f8000
000f8000
000f8000
000f8000
000f8000
fffffff8
fffffff8
00070000
00070000
00070000
00070000
00070000
00070000
00070000
00070000
00070000
00070000
00070000
00070000
00070000
ENDCHAR
STARTCHAR 2541
ENCODING 9537
SWIDTH 520 0
DWIDTH 29 0
BBX 29 28 0 -4
BITMAP
00070000
00070000
00070000
00070000
00070000
00070000
00070000
00070000
00070000
00070000
00070000
00070000
00070000
fffffff8
fffffff8
000f8000
000f8000
000f8000
000f8000
000f8000
000f8000
000f8000
000f8000
000f8000
000f8000
000f8000
000f8000
000f8000
ENDCHAR
STARTCHAR 2542
ENCODING 9538
SWIDTH 520 0
DWIDTH 29 0
BBX 29 28 0 -4
BITMAP
000f8000
000f8000
000f8000
000f8000
000f8000
000f8000
000f8000
000f8000
000f8000
000f8000
000f8000
000f8000
000f8000
fffffff8
fffffff8
000f8000
000f8000
000f8000
000f8000
000f8000
000f8000
000f8000
000f8000
000f8000
000f8000
000f8000
000f8000
000f8000
ENDCHAR
STARTCHAR 2543
ENCODING 9539
SWIDTH 520 0
DWIDTH 29 0
BBX 29 28 0 -4
BITMAP
000f8000
000f8000
000f8000
000f8000
000f8000
000f8000
000f8000
000f8000
000f8000
000f8000
000f8000
000f8000
ffff8000
fffffff8
fffffff8
ffff0000
00070000
00070000
00070000
00070000
00070000
00070000
00070000
00070000
00070000
00070000
00070000
00070000
ENDCHAR
STARTCHAR 2544
ENCODING 9540
SWIDTH 520 0
DWIDTH 29 0
BBX 29 28 0 -4
BITMAP
000f8000
000f8000
000f8000
000f8000
000f8000
000f8000
000f8000
000f8000
000f8000
000f8000
000f8000
000f8000
000ffff8
fffffff8
fffffff8
0007fff8
00070000
00070000
00070000
00070000
00070000
00070000
00070000
00070000
00070000
00070000
00070000
00070000
ENDCHAR
STARTCHAR 2545
ENCODING 9541
SWIDTH 520 0
DWIDTH 29 0
BBX 29 28 0 -4
BITMAP
00070000
00070000
00070000
00070000
00070000
00070000
00070000
00070000
00070000
00070000
00070000
00070000
ffff0000
fffffff8
fffffff8
ffff8000
000f8000
000f8000
000f8000
000f8000
000f8000
000f8000
000f8000
000f8000
000f8000
000f8000
000f8000
000f8000
ENDCHAR
STARTCHAR 2546
ENCODING 9542
SWIDTH 520 0
DWIDTH 29 0
BBX 29 28 0 -4
BITMAP
00070000
00070000
00070000
00070000
00070000
00070000
00070000
00070000
00070000
00070000
00070000
00070000
0007fff8
fffffff8
fffffff8
000ffff8
000f8000
000f8000
000f8000
000f8000
000f8000
000f8000
000f8000
000f8000
000f8000
000f8000
000f8000
000f8000
ENDCHAR
STARTCHAR 2547
ENCODING 9543
SWIDTH 520 0
DWIDTH 29 0
BBX 29 28 0 -4
BITMAP
000f8000
000f8000
000f8000
000f8000
000f8000
000f8000
000f8000
000f8000
000f8000
000f8000
000f8000
000f8000
fffffff8
fffffff8
fffffff8
fffffff8
00070000
00070000
00070000
00070000
00070000
00070000
00070000
00070000
00070000
00070000
00070000
00070000
ENDCHAR
STARTCHAR 2548
ENCODING 9544
SWIDTH 520 0
DWIDTH 29 0
BBX 29 28 0 -4
BITMAP
00070000
00070000
00070000
00070000
00070000
00070000
00070000
00070000
00070000
00070000
00070000
00070000
fffffff8
fffffff8
fffffff8
fffffff8
000f8000
000f8000
000f8000
000f8000
000f8000
000f8000
000f8000
000f8000
000f8000
000f8000
000f8000
000f8000
ENDCHAR
STARTCHAR 2549
ENCODING 9545
SWIDTH 520 0
DWIDTH 29 0
BBX 29 28 0 -4
BITMAP
000f8000
000f8000
000f8000
000f8000
000f8000
000f8000
000f8000
000f8000
000f8000
000f8000
000f8000
000f8000
ffff8000
fffffff8
fffffff8
ffff8000
000f8000
000f8000
000f8000
000f8000
000f8000
000f8000
000f8000
000f8000
000f8000
000f8000
000f8000
000f8000
ENDCHAR
STARTCHAR 254A
ENCODING 9546
SWIDTH 520 0
DWIDTH 29 0
BBX 29 28 0 -4
BITMAP
000f8000
000f8000
000f8000
000f8000
000f8000
000f8000
000f8000
000f8000
000f8000
000f8000
000f8000
000f8000
000ffff8
fffffff8
fffffff8
000ffff8
000f8000
000f8000
000f8000
000f8000
000f8000
000f8000
000f8000
000f8000
000f8000
000f8000
000f8000
000f8000
ENDCHAR
STARTCHAR 254B
ENCODING 9547
SWIDTH 520 0
DWIDTH 29 0
BBX 29 28 0 -4
BITMAP
000f8000
000f8000
000f8000
000f8000
000f8000
000f8000
000f8000
000f8000
000f8000
000f8000
000f8000
000f8000
fffffff8
fffffff8
fffffff8
fffffff8
000f8000
000f8000
000f8000
000f8000
000f8000
000f8000
000f8000
000f8000
000f8000
000f8000
000f8000
000f8000
ENDCHAR
STARTCHAR 25A0
ENCODING 9632
SWIDTH 520 0
DWIDTH 29 0
BBX 29 28 0 -4
BITMAP
00000000
00000000
00000000
00000000
0fffff80
0fffff80
0fffff80
0fffff80
0fffff80
0fffff80
0fffff80
0fffff80
0fffff80
0fffff80
0fffff80
0fffff80
0fffff80
0fffff80
0fffff80
0fffff80
0fffff80
0fffff80
0fffff80
0fffff80
00000000
00000000
00000000
00000000
ENDCHAR
STARTCHAR 25A1
ENCODING 9633
SWIDTH 520 0
DWIDTH 29 0
BBX 29 28 0 -4
BITMAP
00000000
00000000
00000000
00000000
0fffff80
0c000180
0c000180
0c000180
0c000180
0c000180
0c000180
0c000180
0c000180
0c000180
0c000180
0c000180
0c000180
0c000180
0c000180
0c000180
0c000180
0c000180
0c000180
0fffff80
00000000
00000000
00000000
00000000
ENDCHAR
STARTCHAR 25B2
ENCODING 9650
SWIDTH 520 0
DWIDTH 29 0
BBX 29 28 0 -4
BITMAP
00000000
00000000
00000000
00060000
00070000
000f0000
000f8000
001fc000
001fc000
003fe000
003fe000
007ff000
007ff000
00fff800
01fff800
01fffc00
03fffe00
03fffe00
07ffff00
07ffff00
0fffff80
0fffff80
1fffffc0
3fffffc0
00000000
00000000
00000000
00000000
ENDCHAR
STARTCHAR 25B3
ENCODING 9651
SWIDTH 520 0
DWIDTH 29 0
BBX 29 28 0 -4
BITMAP
00000000
00000000
00000000
00000000
00070000
000f0000
000d8000
001d8000
0018c000
0030e000
00306000
00607000
00603000
00c01800
01c01800
01800c00
03800c00
03000600
07000700
06000300
0c000380
1c000180
180001c0
3fffffc0
00000000
00000000
00000000
00000000
ENDCHAR
STARTCHAR 25C6
ENCODING 9670
SWIDTH 520 0
DWIDTH 29 0
BBX 29 28 0 -4
BITMAP
00000000
00000000
00000000
00070000
000f8000
001fc000
003fe000
007ff000
00fff800
01fffc00
03fffe00
07ffff00
0fffff80
1fffffc0
1fffff80
0fffff00
07fffe00
03fffc00
01fff800
00fff000
007fe000
003fc000
001f8000
000f0000
00060000
00000000
00000000
00000000
ENDCHAR
STARTCHAR 25C7
ENCODING 9671
SWIDTH 520 0
DWIDTH 29 0
BBX 29 28 0 -4
BITMAP
00000000
00000000
00000000
00070000
000f8000
001dc000
0038e000
00707000
00e03800
01c01c00
03800e00
07000700
0e000380
1c0001c0
0c000180
06000300
03000600
01800c00
00c01800
00603000
00306000
0018c000
000d8000
00070000
00000000
00000000
00000000
00000000
ENDCHAR
STARTCHAR 25CB
ENCODING 9675
SWIDTH 520 0
DWIDTH 29 0
BBX 29 28 0 -4
BITMAP
00000000
00000000
00000000
00000000
007ff000
00e03800
03800c00
03000600
07000700
0e000380
0c000380
0c000180
0c000180
0c000180
0c000180
0c000180
0c000180
0c000380
0e000380
06000700
03000600
03800e00
00e03800
007ff000
00000000
00000000
00000000
00000000
ENDCHAR
STARTCHAR 25CE
ENCODING 9678
SWIDTH 520 0
DWIDTH 29 0
BBX 29 28 0 -4
BITMAP
00000000
00000000
00000000
00070000
007ff000
01e03800
03800e00
071fc600
0678e700
0ee03380
0cc01b80
0dc01980
0d801d80
0d801d80
0d801d80
0dc01d80
0dc01980
0ce03b80
0e707380
073fe700
03070600
01c01c00
00e03800
003fe000
00000000
00000000
00000000
00000000
ENDCHAR
STARTCHAR 25CF
ENCODING 9679
SWIDTH 520 0
DWIDTH 29 0
BBX 29 28 0 -4
BITMAP
00000000
00000000
00000000
00070000
007ff000
01fff800
03fffe00
07fffe00
07ffff00
0fffff80
0fffff80
0fffff80
0fffff80
0fffff80
0fffff80
0fffff80
0fffff80
0fffff80
0fffff80
07ffff00
03fffe00
01fffc00
00fff800
003fe000
00000000
00000000
00000000
00000000
ENDCHAR
STARTCHAR 2605
ENCODING 9733
SWIDTH 520 0
DWIDTH 29 0
BBX 29 28 0 -4
BITMAP
00000000
00000000
00000000
00060000
00070000
00070000
000f0000
000f8000
000f8000
001f8000
001fc000
3fffffe0
1fffffc0
07ffff00
03fffe00
01fffc00
007ff000
007ff000
00fff800
00fff800
00fdf800
01f8fc00
01e07c00
01c01c00
03800e00
00000000
00000000
00000000
ENDCHAR
STARTCHAR 2606
ENCODING 9734
SWIDTH 520 0
DWIDTH 29 0
BBX 29 28 0 -4
BITMAP
00000000
00000000
00000000
00060000
00070000
00070000
000f0000
000d8000
000d8000
00198000
0018c000
3ff8ffe0
1c0001c0
06000300
03000e00
01c01c00
00603000
00603000
00c01800
00c71800
00cd9800
01b8ec00
01e07c00
01c01c00
03800e00
00000000
00000000
00000000
ENDCHAR
STARTCHAR 2640
ENCODING 9792
SWIDTH 520 0
DWIDTH 29 0
BBX 29 28 0 -4
BITMAP
00000000
00000000
00000000
001fc000
0038e000
00707000
00603000
00603000
00603000
00603000
00607000
00306000
001fc000
00060000
00060000
00060000
07ffff00
07ffff00
00060000
00060000
00060000
00060000
00060000
00060000
00060000
00000000
00000000
00000000
ENDCHAR
STARTCHAR 2642
ENCODING 9794
SWIDTH 520 0
DWIDTH 29 0
BBX 29 28 0 -4
BITMAP
00000000
00000000
00000000
00060000
00070000
00070000
000f8000
000f8000
001fc000
003ee000
00663000
00060000
00060000
00060000
00070000
003fc000
00706000
00603000
00603000
00603000
00603000
00603000
00707000
0038e000
001fc000
00000000
00000000
00000000
ENDCHAR
STARTCHAR 3000
ENCODING 12288
SWIDTH 520 0
DWIDTH 29 0
BBX 29 28 0 -4
BITMAP
00000000
00000000
00000000
00000000
00000000
00000000
00000000
00000000
00000000
00000000
00000000
00000000
00000000
00000000
00000000
00000000
00000000
00000000
00000000
00000000
00000000
00000000
00000000
00000000
00000000
00000000
00000000
00000000
ENDCHAR
STARTCHAR 3001
ENCODING 12289
SWIDTH 520 0
DWIDTH 29 0
BBX 29 28 0 -4
BITMAP
00000000
00000000
00000000
00000000
00000000
00000000
00000000
00000000
00000000
00000000
00000000
00000000
00000000
00000000
00000000
00000000
00000000
00000000
1c000000
07000000
03c00000
01c00000
01e00000
00e00000
00c00000
00000000
00000000
00000000
ENDCHAR
STARTCHAR 3002
ENCODING 12290
SWIDTH 520 0
DWIDTH 29 0
BBX 29 28 0 -4
BITMAP
00000000
00000000
00000000
00000000
00000000
00000000
00000000
00000000
00000000
00000000
00000000
00000000
00000000
00000000
00000000
00000000
00000000
00000000
03800000
0ec00000
0c600000
0c600000
0c600000
07c00000
00000000
00000000
00000000
00000000
ENDCHAR
STARTCHAR 3003
ENCODING 12291
SWIDTH 520 0
DWIDTH 29 0
BBX 29 28 0 -4
BITMAP
00000000
00000000
00000000
00000000
00000000
00000000
00000000
00000000
00000000
000e7000
000e7000
000ce000
001ce000
001cc000
0019c000
00398000
00318000
00330000
00630000
00000000
00000000
00000000
00000000
00000000
00000000
00000000
00000000
00000000
ENDCHAR
STARTCHAR 3005
ENCODING 12293
SWIDTH 520 0
DWIDTH 29 0
BBX 29 28 0 -4
BITMAP
00000000
00000000
00000000
00180000
000e0000
001c0000
001c0000
00180000
00303c00
003ffc00
006c1800
00603800
00c03000
00006000
00006000
0000c000
0018c000
000f8000
00078000
0003c000
0001e000
0000e000
0000e000
00000000
00000000
00000000
00000000
00000000
ENDCHAR
STARTCHAR 3008
ENCODING 12296
SWIDTH 520 0
DWIDTH 29 0
BBX 29 28 0 -4
BITMAP
00000000
00000000
00000000
000001c0
00000180
00000380
00000300
00000700
00000600
00000e00
00000c00
00001800
00001800
00003000
00003800
00001800
00001800
00000c00
00000c00
00000600
00000600
00000300
00000300
00000180
00000180
00000000
00000000
00000000
ENDCHAR
STARTCHAR 3009
ENCODING 12297
SWIDTH 520 0
DWIDTH 29 0
BBX 29 28 0 -4
BITMAP
00000000
00000000
00000000
18000000
0c000000
0c000000
06000000
06000000
03000000
03000000
01800000
01800000
00c00000
00c00000
00c00000
01c00000
01800000
01800000
03000000
03000000
06000000
06000000
0c000000
0c000000
18000000
00000000
00000000
00000000
ENDCHAR
STARTCHAR 300A
ENCODING 12298
SWIDTH 520 0
DWIDTH 29 0
BBX 29 28 0 -4
BITMAP
00000000
00000000
00000000
00000ec0
00000dc0
00001d80
00001b80
00003b00
00003700
00007600
00006600
0000ec00
0000cc00
0001d800
0001d800
0000cc00
0000ec00
00006e00
00007600
00003700
00003300
00001b80
00001980
00000dc0
00000cc0
00000000
00000000
00000000
ENDCHAR
STARTCHAR 300B
ENCODING 12299
SWIDTH 520 0
DWIDTH 29 0
BBX 29 28 0 -4
BITMAP
00000000
00000000
00000000
19800000
19800000
0cc00000
0cc00000
06600000
06600000
03300000
03300000
01b80000
01980000
00dc0000
00dc0000
01980000
01980000
03300000
03300000
06600000
06600000
0cc00000
0cc00000
1d800000
19800000
00000000
00000000
00000000
ENDCHAR
STARTCHAR 300C
ENCODING 12300
SWIDTH 520 0
DWIDTH 29 0
BBX 29 28 0 -4
BITMAP
00000000
00000000
00007f80
00006000
00006000
00006000
00006000
00006000
00006000
00006000
00006000
00006000
00006000
00006000
00006000
00006000
00006000
00006000
00006000
00006000
00006000
00006000
00006000
00006000
00006000
00006000
00000000
00000000
ENDCHAR
STARTCHAR 300D
ENCODING 12301
SWIDTH 520 0
DWIDTH 29 0
BBX 29 28 0 -4
BITMAP
00000000
00000000
00300000
00300000
00300000
00300000
00300000
00300000
00300000
00300000
00300000
00300000
00300000
00300000
00300000
00300000
00300000
00300000
00300000
00300000
00300000
00300000
00300000
00300000
00300000
0ff00000
00000000
00000000
ENDCHAR
STARTCHAR 300E
ENCODING 12302
SWIDTH 520 0
DWIDTH 29 0
BBX 29 28 0 -4
BITMAP
00000000
00000000
00007f80
00006180
00007f80
00007800
00007800
00007800
00007800
00007800
00007800
00007800
00007800
00007800
00007800
00007800
00007800
00007800
00007800
00007800
00007800
00007800
00007800
00007800
00007800
00007800
00000000
00000000
ENDCHAR
STARTCHAR 300F
ENCODING 12303
SWIDTH 520 0
DWIDTH 29 0
BBX 29 28 0 -4
BITMAP
00000000
00000000
00f00000
00f00000
00f00000
00f00000
00f00000
00f00000
00f00000
00f00000
00f00000
00f00000
00f00000
00f00000
00f00000
00f00000
00f00000
00f00000
00f00000
00f00000
00f00000
00f00000
00f00000
0ff00000
0c300000
0ff00000
00000000
00000000
ENDCHAR
STARTCHAR 3010
ENCODING 12304
SWIDTH 520 0
DWIDTH 29 0
BBX 29 28 0 -4
BITMAP
00000000
00000000
0003ff80
0003ff00
0003fe00
0003fc00
0003fc00
0003f800
0003f000
0003f000
0003f000
0003e000
0003e000
0003e000
0003e000
0003e000
0003e000
0003f000
0003f000
0003f000
0003f800
0003f800
0003fc00
0003fe00
0003ff00
0003ff80
00000000
00000000
ENDCHAR
STARTCHAR 3011
ENCODING 12305
SWIDTH 520 0
DWIDTH 29 0
BBX 29 28 0 -4
BITMAP
00000000
00000000
0ffe0000
07fe0000
03fe0000
01fe0000
01fe0000
00fe0000
00fe0000
007e0000
007e0000
007e0000
007e0000
007e0000
007e0000
007e0000
007e0000
007e0000
00fe0000
00fe0000
00fe0000
01fe0000
03fe0000
03fe0000
07fe0000
0ffe0000
00000000
00000000
ENDCHAR
STARTCHAR 3013
ENCODING 12307
SWIDTH 520 0
DWIDTH 29 0
BBX 29 28 0 -4
BITMAP
00000000
00000000
00000000
3fffffe0
3fffffe0
3fffffe0
3fffffe0
3fffffe0
3fffffe0
3fffffe0
3fffffe0
00000000
00000000
00000000
00000000
00000000
00000000
3fffffe0
3fffffe0
3fffffe0
3fffffe0
3fffffe0
3fffffe0
3fffffe0
3fffffe0
00000000
00000000
00000000
ENDCHAR
STARTCHAR 3014
ENCODING 12308
SWIDTH 520 0
DWIDTH 29 0
BBX 29 28 0 -4
BITMAP
00000000
00000000
00000300
00000300
00000600
00000c00
00001800
00003000
00003000
00003000
00003000
00003000
00003000
00003000
00003000
00003000
00003000
00003000
00003000
00003000
00003000
00001800
00000c00
00000e00
00000700
00000000
00000000
00000000
ENDCHAR
STARTCHAR 3015
ENCODING 12309
SWIDTH 520 0
DWIDTH 29 0
BBX 29 28 0 -4
BITMAP
00000000
00000000
00000000
06000000
03000000
01800000
00c00000
00c00000
00c00000
00c00000
00c00000
00c00000
00c00000
00c00000
00c00000
00c00000
00c00000
00c00000
00c00000
00c00000
00c00000
01c00000
03800000
03000000
06000000
00000000
00000000
00000000
ENDCHAR
STARTCHAR 3016
ENCODING 12310
SWIDTH 520 0
DWIDTH 29 0
BBX 29 28 0 -4
BITMAP
00000000
00000000
0007ff80
00060300
00060700
00060e00
00060c00
00061800
00061800
00063000
00063000
00066000
00066000
00066000
00066000
00066000
00066000
00063000
00063000
00063800
00061800
00060c00
00060e00
00060600
00060300
0007ffc0
00000000
00000000
ENDCHAR
STARTCHAR 3017
ENCODING 12311
SWIDTH 520 0
DWIDTH 29 0
BBX 29 28 0 -4
BITMAP
00000000
00000000
1fff0000
06070000
03070000
03870000
01870000
00c70000
00c70000
00670000
00670000
00670000
00370000
00370000
00370000
00370000
00670000
00670000
00e70000
00c70000
01c70000
01870000
03070000
07070000
0e070000
1fff0000
00000000
00000000
ENDCHAR
STARTCHAR 3041
ENCODING 12353
SWIDTH 520 0
DWIDTH 29 0
BBX 29 28 0 -4
BITMAP
00000000
00000000
00000000
000e0000
000e0000
000cc000
000f8000
003c0000
001b0000
001b0000
001ff000
003b3800
007e1800
00de1800
00cc1800
00dc1800
00f03000
00e06000
0000c000
00000000
00000000
00000000
00000000
00000000
00000000
00000000
00000000
00000000
ENDCHAR
STARTCHAR 3042
ENCODING 12354
SWIDTH 520 0
DWIDTH 29 0
BBX 29 28 0 -4
BITMAP
00000000
00000000
00000000
000e0000
000e0000
000c0000
000dc000
001f8000
007c0000
00180000
001b8000
001bc000
001f7800
007b1c00
00de0c00
019e0e00
019c0e00
039c0e00
033c0c00
03fc1c00
01e03800
00006000
00000000
00000000
00000000
00000000
00000000
00000000
ENDCHAR
STARTCHAR 3043
ENCODING 12355
SWIDTH 520 0
DWIDTH 29 0
BBX 29 28 0 -4
BITMAP
00000000
00000000
00000000
00000000
00000000
00000000
00000000
00c00000
00e00000
00e0c000
00c07000
00c03800
00c03800
00c67800
00cc0000
00cc0000
00dc0000
00780000
00380000
00000000
00000000
00000000
00000000
00000000
00000000
00000000
00000000
00000000
ENDCHAR
STARTCHAR 3044
ENCODING 12356
SWIDTH 520 0
DWIDTH 29 0
BBX 29 28 0 -4
BITMAP
00000000
00000000
00000000
00000000
00000000
01800000
01c00000
01c00000
01807800
01801c00
01801c00
01801e00
01803e00
018c0c00
018c0000
018c0000
00d80000
00f80000
00780000
00700000
00000000
00000000
00000000
00000000
00000000
00000000
00000000
00000000
ENDCHAR
STARTCHAR 3045
ENCODING 12357
SWIDTH 520 0
DWIDTH 29 0
BBX 29 28 0 -4
BITMAP
00000000
00000000
00000000
00000000
00000000
000c0000
00070000
00070000
00000000
00000000
0007c000
000c6000
00386000
00006000
00006000
0000e000
0000c000
0001c000
00018000
00030000
00060000
00000000
00000000
00000000
00000000
00000000
00000000
00000000
ENDCHAR
STARTCHAR 3046
ENCODING 12358
SWIDTH 520 0
DWIDTH 29 0
BBX 29 28 0 -4
BITMAP
00000000
00000000
00000000
00000000
001c0000
000f0000
000f0000
00000000
00000000
0003e000
000e6000
00787000
00707000
00007000
00007000
00006000
00006000
0000e000
0000c000
0001c000
00038000
00030000
000e0000
00000000
00000000
00000000
00000000
00000000
ENDCHAR
STARTCHAR 3047
ENCODING 12359
SWIDTH 520 0
DWIDTH 29 0
BBX 29 28 0 -4
BITMAP
00000000
00000000
00000000
00000000
00000000
00180000
000e0000
00070000
000c0000
00000000
00078000
003f8000
00030000
00060000
000c0000
001e0000
003b0000
00330000
00733000
0063f800
00000000
00000000
00000000
00000000
00000000
00000000
00000000
00000000
ENDCHAR
STARTCHAR 3048
ENCODING 12360
SWIDTH 520 0
DWIDTH 29 0
BBX 29 28 0 -4
BITMAP
00000000
00000000
00000000
00000000
001c0000
000f0000
00078000
000c0000
00000000
0007c000
001f8000
00730000
00060000
00060000
000c0000
001e0000
003b0000
00730000
00e30000
00e31800
01c3fc00
01c00000
00000000
00000000
00000000
00000000
00000000
00000000
ENDCHAR
STARTCHAR 3049
ENCODING 12361
SWIDTH 520 0
DWIDTH 29 0
BBX 29 28 0 -4
BITMAP
00000000
00000000
00000000
00000000
00000000
00000000
00380000
00180000
00187000
001f1c00
01fc0e00
00301800
0033f000
003e3800
00381800
00701800
00f83800
01d87000
007fe000
00300000
00000000
00000000
00000000
00000000
00000000
00000000
00000000
00000000
ENDCHAR
STARTCHAR 304A
ENCODING 12362
SWIDTH 520 0
DWIDTH 29 0
BBX 29 28 0 -4
BITMAP
00000000
00000000
00000000
00000000
00600000
00780000
00300000
00303c00
003e0f00
00fc0780
03f00780
0031e000
00373800
003c0c00
00300e00
00700e00
00f00c00
03b01c00
07b07800
00f3c000
00700000
00000000
00000000
00000000
00000000
00000000
00000000
00000000
ENDCHAR
STARTCHAR 304B
ENCODING 12363
SWIDTH 520 0
DWIDTH 29 0
BBX 29 28 0 -4
BITMAP
00000000
00000000
00000000
00000000
00000000
000e0000
00070000
000e0000
000c0000
000c0000
000f8600
03f8c700
03d8c300
0030cf80
0031c300
00618000
00618000
00c38000
01db0000
038f0000
038e0000
00000000
00000000
00000000
00000000
00000000
00000000
00000000
ENDCHAR
STARTCHAR 304C
ENCODING 12364
SWIDTH 520 0
DWIDTH 29 0
BBX 29 28 0 -4
BITMAP
00000000
00000000
00000000
00000000
00000700
001c1b00
000e0e00
001c0000
00180000
001f9800
07f98e00
03b18e00
00318f00
00618000
00618000
00c30000
00c30000
01860000
039e0000
071c0000
06000000
00000000
00000000
00000000
00000000
00000000
00000000
00000000
ENDCHAR
STARTCHAR 304D
ENCODING 12365
SWIDTH 520 0
DWIDTH 29 0
BBX 29 28 0 -4
BITMAP
00000000
00000000
00000000
00000000
00000000
00780000
001dc000
000f8000
01fe0000
00037800
0003f000
0007c000
01fcc000
00006000
0003f000
003e7000
00600000
00e00000
00e00000
00e00000
00786000
001fe000
00000000
00000000
00000000
00000000
00000000
00000000
ENDCHAR
STARTCHAR 304E
ENCODING 12366
SWIDTH 520 0
DWIDTH 29 0
BBX 29 28 0 -4
BITMAP
00000000
00000000
00000000
00000000
00001e00
00600600
00703800
003b9800
001e0000
03fc0000
0006e000
0007c000
003f8000
03f18000
0000c000
001fe000
00f06000
01c00000
01800000
01800000
01c00000
00ffc000
001fc000
00000000
00000000
00000000
00000000
00000000
ENDCHAR
STARTCHAR 304F
ENCODING 12367
SWIDTH 520 0
DWIDTH 29 0
BBX 29 28 0 -4
BITMAP
00000000
00000000
00000000
00000000
00038000
0001c000
0003c000
00038000
00070000
000e0000
000c0000
00180000
00300000
00600000
00600000
00300000
001c0000
000e0000
00070000
00038000
0001c000
0001c000
0000c000
00000000
00000000
00000000
00000000
00000000
ENDCHAR
STARTCHAR 3050
ENCODING 12368
SWIDTH 520 0
DWIDTH 29 0
BBX 29 28 0 -4
BITMAP
00000000
00000000
00000000
00000000
00060000
00070c00
000e0e00
000c3000
001c1800
00180000
00300000
00600000
00c00000
00c00000
00c00000
00600000
00300000
00180000
000c0000
000e0000
00070000
00038000
00030000
00000000
00000000
00000000
00000000
00000000
ENDCHAR
STARTCHAR 3051
ENCODING 12369
SWIDTH 520 0
DWIDTH 29 0
BBX 29 28 0 -4
BITMAP
00000000
00000000
00000000
00000000
01c0e000
00e06000
00c06000
00c06000
00c06000
01807e00
0187e000
01806000
01806000
01806000
01b06000
01e06000
01e06000
01e0e000
01e0c000
00c0c000
00c18000
00030000
00060000
00000000
00000000
00000000
00000000
00000000
ENDCHAR
STARTCHAR 3052
ENCODING 12370
SWIDTH 520 0
DWIDTH 29 0
BBX 29 28 0 -4
BITMAP
00000000
00000000
00000000
00000000
0001c700
0381c300
0381dc00
0381cc00
0301c000
0301fc00
031fe000
0601c000
0601c000
06018000
06018000
06c18000
07818000
07818000
03838000
03830000
01860000
000c0000
00180000
00000000
00000000
00000000
00000000
00000000
ENDCHAR
STARTCHAR 3053
ENCODING 12371
SWIDTH 520 0
DWIDTH 29 0
BBX 29 28 0 -4
BITMAP
00000000
00000000
00000000
00000000
00000000
00300000
001ff000
0003f800
00018000
00000000
00000000
00000000
00000000
00000000
00000000
00000000
01800000
01800000
00c00000
007ffc00
003ff800
00000000
00000000
00000000
00000000
00000000
00000000
00000000
ENDCHAR
STARTCHAR 3054
ENCODING 12372
SWIDTH 520 0
DWIDTH 29 0
BBX 29 28 0 -4
BITMAP
00000000
00000000
00000000
00000000
00000000
00006f00
00003b00
00718000
001fc000
00060000
00000000
00000000
00000000
00000000
00000000
00000000
03000000
03000000
03000000
03803000
01e3f000
00fff000
00000000
00000000
00000000
00000000
00000000
00000000
ENDCHAR
STARTCHAR 3055
ENCODING 12373
SWIDTH 520 0
DWIDTH 29 0
BBX 29 28 0 -4
BITMAP
00000000
00000000
00000000
00000000
00700000
00600000
0031e000
001dc000
000f8000
03ff0000
00c38000
0001c000
0000f000
003ff000
00607000
00c00000
00c00000
01c00000
00c00000
00e00000
007fe000
000f8000
00000000
00000000
00000000
00000000
00000000
00000000
ENDCHAR
STARTCHAR 3056
ENCODING 12374
SWIDTH 520 0
DWIDTH 29 0
BBX 29 28 0 -4
BITMAP
00000000
00000000
00000000
00000000
00700000
00e00380
00701d80
0039cc00
001f8000
007e0000
03e70000
00038000
0000e000
001f7000
0071f000
00c00000
01800000
01800000
01800000
01c00000
00e3c000
003fc000
00000000
00000000
00000000
00000000
00000000
00000000
ENDCHAR
STARTCHAR 3057
ENCODING 12375
SWIDTH 520 0
DWIDTH 29 0
BBX 29 28 0 -4
BITMAP
00000000
00000000
00000000
00000000
00700000
00780000
00300000
00300000
00300000
00300000
00300000
00300000
00300000
00300000
00300c00
00300c00
00303800
00307000
0031e000
003f8000
001e0000
00000000
00000000
00000000
00000000
00000000
00000000
00000000
ENDCHAR
STARTCHAR 3058
ENCODING 12376
SWIDTH 520 0
DWIDTH 29 0
BBX 29 28 0 -4
BITMAP
00000000
00000000
00000000
00000000
00e00000
00700000
00707000
0061b800
0061c000
00600000
00600000
00600000
00600000
00600000
00600c00
00601800
00603000
00606000
0061c000
00778000
003e0000
00000000
00000000
00000000
00000000
00000000
00000000
00000000
ENDCHAR
STARTCHAR 3059
ENCODING 12377
SWIDTH 520 0
DWIDTH 29 0
BBX 29 28 0 -4
BITMAP
00000000
00000000
00000000
00070000
00038000
00038000
00018000
00018000
00019f00
07fff000
03818000
00078000
000f8000
00198000
00198000
00198000
000f8000
00018000
00038000
00030000
00070000
00060000
000c0000
00000000
00000000
00000000
00000000
00000000
ENDCHAR
STARTCHAR 305A
ENCODING 12378
SWIDTH 520 0
DWIDTH 29 0
BBX 29 28 0 -4
BITMAP
00000000
00000000
00000000
000e0000
00070600
00070380
00071c00
00070c00
00077c00
0fffc000
07070000
000f0000
003f0000
00370000
00330000
00370000
001f0000
00070000
00070000
00060000
000c0000
001c0000
00300000
00000000
00000000
00000000
00000000
00000000
ENDCHAR
STARTCHAR 305B
ENCODING 12379
SWIDTH 520 0
DWIDTH 29 0
BBX 29 28 0 -4
BITMAP
00000000
00000000
00000000
00000000
00018000
0000e000
0000e000
0000e000
0070e000
0038ec00
0030fe00
003fe000
00f8e000
07b0e000
0030c000
0033c000
00300000
00300000
00183800
001ff800
00000000
00000000
00000000
00000000
00000000
00000000
00000000
00000000
ENDCHAR
STARTCHAR 305C
ENCODING 12380
SWIDTH 520 0
DWIDTH 29 0
BBX 29 28 0 -4
BITMAP
00000000
00000000
00000000
00000000
0001c000
0000e380
0000ed80
0060ec00
0078e000
0030fe00
0033fc00
003ee000
07f0e000
0330e000
0033c000
0031c000
00300000
00380000
0018f800
000ff000
00000000
00000000
00000000
00000000
00000000
00000000
00000000
00000000
ENDCHAR
STARTCHAR 305D
ENCODING 12381
SWIDTH 520 0
DWIDTH 29 0
BBX 29 28 0 -4
BITMAP
00000000
00000000
00000000
00000000
0003c000
007ee000
0039e000
00038000
00070000
000e0000
00183800
0031fc00
007f8000
07f30000
07860000
00060000
000c0000
000c0000
000c0000
000c0000
000e0000
0007e000
0001e000
00000000
00000000
00000000
00000000
00000000
ENDCHAR
STARTCHAR 305E
ENCODING 12382
SWIDTH 520 0
DWIDTH 29 0
BBX 29 28 0 -4
BITMAP
00000000
00000000
00000000
00018000
000fc000
00f9e000
0003c1c0
00071ec0
000e0600
00180000
00307e00
0067e000
01ff0000
07c60000
000c0000
000c0000
00180000
00180000
00180000
001c0000
000f8000
0007e000
00000000
00000000
00000000
00000000
00000000
00000000
ENDCHAR
STARTCHAR 305F
ENCODING 12383
SWIDTH 520 0
DWIDTH 29 0
BBX 29 28 0 -4
BITMAP
00000000
00000000
00000000
00000000
001c0000
001c0000
001c0000
00180000
001f8000
01fe0000
00f0f800
00301c00
00703e00
00600000
00600000
00e00000
00c00000
01c00000
01cc0000
038c0000
0307fc00
0001f800
00000000
00000000
00000000
00000000
00000000
00000000
ENDCHAR
STARTCHAR 3060
ENCODING 12384
SWIDTH 520 0
DWIDTH 29 0
BBX 29 28 0 -4
BITMAP
00000000
00000000
00000000
00000000
003c0000
00180000
00181b80
003b0d80
003f0000
01fc0000
00707c00
00601e00
00603800
00e00000
00c00000
00c00000
01c00000
018c0000
038c0000
030c0000
060ffc00
00000000
00000000
00000000
00000000
00000000
00000000
00000000
ENDCHAR
STARTCHAR 3061
ENCODING 12385
SWIDTH 520 0
DWIDTH 29 0
BBX 29 28 0 -4
BITMAP
00000000
00000000
00000000
00180000
001c0000
001c0000
00180000
0019c000
001f8000
01f80000
00d80000
00300000
0033f000
00363800
003c1c00
00700c00
00700c00
00e00c00
00001c00
00001800
00003000
0000e000
00038000
00000000
00000000
00000000
00000000
00000000
ENDCHAR
STARTCHAR 3062
ENCODING 12386
SWIDTH 520 0
DWIDTH 29 0
BBX 29 28 0 -4
BITMAP
00000000
00000000
00000000
00300000
003c0000
00180000
00380700
0033bb00
003f9800
03f00000
00300000
00600000
00600000
006ff000
00f83800
00e03800
01c03800
01c03800
00003800
00007000
0000e000
00078000
00000000
00000000
00000000
00000000
00000000
00000000
ENDCHAR
STARTCHAR 3063
ENCODING 12387
SWIDTH 520 0
DWIDTH 29 0
BBX 29 28 0 -4
BITMAP
00000000
00000000
00000000
00000000
00000000
00000000
00000000
00000000
0007f000
003c3800
03e01c00
01801c00
00001c00
00001800
00003800
00007000
0001c000
001f0000
00000000
00000000
00000000
00000000
00000000
00000000
00000000
00000000
00000000
00000000
ENDCHAR
STARTCHAR 3064
ENCODING 12388
SWIDTH 520 0
DWIDTH 29 0
BBX 29 28 0 -4
BITMAP
00000000
00000000
00000000
00000000
00000000
00000000
00000000
0001e000
001ff800
00f81c00
07c00e00
03800e00
00000e00
00000e00
00000c00
00001c00
00003800
0000e000
000f8000
00000000
00000000
00000000
00000000
00000000
00000000
00000000
00000000
00000000
ENDCHAR
STARTCHAR 3065
ENCODING 12389
SWIDTH 520 0
DWIDTH 29 0
BBX 29 28 0 -4
BITMAP
00000000
00000000
00000000
00000000
00000700
00000300
00001c00
00000e00
0001c000
001ff000
00f83c00
07c01c00
07000e00
00000e00
00000e00
00000c00
00001c00
00003800
0000e000
00078000
000c0000
00000000
00000000
00000000
00000000
00000000
00000000
00000000
ENDCHAR
STARTCHAR 3066
ENCODING 12390
SWIDTH 520 0
DWIDTH 29 0
BBX 29 28 0 -4
BITMAP
00000000
00000000
00000000
00000000
00000000
00000000
00007c00
0003f000
003f8000
03e70000
01860000
000c0000
00180000
00180000
00180000
00180000
00180000
001c0000
000e0000
0007f800
0001f800
00000000
00000000
00000000
00000000
00000000
00000000
00000000
ENDCHAR
STARTCHAR 3067
ENCODING 12391
SWIDTH 520 0
DWIDTH 29 0
BBX 29 28 0 -4
BITMAP
00000000
00000000
00000000
00000000
00000000
00000000
00003800
0001f800
001f8000
07f60c00
038c7700
00181800
00180000
00300000
00300000
00300000
00300000
00300000
00180000
001e0000
0007f000
00000000
00000000
00000000
00000000
00000000
00000000
00000000
ENDCHAR
STARTCHAR 3068
ENCODING 12392
SWIDTH 520 0
DWIDTH 29 0
BBX 29 28 0 -4
BITMAP
00000000
00000000
00000000
00000000
001c0000
001e0000
000c0000
000c0000
000c0000
000c0000
000ce000
000fe000
000e0000
00380000
00600000
00c00000
00c00000
00c00000
00e01800
007ffc00
001ff000
00000000
00000000
00000000
00000000
00000000
00000000
00000000
ENDCHAR
STARTCHAR 3069
ENCODING 12393
SWIDTH 520 0
DWIDTH 29 0
BBX 29 28 0 -4
BITMAP
00000000
00000000
00000000
00000000
001c0000
001c0000
001c0e00
001c0700
001c3800
001c1c00
001cec00
000fe000
001e0000
00380000
00600000
00c00000
00c00000
00c00000
00c00000
00c07800
007ff800
00078000
00000000
00000000
00000000
00000000
00000000
00000000
ENDCHAR
STARTCHAR 306A
ENCODING 12394
SWIDTH 520 0
DWIDTH 29 0
BBX 29 28 0 -4
BITMAP
00000000
00000000
00000000
00000000
00180000
00180000
003f0000
003f0000
01f83000
00601c00
00603800
00e0e000
00c18000
03c18000
03818000
03018000
00018000
001ff000
0031f800
00618000
00618000
003f0000
00000000
00000000
00000000
00000000
00000000
00000000
ENDCHAR
STARTCHAR 306B
ENCODING 12395
SWIDTH 520 0
DWIDTH 29 0
BBX 29 28 0 -4
BITMAP
00000000
00000000
00000000
00000000
01800000
01c00000
00c3f800
01c07800
01800000
01800000
01800000
01800000
01800000
01800000
01800000
01cc0000
01cc3e00
01c7fc00
00e00000
00600000
00000000
00000000
00000000
00000000
00000000
00000000
00000000
00000000
ENDCHAR
STARTCHAR 306C
ENCODING 12396
SWIDTH 520 0
DWIDTH 29 0
BBX 29 28 0 -4
BITMAP
00000000
00000000
00000000
00000000
001c0000
000e0000
000c0000
01cff800
018e1c00
01b80c00
01f80c00
01d80c00
00d80c00
01d80c00
03f00c00
03700c00
0671fc00
06331e00
03633700
03c1e000
00000000
00000000
00000000
00000000
00000000
00000000
00000000
00000000
ENDCHAR
STARTCHAR 306D
ENCODING 12397
SWIDTH 520 0
DWIDTH 29 0
BBX 29 28 0 -4
BITMAP
00000000
00000000
00000000
00600000
00700000
00700000
0071f800
007f1800
01f61c00
007c1c00
00781c00
00701c00
00701c00
00e01c00
00e01800
01e01800
03e1f800
03e73c00
00663e00
0063e600
00000000
00000000
00000000
00000000
00000000
00000000
00000000
00000000
ENDCHAR
STARTCHAR 306E
ENCODING 12398
SWIDTH 520 0
DWIDTH 29 0
BBX 29 28 0 -4
BITMAP
00000000
00000000
00000000
00000000
00000000
001fe000
00333000
00e71800
01c61c00
01860e00
030c0e00
030c0e00
03180e00
03180e00
01b00e00
01f01c00
00e01c00
00003800
00007000
0003c000
00000000
00000000
00000000
00000000
00000000
00000000
00000000
00000000
ENDCHAR
STARTCHAR 306F
ENCODING 12399
SWIDTH 520 0
DWIDTH 29 0
BBX 29 28 0 -4
BITMAP
00000000
00000000
00000000
00000000
00000000
00c0e000
00e06000
00c06000
00c06e00
0187f800
01806000
01806000
01806000
01806000
01806000
01e06000
01e1e000
01e7f800
01cc6e00
00ccc600
00078000
00000000
00000000
00000000
00000000
00000000
00000000
00000000
ENDCHAR
STARTCHAR 3070
ENCODING 12400
SWIDTH 520 0
DWIDTH 29 0
BBX 29 28 0 -4
BITMAP
00000000
00000000
00000000
00000c00
00000700
00031b00
0181cc00
01c1c000
01818000
0301f800
031f8000
03018000
0300c000
0300c000
0300c000
03c0c000
03c0c000
03cfe000
0398f800
01b19c00
019f0000
00000000
00000000
00000000
00000000
00000000
00000000
00000000
ENDCHAR
STARTCHAR 3071
ENCODING 12401
SWIDTH 520 0
DWIDTH 29 0
BBX 29 28 0 -4
BITMAP
00000000
00000000
00000e00
00001b00
00001b00
0181cf00
01c0c000
0180c000
0180dc00
030ff800
0300c000
0300c000
0300c000
0300c000
0300c000
03c0c000
03c0c000
03cfe000
0398fc00
0398ce00
018f8000
00000000
00000000
00000000
00000000
00000000
00000000
00000000
ENDCHAR
STARTCHAR 3072
ENCODING 12402
SWIDTH 520 0
DWIDTH 29 0
BBX 29 28 0 -4
BITMAP
00000000
00000000
00000000
00000000
00000000
0000e000
0078e000
03f87000
00707000
00e07800
00c07c00
0180ce00
0380c000
0300c000
0300c000
0300c000
0300c000
03018000
03818000
01c30000
00fe0000
00000000
00000000
00000000
00000000
00000000
00000000
00000000
ENDCHAR
STARTCHAR 3073
ENCODING 12403
SWIDTH 520 0
DWIDTH 29 0
BBX 29 28 0 -4
BITMAP
00000000
00000000
00000000
00000000
00000700
00000300
0038fc00
07f8ee00
03b07000
00607800
00c07c00
0180dc00
0180ce00
0300c000
0300c000
0300c000
0700c000
03018000
03018000
03830000
01c60000
007c0000
00000000
00000000
00000000
00000000
00000000
00000000
ENDCHAR
STARTCHAR 3074
ENCODING 12404
SWIDTH 520 0
DWIDTH 29 0
BBX 29 28 0 -4
BITMAP
00000000
00000000
00000000
00000000
00000e00
00001b00
0038fb00
07f8ee00
03707000
0060f800
00c0d800
0180dc00
0380cc00
0300c000
0300c000
0700c000
07018000
07018000
03018000
03830000
01ce0000
00780000
00000000
00000000
00000000
00000000
00000000
00000000
ENDCHAR
STARTCHAR 3075
ENCODING 12405
SWIDTH 520 0
DWIDTH 29 0
BBX 29 28 0 -4
BITMAP
00000000
00000000
00000000
00000000
00000000
001c0000
000f0000
000f0000
001c0000
00180000
00180000
00180000
000c0000
0007f000
000f3c00
003b8e00
00638e00
01c3be00
03838600
1f770000
001e0000
00000000
00000000
00000000
00000000
00000000
00000000
00000000
ENDCHAR
STARTCHAR 3076
ENCODING 12406
SWIDTH 520 0
DWIDTH 29 0
BBX 29 28 0 -4
BITMAP
00000000
00000000
00000000
00000000
00000c00
001c0700
000f3b00
00071c00
000c0000
00180000
00180000
001c0000
000e0000
0007f000
000f9c00
00398e00
0061cf00
00c1df00
01818600
0f378000
001f0000
00000000
00000000
00000000
00000000
00000000
00000000
00000000
ENDCHAR
STARTCHAR 3077
ENCODING 12407
SWIDTH 520 0
DWIDTH 29 0
BBX 29 28 0 -4
BITMAP
00000000
00000000
00000000
00000000
00183c00
001e3600
000f3600
000e1c00
000c0000
00180000
00180000
001c0000
000e0000
0007f800
001f9c00
00338e00
00618e00
01c1be00
03838000
0f3f0000
000e0000
00000000
00000000
00000000
00000000
00000000
00000000
00000000
ENDCHAR
STARTCHAR 3078
ENCODING 12408
SWIDTH 520 0
DWIDTH 29 0
BBX 29 28 0 -4
BITMAP
00000000
00000000
00000000
00000000
00000000
00000000
00000000
00000000
00000000
00380000
007e0000
00e30000
01c1e000
07807c00
03003f00
00000700
00000000
00000000
00000000
00000000
00000000
00000000
00000000
00000000
00000000
00000000
00000000
00000000
ENDCHAR
STARTCHAR 3079
ENCODING 12409
SWIDTH 520 0
DWIDTH 29 0
BBX 29 28 0 -4
BITMAP
00000000
00000000
00000000
00000000
00000000
00001800
00000e00
00000600
00007800
00001800
003c0000
00660000
00c38000
01c1f000
07807e00
00001f00
00000000
00000000
00000000
00000000
00000000
00000000
00000000
00000000
00000000
00000000
00000000
00000000
ENDCHAR
STARTCHAR 307A
ENCODING 12410
SWIDTH 520 0
DWIDTH 29 0
BBX 29 28 0 -4
BITMAP
00000000
00000000
00000000
00000000
00000000
00007800
0000d800
00007800
00003000
00000000
00380000
007c0000
00c70000
0183c000
0f80f800
06003f00
00000f00
00000000
00000000
00000000
00000000
00000000
00000000
00000000
00000000
00000000
00000000
00000000
ENDCHAR
STARTCHAR 307B
ENCODING 12411
SWIDTH 520 0
DWIDTH 29 0
BBX 29 28 0 -4
BITMAP
00000000
00000000
00000000
00000000
00003800
00c7f800
00c0c000
01c0e000
0180ec00
0180fc00
0187e000
03006000
03006000
03006000
03006000
03606000
0363e000
03eef800
01ecfc00
01f8dc00
00ef8000
00000000
00000000
00000000
00000000
00000000
00000000
00000000
ENDCHAR
STARTCHAR 307C
ENCODING 12412
SWIDTH 520 0
DWIDTH 29 0
BBX 29 28 0 -4
BITMAP
00000000
00000000
00000000
00000000
03000000
0181f600
01cf8380
0181cd80
03818e00
0301f800
031fc000
03018000
07018000
06018000
06018000
06c18000
03c18000
03cfc000
03d9f000
01f1b800
01df1800
00000000
00000000
00000000
00000000
00000000
00000000
00000000
ENDCHAR
STARTCHAR 307D
ENCODING 12413
SWIDTH 520 0
DWIDTH 29 0
BBX 29 28 0 -4
BITMAP
00000000
00000000
00000000
00000000
00006f00
030ffb00
038f9b00
03018e00
0301b000
0601f000
061f8000
06018000
06018000
06018000
06c18000
07818000
07878000
079fe000
07b1f000
03b3b800
019f0000
00000000
00000000
00000000
00000000
00000000
00000000
00000000
ENDCHAR
STARTCHAR 307E
ENCODING 12414
SWIDTH 520 0
DWIDTH 29 0
BBX 29 28 0 -4
BITMAP
00000000
00000000
00000000
000e0000
00070000
00070000
00070000
0007f000
01ffe000
00070000
00060000
00060000
0067e000
003e0000
00060000
00060000
00060000
007e0000
00c7c000
0186e000
00fc6000
00000000
00000000
00000000
00000000
00000000
00000000
00000000
ENDCHAR
STARTCHAR 307F
ENCODING 12415
SWIDTH 520 0
DWIDTH 29 0
BBX 29 28 0 -4
BITMAP
00000000
00000000
00000000
00000000
00070000
007f0000
00060000
00060000
000ce000
000c7000
00187000
00187000
007fe000
01f07800
0330fc00
0360ce00
07618600
03c18000
00030000
00060000
000c0000
00000000
00000000
00000000
00000000
00000000
00000000
00000000
ENDCHAR
STARTCHAR 3080
ENCODING 12416
SWIDTH 520 0
DWIDTH 29 0
BBX 29 28 0 -4
BITMAP
00000000
00000000
00000000
00000000
00600000
00700000
007e0000
03fe0000
01e00000
00607c00
0060ce00
01f0ce00
0360c000
0360c000
03c0c000
01c06000
00c06000
00c06000
00c0e000
00ffe000
007f8000
00000000
00000000
00000000
00000000
00000000
00000000
00000000
ENDCHAR
STARTCHAR 3081
ENCODING 12417
SWIDTH 520 0
DWIDTH 29 0
BBX 29 28 0 -4
BITMAP
00000000
00000000
00000000
00000000
00038000
00038000
00e38000
00e38000
0067e000
007f7800
00e31c00
01b61c00
01b60e00
033c0e00
031c0e00
031c0e00
033c0c00
03e01c00
03c03800
00003000
0000e000
00000000
00000000
00000000
00000000
00000000
00000000
00000000
ENDCHAR
STARTCHAR 3082
ENCODING 12418
SWIDTH 520 0
DWIDTH 29 0
BBX 29 28 0 -4
BITMAP
00000000
00000000
00000000
00000000
00070000
00070000
00070000
00660000
003e0000
000f0000
000f0000
00380000
00f80000
00d86000
00f83000
003e3000
00303800
00303800
00383800
00187000
001cf000
000fe000
00000000
00000000
00000000
00000000
00000000
00000000
ENDCHAR
STARTCHAR 3083
ENCODING 12419
SWIDTH 520 0
DWIDTH 29 0
BBX 29 28 0 -4
BITMAP
00000000
00000000
00000000
00000000
00000000
00000000
00030000
007f0000
0063f800
007e1c00
00381c00
03f81800
01d83800
000ce000
000e0000
00060000
00070000
00030000
00030000
00030000
00000000
00000000
00000000
00000000
00000000
00000000
00000000
00000000
ENDCHAR
STARTCHAR 3084
ENCODING 12420
SWIDTH 520 0
DWIDTH 29 0
BBX 29 28 0 -4
BITMAP
00000000
00000000
00000000
00000000
00000000
00378000
00ff8000
00c3f800
00e3de00
006e0e00
00780600
07f00e00
03980e00
001c7c00
000c0000
000e0000
00060000
00070000
00030000
00038000
00030000
00030000
00000000
00000000
00000000
00000000
00000000
00000000
ENDCHAR
STARTCHAR 3085
ENCODING 12421
SWIDTH 520 0
DWIDTH 29 0
BBX 29 28 0 -4
BITMAP
00000000
00000000
00000000
00000000
00000000
00000000
000f8000
01cd8000
01dff000
019d9800
01999c00
01b99c00
01f99c00
01d99c00
01db9800
01cf3800
00c7e000
00060000
000e0000
00180000
00000000
00000000
00000000
00000000
00000000
00000000
00000000
00000000
ENDCHAR
STARTCHAR 3086
ENCODING 12422
SWIDTH 520 0
DWIDTH 29 0
BBX 29 28 0 -4
BITMAP
00000000
00000000
00000000
00000000
00030000
060f8000
031dc000
039bf800
031fdc00
0339ce00
0731ce00
0671ce00
06f1ce00
06f1ce00
07b18e00
079b9c00
039fbc00
038ff000
01870000
000e0000
001c0000
00300000
00000000
00000000
00000000
00000000
00000000
00000000
ENDCHAR
STARTCHAR 3087
ENCODING 12423
SWIDTH 520 0
DWIDTH 29 0
BBX 29 28 0 -4
BITMAP
00000000
00000000
00000000
00000000
00000000
00060000
00070000
00060000
00067000
0007f000
00060000
00060000
00060000
00060000
00060000
000e0000
007fc000
00c6e000
00cc6000
00780000
00000000
00000000
00000000
00000000
00000000
00000000
00000000
00000000
ENDCHAR
STARTCHAR 3088
ENCODING 12424
SWIDTH 520 0
DWIDTH 29 0
BBX 29 28 0 -4
BITMAP
00000000
00000000
00000000
00000000
000c0000
00070000
00060000
00060000
00067800
0007f000
00060000
00060000
00060000
00060000
00060000
000e0000
000e0000
00ff8000
018fe000
030cf000
019c7000
00f80000
00000000
00000000
00000000
00000000
00000000
00000000
ENDCHAR
STARTCHAR 3089
ENCODING 12425
SWIDTH 520 0
DWIDTH 29 0
BBX 29 28 0 -4
BITMAP
00000000
00000000
00000000
00000000
00300000
001c0000
000e0000
00180000
00700000
00600000
00c00000
00c00000
00c1c000
00cf7000
00f83800
00e01800
00c01800
00001800
00003800
00007000
0000c000
00038000
00000000
00000000
00000000
00000000
00000000
00000000
ENDCHAR
STARTCHAR 308A
ENCODING 12426
SWIDTH 520 0
DWIDTH 29 0
BBX 29 28 0 -4
BITMAP
00000000
00000000
00000000
00000000
00700000
00300000
0033e000
00367000
003c7000
00383000
00783000
00707000
00707000
00707000
00306000
00306000
00006000
0000e000
0000c000
00018000
00038000
00060000
000c0000
00000000
00000000
00000000
00000000
00000000
ENDCHAR
STARTCHAR 308B
ENCODING 12427
SWIDTH 520 0
DWIDTH 29 0
BBX 29 28 0 -4
BITMAP
00000000
00000000
00000000
00000000
0001c000
007fc000
0039c000
00030000
00070000
000e0000
000c0000
0019c000
003f7000
00783800
00e01800
01c01c00
03c01c00
038f3800
001bb800
0031f000
0019e000
000f0000
00000000
00000000
00000000
00000000
00000000
00000000
ENDCHAR
STARTCHAR 308C
ENCODING 12428
SWIDTH 520 0
DWIDTH 29 0
BBX 29 28 0 -4
BITMAP
00000000
00000000
00000000
00000000
00380000
00180000
00187000
0019f000
001f3000
01fe3000
001c3000
00187000
00387000
00706000
00706000
00f86000
01f86000
03b86180
03387700
00383e00
00000000
00000000
00000000
00000000
00000000
00000000
00000000
00000000
ENDCHAR
STARTCHAR 308D
ENCODING 12429
SWIDTH 520 0
DWIDTH 29 0
BBX 29 28 0 -4
BITMAP
00000000
00000000
00000000
00000000
0000c000
0007e000
007fc000
00030000
00060000
000e0000
001dc000
003f7000
00703800
00e01c00
01c01c00
01801c00
00001c00
00001c00
00003800
00007000
0003c000
000e0000
00000000
00000000
00000000
00000000
00000000
00000000
ENDCHAR
STARTCHAR 308E
ENCODING 12430
SWIDTH 520 0
DWIDTH 29 0
BBX 29 28 0 -4
BITMAP
00000000
00000000
00000000
00000000
00000000
00180000
001c0000
00180000
001c0000
007ff000
001e1c00
001c0c00
00180c00
00380c00
00780c00
00f81c00
00d81800
00183000
00186000
00000000
00000000
00000000
00000000
00000000
00000000
00000000
00000000
00000000
ENDCHAR
STARTCHAR 308F
ENCODING 12431
SWIDTH 520 0
DWIDTH 29 0
BBX 29 28 0 -4
BITMAP
00000000
00000000
00000000
00000000
00380000
00180000
00180000
00180000
001c0000
01f9fc00
001f1e00
001c0f00
00380700
00380700
00780700
00d80700
01d80700
01980600
00380c00
00381800
00187000
00000000
00000000
00000000
00000000
00000000
00000000
00000000
ENDCHAR
STARTCHAR 3090
ENCODING 12432
SWIDTH 520 0
DWIDTH 29 0
BBX 29 28 0 -4
BITMAP
00000000
00000000
00000000
00000000
00000000
003e0000
01fe0000
00cc0000
000c0000
000ff000
001c3800
00781c00
00d80c00
01980c00
01b00c00
03300c00
0333ec00
03e67800
01e67800
00e3e000
00000000
00000000
00000000
00000000
00000000
00000000
00000000
00000000
ENDCHAR
STARTCHAR 3091
ENCODING 12433
SWIDTH 520 0
DWIDTH 29 0
BBX 29 28 0 -4
BITMAP
00000000
00000000
00000000
00000000
00018000
003fc000
003f0000
00060000
0007e000
001c3000
00383000
007c3000
007e6000
001fc000
001c0000
00300000
00e07800
01f9dc00
039f0e00
030e0e00
00001e00
00000000
00000000
00000000
00000000
00000000
00000000
00000000
ENDCHAR
STARTCHAR 3092
ENCODING 12434
SWIDTH 520 0
DWIDTH 29 0
BBX 29 28 0 -4
BITMAP
00000000
00000000
00000000
00060000
00060000
0007c000
006fc000
007e0000
00180000
00381c00
003e3c00
007ef000
00e3c000
01c30000
01870000
001f0000
003f0000
00370000
00630000
00600000
0071f000
003fe000
00000000
00000000
00000000
00000000
00000000
00000000
ENDCHAR
STARTCHAR 3093
ENCODING 12435
SWIDTH 520 0
DWIDTH 29 0
BBX 29 28 0 -4
BITMAP
00000000
00000000
00000000
00000000
00180000
001c0000
001c0000
00380000
00300000
00300000
00600000
006f0000
00df0000
00f70000
00c70000
01c70600
01870c00
03871800
03877000
0707e000
0303c000
00000000
00000000
00000000
00000000
00000000
00000000
00000000
ENDCHAR
STARTCHAR 30A1
ENCODING 12449
SWIDTH 520 0
DWIDTH 29 0
BBX 29 28 0 -4
BITMAP
00000000
00000000
00000000
00000000
00000000
00000000
00000000
00000000
0007f000
00fc7800
0000e000
00078000
00070000
00060000
00060000
000c0000
000c0000
00180000
00300000
00600000
00000000
00000000
00000000
00000000
00000000
00000000
00000000
00000000
ENDCHAR
STARTCHAR 30A2
ENCODING 12450
SWIDTH 520 0
DWIDTH 29 0
BBX 29 28 0 -4
BITMAP
00000000
00000000
00000000
00000000
00003000
0001f800
01ff3c00
00e06000
0007c000
00070000
00070000
00060000
00060000
000e0000
000c0000
000c0000
00180000
00180000
00300000
00000000
00000000
00000000
00000000
00000000
00000000
00000000
00000000
00000000
ENDCHAR
STARTCHAR 30A3
ENCODING 12451
SWIDTH 520 0
DWIDTH 29 0
BBX 29 28 0 -4
BITMAP
00000000
00000000
00000000
00000000
0001c000
0001c000
00038000
00030000
00060000
000e0000
001f0000
00360000
00660000
00060000
00060000
00070000
00070000
00060000
00060000
00000000
00000000
00000000
00000000
00000000
00000000
00000000
00000000
00000000
ENDCHAR
STARTCHAR 30A4
ENCODING 12452
SWIDTH 520 0
DWIDTH 29 0
BBX 29 28 0 -4
BITMAP
00000000
00000000
00000000
0000c000
0000e000
0000e000
0000c000
0001c000
00038000
00070000
000f8000
001f8000
00398000
00618000
00c18000
00018000
00038000
00038000
00038000
00038000
00030000
00000000
00000000
00000000
00000000
00000000
00000000
00000000
ENDCHAR
STARTCHAR 30A5
ENCODING 12453
SWIDTH 520 0
DWIDTH 29 0
BBX 29 28 0 -4
BITMAP
00000000
00000000
00000000
00000000
00070000
00070000
00060000
0066f000
003fb000
00707000
00706000
00606000
0060c000
0000c000
00018000
00038000
00070000
00000000
00000000
00000000
00000000
00000000
00000000
00000000
00000000
00000000
00000000
00000000
ENDCHAR
STARTCHAR 30A6
ENCODING 12454
SWIDTH 520 0
DWIDTH 29 0
BBX 29 28 0 -4
BITMAP
00000000
00000000
00000000
00000000
00070000
00070000
00030000
00033000
00e3f800
00fe3800
00e03800
00e03000
00e07000
00e06000
00006000
0000e000
0000c000
00018000
00030000
00060000
000c0000
00000000
00000000
00000000
00000000
00000000
00000000
00000000
ENDCHAR
STARTCHAR 30A7
ENCODING 12455
SWIDTH 520 0
DWIDTH 29 0
BBX 29 28 0 -4
BITMAP
00000000
00000000
00000000
00000000
00000000
0000e000
007fe000
00370000
00070000
00070000
00060000
00063800
03fffc00
00c00000
00000000
00000000
00000000
00000000
00000000
00000000
00000000
00000000
00000000
00000000
00000000
00000000
00000000
00000000
ENDCHAR
STARTCHAR 30A8
ENCODING 12456
SWIDTH 520 0
DWIDTH 29 0
BBX 29 28 0 -4
BITMAP
00000000
00000000
00000000
00000000
00000000
00000000
0003f000
007f0000
00070000
00070000
00070000
00070000
00060000
001ffe00
03f80000
00000000
00000000
00000000
00000000
00000000
00000000
00000000
00000000
00000000
00000000
00000000
00000000
00000000
ENDCHAR
STARTCHAR 30A9
ENCODING 12457
SWIDTH 520 0
DWIDTH 29 0
BBX 29 28 0 -4
BITMAP
00000000
00000000
00000000
00000000
00038000
00038000
00038000
00018000
0183f800
00ff8000
00078000
00078000
000d8000
00198000
00318000
00618000
00c78000
00038000
00030000
00000000
00000000
00000000
00000000
00000000
00000000
00000000
00000000
00000000
ENDCHAR
STARTCHAR 30AA
ENCODING 12458
SWIDTH 520 0
DWIDTH 29 0
BBX 29 28 0 -4
BITMAP
00000000
00000000
00000000
00000000
00038000
00038000
00018000
00018000
0001bc00
030ffc00
01fb8000
00078000
000f8000
000d8000
00198000
00318000
00618000
00c18000
01878000
00038000
00030000
00000000
00000000
00000000
00000000
00000000
00000000
00000000
ENDCHAR
STARTCHAR 30AB
ENCODING 12459
SWIDTH 520 0
DWIDTH 29 0
BBX 29 28 0 -4
BITMAP
00000000
00000000
00000000
00030000
0003c000
00038000
00038000
0003b800
0003fc00
00ffbc00
00671800
00063800
000e3800
000c3800
001c7000
00387000
00306000
0066e000
00c3c000
01818000
00000000
00000000
00000000
00000000
00000000
00000000
00000000
00000000
ENDCHAR
STARTCHAR 30AC
ENCODING 12460
SWIDTH 520 0
DWIDTH 29 0
BBX 29 28 0 -4
BITMAP
00000000
00000000
00000000
00000000
00000700
0007b300
00039c00
00078000
00070000
0007f800
00fffc00
00fe3800
000e3000
000c3000
001c7000
00187000
00386000
0070e000
00e0c000
01cfc000
03038000
00030000
00000000
00000000
00000000
00000000
00000000
00000000
ENDCHAR
STARTCHAR 30AD
ENCODING 12461
SWIDTH 520 0
DWIDTH 29 0
BBX 29 28 0 -4
BITMAP
00000000
00000000
00000000
003c0000
001c0000
000c0000
000c0000
000df000
001f8000
01f60000
00061800
0007f800
0007c000
003f0000
03f30000
00c38000
00018000
0001c000
0001c000
0000c000
0000e000
00000000
00000000
00000000
00000000
00000000
00000000
00000000
ENDCHAR
STARTCHAR 30AE
ENCODING 12462
SWIDTH 520 0
DWIDTH 29 0
BBX 29 28 0 -4
BITMAP
00000000
00000000
00380c00
00186600
001c3800
000cd800
000fe000
00fe0000
007e0000
00063c00
0007f800
001f0000
01ff0000
01c30000
00030000
00038000
00038000
00018000
0001c000
0001c000
0000c000
00000000
00000000
00000000
00000000
00000000
00000000
00000000
ENDCHAR
STARTCHAR 30AF
ENCODING 12463
SWIDTH 520 0
DWIDTH 29 0
BBX 29 28 0 -4
BITMAP
00000000
00000000
00000000
000e0000
000e0000
001c6000
001ff800
00187000
00386000
0030e000
0060e000
00c1c000
0001c000
00038000
00030000
00060000
000e0000
001c0000
00380000
00600000
00c00000
00000000
00000000
00000000
00000000
00000000
00000000
00000000
ENDCHAR
STARTCHAR 30B0
ENCODING 12464
SWIDTH 520 0
DWIDTH 29 0
BBX 29 28 0 -4
BITMAP
00000000
00000000
00000000
00180600
000e0300
001c0c00
001cec00
001ff000
0030e000
0070e000
0061c000
00c1c000
00038000
00030000
00070000
000e0000
001c0000
00380000
00700000
01c00000
00000000
00000000
00000000
00000000
00000000
00000000
00000000
00000000
ENDCHAR
STARTCHAR 30B1
ENCODING 12465
SWIDTH 520 0
DWIDTH 29 0
BBX 29 28 0 -4
BITMAP
00000000
00000000
00000000
00180000
001c0000
001e0000
001c0000
00380000
0030fc00
007ff800
00e1c000
00c1c000
0181c000
00038000
00030000
00070000
000e0000
001c0000
00380000
00700000
00c00000
00000000
00000000
00000000
00000000
00000000
00000000
00000000
ENDCHAR
STARTCHAR 30B2
ENCODING 12466
SWIDTH 520 0
DWIDTH 29 0
BBX 29 28 0 -4
BITMAP
00000000
00000000
00000000
00300700
00383b00
00381c00
00701800
0073fc00
007f8000
00e1c000
00c1c000
0181c000
00038000
00038000
00070000
00060000
000e0000
001c0000
00380000
00700000
00c00000
00000000
00000000
00000000
00000000
00000000
00000000
00000000
ENDCHAR
STARTCHAR 30B3
ENCODING 12467
SWIDTH 520 0
DWIDTH 29 0
BBX 29 28 0 -4
BITMAP
00000000
00000000
00000000
00000000
00000000
00000000
00007000
00fff800
007e7800
00007000
00006000
00006000
0000e000
0000e000
0000e000
01fff000
00f80000
00000000
00000000
00000000
00000000
00000000
00000000
00000000
00000000
00000000
00000000
00000000
ENDCHAR
STARTCHAR 30B4
ENCODING 12468
SWIDTH 520 0
DWIDTH 29 0
BBX 29 28 0 -4
BITMAP
00000000
00000000
00000000
00000600
00000380
00001c00
00000e00
0000f000
000ff800
00fe7000
00006000
00006000
00006000
00006000
00006000
0001e000
003ff000
00fc0000
00000000
00000000
00000000
00000000
00000000
00000000
00000000
00000000
00000000
00000000
ENDCHAR
STARTCHAR 30B5
ENCODING 12469
SWIDTH 520 0
DWIDTH 29 0
BBX 29 28 0 -4
BITMAP
00000000
00000000
00000000
0001c000
0060e000
0078e000
0038e000
0038e000
0030e600
0031ff00
07ffc000
03b8c000
0038c000
0038c000
0030c000
0000c000
0000c000
0001c000
00018000
00038000
00030000
00000000
00000000
00000000
00000000
00000000
00000000
00000000
ENDCHAR
STARTCHAR 30B6
ENCODING 12470
SWIDTH 520 0
DWIDTH 29 0
BBX 29 28 0 -4
BITMAP
00000000
00000000
00000000
00018600
0001e380
0070cf80
0070c600
0030c000
0030c000
0030ff00
07ffc000
07f0c000
0030c000
0030c000
0071c000
0031c000
00018000
00018000
00018000
00030000
00060000
00000000
00000000
00000000
00000000
00000000
00000000
00000000
ENDCHAR
STARTCHAR 30B7
ENCODING 12471
SWIDTH 520 0
DWIDTH 29 0
BBX 29 28 0 -4
BITMAP
00000000
00000000
00000000
00000000
001e0000
00070000
00030000
00000000
01c00600
00780c00
00381800
00003000
00006000
0000c000
0003c000
00078000
007f0000
003c0000
00180000
00000000
00000000
00000000
00000000
00000000
00000000
00000000
00000000
00000000
ENDCHAR
STARTCHAR 30B8
ENCODING 12472
SWIDTH 520 0
DWIDTH 29 0
BBX 29 28 0 -4
BITMAP
00000000
00000000
00000000
00000000
00000000
00000700
00000380
00003000
001c1c00
000e0c00
00000300
00000600
00f00c00
00381800
00003000
00007000
0000e000
0001c000
00078000
003f0000
001e0000
000c0000
00000000
00000000
00000000
00000000
00000000
00000000
ENDCHAR
STARTCHAR 30B9
ENCODING 12473
SWIDTH 520 0
DWIDTH 29 0
BBX 29 28 0 -4
BITMAP
00000000
00000000
00000000
00000000
0000e000
0003f000
007fe000
0030e000
0001c000
0001c000
00038000
00030000
0007e000
000e7800
000c3c00
00181c00
00301c00
00600000
01c00000
00000000
00000000
00000000
00000000
00000000
00000000
00000000
00000000
00000000
ENDCHAR
STARTCHAR 30BA
ENCODING 12474
SWIDTH 520 0
DWIDTH 29 0
BBX 29 28 0 -4
BITMAP
00000000
00000000
00000000
00000e00
00000700
00003800
00001c00
0000c000
0007e000
01ffc000
00e1c000
00038000
00030000
00070000
00060000
000fc000
001cf000
00387800
00603800
00c01800
00000000
00000000
00000000
00000000
00000000
00000000
00000000
00000000
ENDCHAR
STARTCHAR 30BB
ENCODING 12475
SWIDTH 520 0
DWIDTH 29 0
BBX 29 28 0 -4
BITMAP
00000000
00000000
00000000
00000000
000e0000
000e0000
000e0000
000c3000
000cf800
000fbc00
003c7800
07ec6000
038cc000
000c0000
000c0000
000c0000
000c0000
000e3e00
0007fc00
00000000
00000000
00000000
00000000
00000000
00000000
00000000
00000000
00000000
ENDCHAR
STARTCHAR 30BC
ENCODING 12476
SWIDTH 520 0
DWIDTH 29 0
BBX 29 28 0 -4
BITMAP
00000000
00000000
00000000
00001800
00000e00
001c7600
000e3800
000c1800
000c3000
000cf800
000fb800
001e7800
07fc6000
038cc000
000c0000
001c0000
001c0000
000c0000
000c3c00
000ffc00
00000000
00000000
00000000
00000000
00000000
00000000
00000000
00000000
ENDCHAR
STARTCHAR 30BD
ENCODING 12477
SWIDTH 520 0
DWIDTH 29 0
BBX 29 28 0 -4
BITMAP
00000000
00000000
00000000
00003800
00c03c00
00783c00
003c3800
001c3800
00007000
00007000
0000e000
0000c000
0001c000
00038000
00070000
000e0000
00380000
00700000
01c00000
00000000
00000000
00000000
00000000
00000000
00000000
00000000
00000000
00000000
ENDCHAR
STARTCHAR 30BE
ENCODING 12478
SWIDTH 520 0
DWIDTH 29 0
BBX 29 28 0 -4
BITMAP
00000000
00000000
00000300
000001c0
000007c0
00007300
01e03800
00f03800
00707000
00007000
0000e000
0000e000
0001c000
0001c000
00038000
00030000
00060000
000e0000
00180000
00300000
00e00000
00000000
00000000
00000000
00000000
00000000
00000000
00000000
ENDCHAR
STARTCHAR 30BF
ENCODING 12479
SWIDTH 520 0
DWIDTH 29 0
BBX 29 28 0 -4
BITMAP
00000000
00000000
00000000
00060000
00070000
00070000
000e7800
000ff800
001c3800
00187000
00306000
0078e000
007cc000
0007c000
00078000
00030000
00060000
000c0000
00180000
00700000
00c00000
01800000
00000000
00000000
00000000
00000000
00000000
00000000
ENDCHAR
STARTCHAR 30C0
ENCODING 12480
SWIDTH 520 0
DWIDTH 29 0
BBX 29 28 0 -4
BITMAP
00000000
00000000
00000000
00000000
000c0700
000e3b00
000e1c00
000cf000
001ff800
00187000
0030e000
0070e000
0071c000
00d98000
018f8000
000f0000
00060000
000c0000
001c0000
00300000
00600000
01c00000
03000000
00000000
00000000
00000000
00000000
00000000
ENDCHAR
STARTCHAR 30C1
ENCODING 12481
SWIDTH 520 0
DWIDTH 29 0
BBX 29 28 0 -4
BITMAP
00000000
00000000
00000000
0001c000
0001e000
00038000
000f8000
0019c000
00018000
00018f00
0003ff00
03ff8000
01c38000
00030000
00030000
00060000
000e0000
000c0000
001c0000
00380000
00700000
00000000
00000000
00000000
00000000
00000000
00000000
00000000
ENDCHAR
STARTCHAR 30C2
ENCODING 12482
SWIDTH 520 0
DWIDTH 29 0
BBX 29 28 0 -4
BITMAP
00000000
00000000
00000000
0001c000
0003c380
00071d80
001f0e00
00370600
00070000
0007fe00
07ffc000
03c60000
00060000
00060000
000e0000
000c0000
001c0000
00180000
00300000
00600000
00c00000
00000000
00000000
00000000
00000000
00000000
00000000
00000000
ENDCHAR
STARTCHAR 30C3
ENCODING 12483
SWIDTH 520 0
DWIDTH 29 0
BBX 29 28 0 -4
BITMAP
00000000
00000000
00000000
00000000
000c7000
00c67800
00777000
00706000
0000e000
0000c000
00018000
00038000
00070000
000c0000
00180000
00700000
00000000
00000000
00000000
00000000
00000000
00000000
00000000
00000000
00000000
00000000
00000000
00000000
ENDCHAR
STARTCHAR 30C4
ENCODING 12484
SWIDTH 520 0
DWIDTH 29 0
BBX 29 28 0 -4
BITMAP
00000000
00000000
00000000
00183000
000e3c00
01c73c00
00e73800
00e07000
00007000
0000e000
0000c000
0001c000
00038000
00070000
000e0000
00180000
00700000
00c00000
00000000
00000000
00000000
00000000
00000000
00000000
00000000
00000000
00000000
00000000
ENDCHAR
STARTCHAR 30C5
ENCODING 12485
SWIDTH 520 0
DWIDTH 29 0
BBX 29 28 0 -4
BITMAP
00000000
00000000
00000000
000001c0
00000ec0
00000700
000e0000
01c73800
0073b800
00003800
00007000
00007000
0000e000
0000c000
0001c000
00038000
00070000
000e0000
00180000
00300000
00000000
00000000
00000000
00000000
00000000
00000000
00000000
00000000
ENDCHAR
STARTCHAR 30C6
ENCODING 12486
SWIDTH 520 0
DWIDTH 29 0
BBX 29 28 0 -4
BITMAP
00000000
00000000
00000000
00003000
0007f800
007f0000
00000000
00000c00
0000fe00
033f8000
03f38000
00038000
00038000
00030000
00070000
00060000
000e0000
001c0000
00380000
00700000
00c00000
00000000
00000000
00000000
00000000
00000000
00000000
00000000
ENDCHAR
STARTCHAR 30C7
ENCODING 12487
SWIDTH 520 0
DWIDTH 29 0
BBX 29 28 0 -4
BITMAP
00000000
00000000
00000000
00000180
0000f0e0
007fe700
00780300
00000000
00001c00
0001fe00
063f8000
03f38000
00038000
00030000
00070000
00060000
000e0000
000c0000
00180000
00300000
00600000
01c00000
00000000
00000000
00000000
00000000
00000000
00000000
ENDCHAR
STARTCHAR 30C8
ENCODING 12488
SWIDTH 520 0
DWIDTH 29 0
BBX 29 28 0 -4
BITMAP
00000000
00000000
00000000
001c0000
001c0000
001c0000
001c0000
001c0000
001c0000
001f0000
001dc000
001cf000
001c7000
001c7000
001c0000
001c0000
001c0000
001c0000
001c0000
001c0000
001c0000
00000000
00000000
00000000
00000000
00000000
00000000
00000000
ENDCHAR
STARTCHAR 30C9
ENCODING 12489
SWIDTH 520 0
DWIDTH 29 0
BBX 29 28 0 -4
BITMAP
00000000
00000000
00000000
00000000
00180600
000e3300
000e1c00
000c0000
000c0000
000c0000
000f0000
000de000
000c7000
000c3000
000c0000
000c0000
000c0000
000c0000
000c0000
001c0000
001c0000
000c0000
00000000
00000000
00000000
00000000
00000000
00000000
ENDCHAR
STARTCHAR 30CA
ENCODING 12490
SWIDTH 520 0
DWIDTH 29 0
BBX 29 28 0 -4
BITMAP
00000000
00000000
00000000
000f0000
00070000
00070000
00060000
00060000
00067c00
03bffc00
01f60000
00060000
00060000
00060000
00060000
000e0000
000e0000
000c0000
001c0000
00180000
00300000
00600000
00000000
00000000
00000000
00000000
00000000
00000000
ENDCHAR
STARTCHAR 30CB
ENCODING 12491
SWIDTH 520 0
DWIDTH 29 0
BBX 29 28 0 -4
BITMAP
00000000
00000000
00000000
00000000
0000f000
00fff000
00fc0000
00000000
00000000
00000000
00000000
00000000
00007e00
03fffe00
03f80000
00000000
00000000
00000000
00000000
00000000
00000000
00000000
00000000
00000000
00000000
00000000
00000000
00000000
ENDCHAR
STARTCHAR 30CC
ENCODING 12492
SWIDTH 520 0
DWIDTH 29 0
BBX 29 28 0 -4
BITMAP
00000000
00000000
00000000
00000000
00006000
0001f000
00ff7000
00786000
0000e000
0000e000
0001c000
001fc000
00078000
0007e000
000ef000
001c7800
00383800
00e00000
03800000
00000000
00000000
00000000
00000000
00000000
00000000
00000000
00000000
00000000
ENDCHAR
STARTCHAR 30CD
ENCODING 12493
SWIDTH 520 0
DWIDTH 29 0
BBX 29 28 0 -4
BITMAP
00000000
00000000
00000000
00038000
0001c000
0001c000
00000000
0001c000
0007e000
00ffc000
00738000
00030000
00070000
000f7000
001f3c00
003b0e00
00730e00
00c30000
00030000
00070000
00070000
00070000
00030000
00000000
00000000
00000000
00000000
00000000
ENDCHAR
STARTCHAR 30CE
ENCODING 12494
SWIDTH 520 0
DWIDTH 29 0
BBX 29 28 0 -4
BITMAP
00000000
00000000
00000000
00000000
0000f000
0000f000
0000e000
0000e000
0001c000
0001c000
00018000
00038000
00070000
00060000
000e0000
001c0000
00380000
00600000
01c00000
00000000
00000000
00000000
00000000
00000000
00000000
00000000
00000000
00000000
ENDCHAR
STARTCHAR 30CF
ENCODING 12495
SWIDTH 520 0
DWIDTH 29 0
BBX 29 28 0 -4
BITMAP
00000000
00000000
00000000
00000000
00000000
00000000
00700000
00786000
00383000
00701800
00701c00
00600e00
00e00e00
00c00e00
01800e00
03000000
06000000
00000000
00000000
00000000
00000000
00000000
00000000
00000000
00000000
00000000
00000000
00000000
ENDCHAR
STARTCHAR 30D0
ENCODING 12496
SWIDTH 520 0
DWIDTH 29 0
BBX 29 28 0 -4
BITMAP
00000000
00000000
00000000
00000380
00001980
00000e00
00000600
0070c000
00787000
00703800
00703800
00601c00
00e01c00
00c00e00
01800e00
03800e00
03000000
06000000
00000000
00000000
00000000
00000000
00000000
00000000
00000000
00000000
00000000
00000000
ENDCHAR
STARTCHAR 30D1
ENCODING 12497
SWIDTH 520 0
DWIDTH 29 0
BBX 29 28 0 -4
BITMAP
00000000
00000000
00000000
00000000
00000f00
00001980
00000f00
00306600
00383000
00383800
00381c00
00700c00
00600e00
00e00e00
00c00700
01800600
01800000
07000000
00000000
00000000
00000000
00000000
00000000
00000000
00000000
00000000
00000000
00000000
ENDCHAR
STARTCHAR 30D2
ENCODING 12498
SWIDTH 520 0
DWIDTH 29 0
BBX 29 28 0 -4
BITMAP
00000000
00000000
00000000
00600000
00380000
00380000
00306000
0030f000
0033f000
003e0000
00300000
00300000
00300000
00300000
00300000
00387800
001ff800
00000000
00000000
00000000
00000000
00000000
00000000
00000000
00000000
00000000
00000000
00000000
ENDCHAR
STARTCHAR 30D3
ENCODING 12499
SWIDTH 520 0
DWIDTH 29 0
BBX 29 28 0 -4
BITMAP
00000000
00000000
00000000
00000000
00001c00
00700e00
00707000
00703000
0061c000
0061e000
00678000
007c0000
00600000
00600000
00600000
00600000
00700000
003ff000
000fe000
00000000
00000000
00000000
00000000
00000000
00000000
00000000
00000000
00000000
ENDCHAR
STARTCHAR 30D4
ENCODING 12500
SWIDTH 520 0
DWIDTH 29 0
BBX 29 28 0 -4
BITMAP
00000000
00000000
00000e00
00001b00
00001b00
00700e00
00700000
00706000
0070f000
0063c000
006e0000
00780000
00600000
00600000
00600000
00600000
00700000
003ff000
00000000
00000000
00000000
00000000
00000000
00000000
00000000
00000000
00000000
00000000
ENDCHAR
STARTCHAR 30D5
ENCODING 12501
SWIDTH 520 0
DWIDTH 29 0
BBX 29 28 0 -4
BITMAP
00000000
00000000
00000000
00000000
00007000
01fffc00
01fc3800
00003000
00007000
00006000
0000e000
0000c000
0001c000
00038000
00070000
000e0000
001c0000
00300000
00e00000
00000000
00000000
00000000
00000000
00000000
00000000
00000000
00000000
00000000
ENDCHAR
STARTCHAR 30D6
ENCODING 12502
SWIDTH 520 0
DWIDTH 29 0
BBX 29 28 0 -4
BITMAP
00000000
00000000
00000000
00000380
00001dc0
00000e00
00006000
0003f800
01fe7000
00e07000
00006000
0000e000
0000c000
0001c000
00018000
00030000
00070000
000e0000
00180000
00300000
00000000
00000000
00000000
00000000
00000000
00000000
00000000
00000000
ENDCHAR
STARTCHAR 30D7
ENCODING 12503
SWIDTH 520 0
DWIDTH 29 0
BBX 29 28 0 -4
BITMAP
00000000
00000000
00000700
00000d80
00000d80
00000f00
0001f800
01ff3800
01f07000
00007000
00006000
0000e000
0000e000
0001c000
00018000
00038000
00070000
000e0000
00180000
00700000
00000000
00000000
00000000
00000000
00000000
00000000
00000000
00000000
ENDCHAR
STARTCHAR 30D8
ENCODING 12504
SWIDTH 520 0
DWIDTH 29 0
BBX 29 28 0 -4
BITMAP
00000000
00000000
00000000
00000000
00000000
00780000
00cc0000
0f870000
0781c000
0000f000
00007c00
00003f00
00000f00
00000000
00000000
00000000
00000000
00000000
00000000
00000000
00000000
00000000
00000000
00000000
00000000
00000000
00000000
00000000
ENDCHAR
STARTCHAR 30D9
ENCODING 12505
SWIDTH 520 0
DWIDTH 29 0
BBX 29 28 0 -4
BITMAP
00000000
00000000
00000000
00000000
00000600
00306700
00783800
00cc1800
01860000
03838000
0f01c000
07006000
00003800
00001c00
00000e00
00000000
00000000
00000000
00000000
00000000
00000000
00000000
00000000
00000000
00000000
00000000
00000000
00000000
ENDCHAR
STARTCHAR 30DA
ENCODING 12506
SWIDTH 520 0
DWIDTH 29 0
BBX 29 28 0 -4
BITMAP
00000000
00000000
00000000
00000000
00003c00
00786600
00ec3600
00c61c00
01830000
07818000
0700e000
00007000
00003c00
00000e00
00000600
00000000
00000000
00000000
00000000
00000000
00000000
00000000
00000000
00000000
00000000
00000000
00000000
00000000
ENDCHAR
STARTCHAR 30DB
ENCODING 12507
SWIDTH 520 0
DWIDTH 29 0
BBX 29 28 0 -4
BITMAP
00000000
00000000
00000000
00060000
00038000
00038000
00038000
00039c00
000ffe00
01ff8000
00038000
00038000
0003b000
00639c00
00638e00
00c38e00
01df8600
018f8000
00070000
00000000
00000000
00000000
00000000
00000000
00000000
00000000
00000000
00000000
ENDCHAR
STARTCHAR 30DC
ENCODING 12508
SWIDTH 520 0
DWIDTH 29 0
BBX 29 28 0 -4
BITMAP
00000000
00000000
00000000
00000e00
000f3700
000e1c00
000e1800
00061800
0007fc00
01fe0000
00060000
00060000
00060000
00c63800
01c61c00
01860c00
03860000
071e0000
000e0000
00000000
00000000
00000000
00000000
00000000
00000000
00000000
00000000
00000000
ENDCHAR
STARTCHAR 30DD
ENCODING 12509
SWIDTH 520 0
DWIDTH 29 0
BBX 29 28 0 -4
BITMAP
00000000
00000000
00000000
00000f00
000e1980
000e0f00
00060600
00060000
0007f800
01ff8000
00e60000
00060000
0006c000
00667000
00c61c00
01c61c00
03c60c00
001e0000
000e0000
000c0000
00000000
00000000
00000000
00000000
00000000
00000000
00000000
00000000
ENDCHAR
STARTCHAR 30DE
ENCODING 12510
SWIDTH 520 0
DWIDTH 29 0
BBX 29 28 0 -4
BITMAP
00000000
00000000
00000000
00000000
00000000
00000000
00007c00
003ffe00
03f83c00
01807000
00006000
000cc000
00078000
00038000
0003c000
0001c000
0001c000
0000c000
00000000
00000000
00000000
00000000
00000000
00000000
00000000
00000000
00000000
00000000
ENDCHAR
STARTCHAR 30DF
ENCODING 12511
SWIDTH 520 0
DWIDTH 29 0
BBX 29 28 0 -4
BITMAP
00000000
00000000
00000000
001c0000
0007c000
0001e000
00007000
00003000
00000000
000f0000
0003c000
0001e000
0000e000
00000000
00380000
000f0000
00078000
0001e000
0000e000
00006000
00000000
00000000
00000000
00000000
00000000
00000000
00000000
00000000
ENDCHAR
STARTCHAR 30E0
ENCODING 12512
SWIDTH 520 0
DWIDTH 29 0
BBX 29 28 0 -4
BITMAP
00000000
00000000
00000000
00060000
00070000
00070000
000f0000
000e0000
000c0000
001c0000
00186000
00183000
00303800
00301c00
00603e00
007fee00
01f80e00
00c00600
00000000
00000000
00000000
00000000
00000000
00000000
00000000
00000000
00000000
00000000
ENDCHAR
STARTCHAR 30E1
ENCODING 12513
SWIDTH 520 0
DWIDTH 29 0
BBX 29 28 0 -4
BITMAP
00000000
00000000
00000000
0000c000
00007000
00007800
00007000
00006000
0018e000
000ee000
0003c000
0001c000
0003e000
0007f000
00077000
000e7000
001c7000
00380000
00e00000
01800000
03000000
00000000
00000000
00000000
00000000
00000000
00000000
00000000
ENDCHAR
STARTCHAR 30E2
ENCODING 12514
SWIDTH 520 0
DWIDTH 29 0
BBX 29 28 0 -4
BITMAP
00000000
00000000
00000000
00003000
0003f800
00ff0000
006e0000
000e0000
000e0000
000e3e00
000ffe00
07fe0000
03ce0000
000c0000
000c0000
000e0000
000f1c00
0007fe00
00000000
00000000
00000000
00000000
00000000
00000000
00000000
00000000
00000000
00000000
ENDCHAR
STARTCHAR 30E3
ENCODING 12515
SWIDTH 520 0
DWIDTH 29 0
BBX 29 28 0 -4
BITMAP
00000000
00000000
00000000
00000000
00700000
00380000
0018f800
001df800
000f7000
003ec000
00f60000
00070000
00030000
00038000
00018000
0001c000
0000e000
0000e000
00006000
00000000
00000000
00000000
00000000
00000000
00000000
00000000
00000000
00000000
ENDCHAR
STARTCHAR 30E4
ENCODING 12516
SWIDTH 520 0
DWIDTH 29 0
BBX 29 28 0 -4
BITMAP
00000000
00000000
00000000
00f00000
00700000
00383800
0038fc00
001dde00
000f3800
003c3000
03f66000
01c60000
00030000
00030000
00018000
0001c000
0000c000
0000e000
0000f000
00007000
00007000
00000000
00000000
00000000
00000000
00000000
00000000
00000000
ENDCHAR
STARTCHAR 30E5
ENCODING 12517
SWIDTH 520 0
DWIDTH 29 0
BBX 29 28 0 -4
BITMAP
00000000
00000000
00000000
00000000
00000000
0000c000
007fe000
003cc000
0001c000
0001c000
00018000
00018000
0003fc00
03ff0000
01c00000
00000000
00000000
00000000
00000000
00000000
00000000
00000000
00000000
00000000
00000000
00000000
00000000
00000000
ENDCHAR
STARTCHAR 30E6
ENCODING 12518
SWIDTH 520 0
DWIDTH 29 0
BBX 29 28 0 -4
BITMAP
00000000
00000000
00000000
00000000
00000000
0000f000
00fff800
00787000
0000e000
0000e000
0000c000
0000c000
0001c000
00019f00
000fff80
07fe0000
03c00000
00000000
00000000
00000000
00000000
00000000
00000000
00000000
00000000
00000000
00000000
00000000
ENDCHAR
STARTCHAR 30E7
ENCODING 12519
SWIDTH 520 0
DWIDTH 29 0
BBX 29 28 0 -4
BITMAP
00000000
00000000
00000000
00000000
0000c000
007ff000
00786000
00006000
00006000
007fe000
0078e000
0000e000
0000c000
0007c000
007cc000
00000000
00000000
00000000
00000000
00000000
00000000
00000000
00000000
00000000
00000000
00000000
00000000
00000000
ENDCHAR
STARTCHAR 30E8
ENCODING 12520
SWIDTH 520 0
DWIDTH 29 0
BBX 29 28 0 -4
BITMAP
00000000
00000000
00000000
00000000
00006000
0003f000
01fe7800
00e07000
00007000
00007000
0001f000
00ffe000
00f06000
00006000
00006000
0000e000
003fe000
01fce000
00000000
00000000
00000000
00000000
00000000
00000000
00000000
00000000
00000000
00000000
ENDCHAR
STARTCHAR 30E9
ENCODING 12521
SWIDTH 520 0
DWIDTH 29 0
BBX 29 28 0 -4
BITMAP
00000000
00000000
00000000
00000000
0003f000
007f8000
00300000
00000000
00007800
000ff800
01fe3800
00e03000
00007000
00006000
0000e000
0000c000
0001c000
00038000
00030000
00060000
001c0000
00300000
00000000
00000000
00000000
00000000
00000000
00000000
ENDCHAR
STARTCHAR 30EA
ENCODING 12522
SWIDTH 520 0
DWIDTH 29 0
BBX 29 28 0 -4
BITMAP
00000000
00000000
00000000
00000000
0001e000
00c0e000
00f0e000
0060e000
0060e000
0060e000
0060e000
0060e000
0060c000
0060c000
0060c000
0000c000
0001c000
0001c000
00038000
00030000
00060000
000c0000
00380000
00000000
00000000
00000000
00000000
00000000
ENDCHAR
STARTCHAR 30EB
ENCODING 12523
SWIDTH 520 0
DWIDTH 29 0
BBX 29 28 0 -4
BITMAP
00000000
00000000
00000000
00000000
00038000
00c38000
00f38000
00738000
00738000
00738000
00638300
00638700
00638e00
00e3b800
00e3f000
00c3e000
01c1c000
03800000
07000000
00000000
00000000
00000000
00000000
00000000
00000000
00000000
00000000
00000000
ENDCHAR
STARTCHAR 30EC
ENCODING 12524
SWIDTH 520 0
DWIDTH 29 0
BBX 29 28 0 -4
BITMAP
00000000
00000000
00000000
00000000
00700000
00380000
00300000
00300000
00300000
00300000
00300000
00301c00
00303000
0030e000
0033c000
00770000
007e0000
00780000
00300000
00000000
00000000
00000000
00000000
00000000
00000000
00000000
00000000
00000000
ENDCHAR
STARTCHAR 30ED
ENCODING 12525
SWIDTH 520 0
DWIDTH 29 0
BBX 29 28 0 -4
BITMAP
00000000
00000000
00000000
00000000
00000000
00003800
00c7fc00
00fe1e00
00e01c00
00601800
00601800
00601800
00603800
00603800
00603800
0061fc00
007f0000
00600000
00000000
00000000
00000000
00000000
00000000
00000000
00000000
00000000
00000000
00000000
ENDCHAR
STARTCHAR 30EE
ENCODING 12526
SWIDTH 520 0
DWIDTH 29 0
BBX 29 28 0 -4
BITMAP
00000000
00000000
00000000
00000000
00000000
0000f000
007ff800
00607000
00607000
00607000
00706000
0060e000
0000c000
0001c000
00018000
00030000
00060000
001c0000
00300000
00000000
00000000
00000000
00000000
00000000
00000000
00000000
00000000
00000000
ENDCHAR
STARTCHAR 30EF
ENCODING 12527
SWIDTH 520 0
DWIDTH 29 0
BBX 29 28 0 -4
BITMAP
00000000
00000000
00000000
00003000
0181f800
01fffc00
00c03800
00c03000
00c07000
00c07000
01c06000
00c0e000
0000e000
0001c000
00018000
00038000
00070000
000e0000
001c0000
00700000
00000000
00000000
00000000
00000000
00000000
00000000
00000000
00000000
ENDCHAR
STARTCHAR 30F0
ENCODING 12528
SWIDTH 520 0
DWIDTH 29 0
BBX 29 28 0 -4
BITMAP
00000000
00000000
00018000
0001c000
0001c000
0001c000
0001f800
000ff800
00fdc000
0039c000
0039c000
0039ce00
0031ff00
007fc000
03e1c000
0001c000
0001c000
0001c000
0001c000
0001c000
0001c000
00018000
00000000
00000000
00000000
00000000
00000000
00000000
ENDCHAR
STARTCHAR 30F1
ENCODING 12529
SWIDTH 520 0
DWIDTH 29 0
BBX 29 28 0 -4
BITMAP
00000000
00000000
00000000
00000000
00000000
0003f000
00fe7800
0070f800
000dc000
00078000
00070000
00070000
00060000
00060000
0007ff00
0fff8000
07c00000
00000000
00000000
00000000
00000000
00000000
00000000
00000000
00000000
00000000
00000000
00000000
ENDCHAR
STARTCHAR 30F2
ENCODING 12530
SWIDTH 520 0
DWIDTH 29 0
BBX 29 28 0 -4
BITMAP
00000000
00000000
00000000
00003000
0187f800
00fc3800
00003800
00007000
00007000
0181f000
00ffe000
00006000
0000e000
0000c000
0000c000
0001c000
00038000
00030000
00060000
001c0000
00300000
00000000
00000000
00000000
00000000
00000000
00000000
00000000
ENDCHAR
STARTCHAR 30F3
ENCODING 12531
SWIDTH 520 0
DWIDTH 29 0
BBX 29 28 0 -4
BITMAP
00000000
00000000
00000000
00780000
001c0000
001e0000
000c0300
00000600
00000e00
00001c00
00003800
00007000
0001e000
00038000
000f0000
007e0000
007c0000
00380000
00000000
00000000
00000000
00000000
00000000
00000000
00000000
00000000
00000000
00000000
ENDCHAR
STARTCHAR 30F4
ENCODING 12532
SWIDTH 520 0
DWIDTH 29 0
BBX 29 28 0 -4
BITMAP
00000000
00000000
00180000
001e0700
000e1f00
000e0e00
030ee000
01fff800
01807000
01807000
01806000
01806000
0180e000
0180e000
0001c000
0001c000
00038000
00070000
00060000
001c0000
00380000
00600000
00000000
00000000
00000000
00000000
00000000
00000000
ENDCHAR
STARTCHAR 30F5
ENCODING 12533
SWIDTH 520 0
DWIDTH 29 0
BBX 29 28 0 -4
BITMAP
00000000
00000000
00000000
00000000
00038000
00038000
00030000
0003f000
00fff800
00667000
00067000
000e7000
000c6000
0018e000
0030e000
0063c000
00c3c000
00018000
00000000
00000000
00000000
00000000
00000000
00000000
00000000
00000000
00000000
00000000
ENDCHAR
STARTCHAR 30F6
ENCODING 12534
SWIDTH 520 0
DWIDTH 29 0
BBX 29 28 0 -4
BITMAP
00000000
00000000
00000000
001c0000
001e0000
001c0000
00180000
0039fc00
003f8000
0061c000
0061c000
00c38000
00030000
00070000
00060000
000c0000
00180000
00300000
00000000
00000000
00000000
00000000
00000000
00000000
00000000
00000000
00000000
00000000
ENDCHAR
STARTCHAR 30FB
ENCODING 12539
SWIDTH 520 0
DWIDTH 29 0
BBX 29 28 0 -4
BITMAP
00000000
00000000
00000000
00000000
0fffff80
0c000180
0c000180
0c000180
0c000180
0c000180
0c000180
0c000180
0c000180
0c000180
0c000180
0c000180
0c000180
0c000180
0c000180
0c000180
0c000180
0c000180
0c000180
0fffff80
00000000
00000000
00000000
00000000
ENDCHAR
STARTCHAR 3105
ENCODING 12549
SWIDTH 520 0
DWIDTH 29 0
BBX 29 28 0 -4
BITMAP
00000000
00000000
00000000
00600000
00700000
00700000
00700000
00e00000
00c07e00
019fff00
07f81f00
07000e00
00000e00
00001e00
00001c00
00001c00
00001c00
00003c00
00003800
00003800
00007000
00007000
0003f000
0003e000
0001c000
00000000
00000000
00000000
ENDCHAR
STARTCHAR 3106
ENCODING 12550
SWIDTH 520 0
DWIDTH 29 0
BBX 29 28 0 -4
BITMAP
00000000
00000000
001c0000
001e0000
001e0000
00180000
00380000
00703e00
0063ff00
01fe1e00
03e01e00
00001c00
00001c00
00003800
003c7800
000e7000
0007e000
0003c000
0003e000
0007f000
000e7800
001c3800
00780000
01e00000
03000000
00000000
00000000
00000000
ENDCHAR
STARTCHAR 3107
ENCODING 12551
SWIDTH 520 0
DWIDTH 29 0
BBX 29 28 0 -4
BITMAP
00000000
00000000
00000000
00000000
00000000
00000000
00000000
00003c00
073ffe00
03e00f00
03800e00
03800e00
03800e00
03800c00
03800c00
03801c00
03801c00
03001c00
03001c00
03001c00
03001c00
03001800
00000000
00000000
00000000
00000000
00000000
00000000
ENDCHAR
STARTCHAR 3108
ENCODING 12552
SWIDTH 520 0
DWIDTH 29 0
BBX 29 28 0 -4
BITMAP
00000000
00000000
00000000
00000000
00001c00
000ffe00
0fffc000
07000000
03800000
03800000
03800000
03800000
03800000
03800000
03000000
03000000
03000000
03000000
03000000
03000000
03800000
01e00f80
00ffff80
00000000
00000000
00000000
00000000
00000000
ENDCHAR
STARTCHAR 3109
ENCODING 12553
SWIDTH 520 0
DWIDTH 29 0
BBX 29 28 0 -4
BITMAP
00000000
00000000
00600000
00700000
00780000
00700000
00600000
00e00000
00c0ff00
03ffff80
03c70780
00070700
00060700
000e0700
000c0600
001c0600
00180e00
00380e00
00700c00
00e01c00
01c01c00
03803800
0601f800
1c00f000
0000f000
00000000
00000000
00000000
ENDCHAR
STARTCHAR 310A
ENCODING 12554
SWIDTH 520 0
DWIDTH 29 0
BBX 29 28 0 -4
BITMAP
00000000
00000000
00000000
00000000
000f0000
000f0000
000e0000
000e0000
000e0000
000e1f80
000fff80
1ffe0000
0c0c0000
001c0000
001c0000
00180000
00380000
0030c000
00706000
00e07000
00c1fc00
03ff1c00
03e01c00
01800c00
00000000
00000000
00000000
00000000
ENDCHAR
STARTCHAR 310B
ENCODING 12555
SWIDTH 520 0
DWIDTH 29 0
BBX 29 28 0 -4
BITMAP
00000000
00000000
00000000
0000c000
001fe000
07f8f000
0000e000
0001c000
00018000
00030000
00070000
000ffe00
001e0f00
00000e00
00000e00
00000e00
00001c00
00001c00
00001c00
00003800
00003800
00007000
0003f000
0001e000
00018000
00000000
00000000
00000000
ENDCHAR
STARTCHAR 310C
ENCODING 12556
SWIDTH 520 0
DWIDTH 29 0
BBX 29 28 0 -4
BITMAP
00000000
00000000
00018000
0001e000
00c1c000
00e1c000
00e18000
00c38000
01c38000
01838000
01831e00
03ffff80
03e70700
00060700
000e0600
000c0600
001c0e00
00180e00
00380e00
00700c00
00e01c00
01c01c00
0301f800
0600f800
0000f000
00000000
00000000
00000000
ENDCHAR
STARTCHAR 310D
ENCODING 12557
SWIDTH 520 0
DWIDTH 29 0
BBX 29 28 0 -4
BITMAP
00000000
00000000
00000000
00003000
00383800
003c3c00
00383800
00703000
00607000
00e06000
00c0e000
01c0c000
01818000
03038000
03018000
0181c000
01c0e000
00c06000
00607000
00703800
00783800
00383c00
00381c00
00381800
00000000
00000000
00000000
00000000
ENDCHAR
STARTCHAR 310E
ENCODING 12558
SWIDTH 520 0
DWIDTH 29 0
BBX 29 28 0 -4
BITMAP
00000000
00000000
00000000
00000000
00000700
0001ffc0
1fff8000
0f0e0000
000e0000
000c0000
001c0000
00183000
0037fc00
007c3c00
00001800
00001800
00003800
00003800
00003800
00003000
00007000
00007000
0006e000
0003e000
0003c000
00000000
00000000
00000000
ENDCHAR
STARTCHAR 310F
ENCODING 12559
SWIDTH 520 0
DWIDTH 29 0
BBX 29 28 0 -4
BITMAP
00000000
00000000
00000000
00000000
00003fc0
07ffff00
03c00000
01c00000
01c00000
01c00000
01c00000
01c00000
01c00000
01c00000
01c00000
01c00000
01c00000
01800000
03800000
03800000
03000000
07000000
06000000
0c000000
18000000
00000000
00000000
00000000
ENDCHAR
STARTCHAR 3110
ENCODING 12560
SWIDTH 520 0
DWIDTH 29 0
BBX 29 28 0 -4
BITMAP
00000000
00000000
00000000
0000f000
00007000
00007000
00e07000
00f06000
00e06000
00e06000
00e06000
00e06000
00e06000
00e06000
00c06000
00c3e000
00de6000
01f06000
01c06000
00006000
00006000
00006000
00006000
00006000
00006000
00000000
00000000
00000000
ENDCHAR
STARTCHAR 3111
ENCODING 12561
SWIDTH 520 0
DWIDTH 29 0
BBX 29 28 0 -4
BITMAP
00000000
00000000
00000000
00000000
00070000
00078000
00070000
000e0000
000e0000
001c0000
00180000
00300000
00700000
00600000
00c00000
00700000
00380000
001c0000
000e0000
00078000
0003c000
0001c000
0000e000
0000e000
00000000
00000000
00000000
00000000
ENDCHAR
STARTCHAR 3112
ENCODING 12562
SWIDTH 520 0
DWIDTH 29 0
BBX 29 28 0 -4
BITMAP
00000000
00000000
00000000
00000000
00000f00
001fff00
0ffe0000
00070000
00070000
00070000
00070000
00070000
00070000
00070000
00070000
00070000
00070000
00070000
00070000
00070000
00070000
00070000
00070000
00070000
00030000
00000000
00000000
00000000
ENDCHAR
STARTCHAR 3113
ENCODING 12563
SWIDTH 520 0
DWIDTH 29 0
BBX 29 28 0 -4
BITMAP
00000000
00000000
000e0000
00070000
00070000
00070000
00070000
03070c00
03c70f00
01870e00
01870e00
01870e00
01870e00
01870e00
01870c00
01871c00
03fffc00
03870c00
00070000
00070000
00070000
00070000
00070f80
1fffffc0
0e000000
00000000
00000000
00000000
ENDCHAR
STARTCHAR 3114
ENCODING 12564
SWIDTH 520 0
DWIDTH 29 0
BBX 29 28 0 -4
BITMAP
00000000
00000000
0000c000
0000e000
0001e000
00038000
00070000
000e6000
001cf000
0038e000
00e1c000
01838000
00038000
00070000
001f0000
003b0000
00730000
00c30000
03830000
00030000
00030000
00030000
00070000
00070000
00030000
00000000
00000000
00000000
ENDCHAR
STARTCHAR 3115
ENCODING 12565
SWIDTH 520 0
DWIDTH 29 0
BBX 29 28 0 -4
BITMAP
00000000
00000000
00000000
00000000
0003fc00
00fe1e00
00001c00
00001800
00003800
00c0f800
00ffc000
00e00000
00e00000
00e00000
00e00000
00c00000
00c00000
01c00000
01c00000
01800000
03800000
03000000
07000000
0e000000
18000000
00000000
00000000
00000000
ENDCHAR
STARTCHAR 3116
ENCODING 12566
SWIDTH 520 0
DWIDTH 29 0
BBX 29 28 0 -4
BITMAP
00000000
00000000
00000000
00000000
00000000
0187fc00
01fc3c00
00c01800
00c01800
00c01800
00c01800
00cc1800
00c61800
00c71800
00c39800
00c31800
00c01800
00c01800
00c01800
00c01800
00c01800
01fff800
01e03800
00c03800
00000000
00000000
00000000
00000000
ENDCHAR
STARTCHAR 3117
ENCODING 12567
SWIDTH 520 0
DWIDTH 29 0
BBX 29 28 0 -4
BITMAP
00000000
00000000
00000000
00000000
0000fe00
03ff9f00
03f80e00
00380e00
00380c00
00381c00
00381c00
00381c00
00381800
00383800
003b3800
0039f000
0039f000
0038e000
00380000
00380000
00380000
00380000
00380000
00380000
00380000
00000000
00000000
00000000
ENDCHAR
STARTCHAR 3118
ENCODING 12568
SWIDTH 520 0
DWIDTH 29 0
BBX 29 28 0 -4
BITMAP
00000000
00000000
00000000
00060000
00070000
000f0000
000e0000
000e0f80
01ffffc0
3fdc0000
00180000
00380000
00300000
0061f800
00fffc00
00003c00
00003800
00003800
00003000
00007000
00007000
0000e000
0000e000
0001c000
00038000
00000000
00000000
00000000
ENDCHAR
STARTCHAR 3119
ENCODING 12569
SWIDTH 520 0
DWIDTH 29 0
BBX 29 28 0 -4
BITMAP
00000000
00000000
00000000
00060000
00078000
00078000
00070000
00070000
00060000
000e0000
000c0000
001c0000
001c0000
00380000
00300000
00700000
00600000
00e03000
00c01800
01801e00
03800f00
07ffff80
07f80780
07000380
00000000
00000000
00000000
00000000
ENDCHAR
STARTCHAR 311A
ENCODING 12570
SWIDTH 520 0
DWIDTH 29 0
BBX 29 28 0 -4
BITMAP
00000000
00000000
00001800
00001c00
00001e00
03803800
00e03000
00706000
0038c000
00398000
001b0000
00060000
00070000
00070000
00070000
00060000
00060000
00060000
00060000
00060000
00060000
00060000
00060000
000e0000
00060000
00060000
00000000
00000000
ENDCHAR
STARTCHAR 311B
ENCODING 12571
SWIDTH 520 0
DWIDTH 29 0
BBX 29 28 0 -4
BITMAP
00000000
00000000
00000000
00000000
00000000
0007ff80
1fff0000
00078000
00070000
00070000
00070000
003f0000
01ff0000
03c00000
03800000
07000000
07000000
07000000
07000000
03000000
03800000
01c00600
00f87c00
003fe000
00000000
00000000
00000000
00000000
ENDCHAR
STARTCHAR 311C
ENCODING 12572
SWIDTH 520 0
DWIDTH 29 0
BBX 29 28 0 -4
BITMAP
00000000
00000000
00060000
00078000
00078000
00038000
00030000
00030380
001fffc0
0fff0000
00030000
00030000
00030000
003f0000
00ff8000
01c00000
03800000
03800000
03000000
03000000
03800000
03800000
01e00700
007ffc00
000fe000
00000000
00000000
00000000
ENDCHAR
STARTCHAR 311D
ENCODING 12573
SWIDTH 520 0
DWIDTH 29 0
BBX 29 28 0 -4
BITMAP
00000000
00000000
00000000
0180f000
01e07000
01e07000
00c07000
00c07000
00c06000
00c06300
00c07fc0
00c7f800
01fee000
3fc0e000
00c0c000
00c0c000
00c1c000
00e18000
00e18000
00e30000
00600000
00700000
003e3f80
000fff80
00000000
00000000
00000000
00000000
ENDCHAR
STARTCHAR 311E
ENCODING 12574
SWIDTH 520 0
DWIDTH 29 0
BBX 29 28 0 -4
BITMAP
00000000
00000000
00000000
00000f80
003fffc0
1ff30000
03038000
01c38000
01c30000
01830000
03870000
03070c00
070fff00
07fe0700
06060700
000e0600
000e0e00
000c0e00
001c0c00
00380c00
00301c00
00601800
01c03800
03807000
0e007000
00000000
00000000
00000000
ENDCHAR
STARTCHAR 311F
ENCODING 12575
SWIDTH 520 0
DWIDTH 29 0
BBX 29 28 0 -4
BITMAP
00000000
00000000
00000000
00000000
003c0000
01fe0000
070e0000
000c0000
000c0000
000c0000
000c0000
000c0000
000c0000
000e0000
00060000
00060000
00070000
00030000
00038000
0001c000
0001e000
0000f000
00007c00
00003f80
00000f80
00000000
00000000
00000000
ENDCHAR
STARTCHAR 3120
ENCODING 12576
SWIDTH 520 0
DWIDTH 29 0
BBX 29 28 0 -4
BITMAP
00000000
00000000
00060000
00070000
000f0000
000e0000
001c0000
001c0000
00380000
00301800
00703c00
00e07c00
00c07000
018fe000
03ffc000
01838000
00070000
000e0000
001c1800
00381c00
00700e00
00c03e00
03fff700
03f00700
00000700
00000000
00000000
00000000
ENDCHAR
STARTCHAR 3121
ENCODING 12577
SWIDTH 520 0
DWIDTH 29 0
BBX 29 28 0 -4
BITMAP
00000000
00000000
00000000
00000000
00007800
03fffc00
03f03c00
00003800
00003800
00003800
00007000
00607000
0038e000
001ee000
000fc000
0003c000
0003e000
0007f000
000e7800
001c3c00
00381c00
00701c00
01c00000
03800000
0e000000
00000000
00000000
00000000
ENDCHAR
STARTCHAR 3122
ENCODING 12578
SWIDTH 520 0
DWIDTH 29 0
BBX 29 28 0 -4
BITMAP
00000000
00000000
00000000
0000f000
07fff800
03807800
01807000
01e07000
00e07000
01c06000
01c0e000
0180c000
0180c000
0380ff00
07ffff80
03800700
00000700
00000e00
00000e00
00000c00
00001c00
00001c00
00003800
00007000
00007000
00006000
00000000
00000000
ENDCHAR
STARTCHAR 3123
ENCODING 12579
SWIDTH 520 0
DWIDTH 29 0
BBX 29 28 0 -4
BITMAP
00000000
00000000
00000000
03800000
03c00000
03800000
03800000
03800000
03800000
03000000
03000000
03000000
03000000
07000e00
063fff80
0ff00780
06000700
00000700
00000700
00000700
00000e00
00000e00
00000e00
00001c00
00001c00
00000000
00000000
00000000
ENDCHAR
STARTCHAR 3124
ENCODING 12580
SWIDTH 520 0
DWIDTH 29 0
BBX 29 28 0 -4
BITMAP
00000000
00000000
000c0000
000e0000
000e0000
000e0000
000e0000
000e0000
000e1f80
003fff00
0fffc000
000dc000
001dc000
001dc000
0019c000
0019c000
00398000
00318000
00718000
00e18000
00c18000
0181c000
0700e000
0e007fe0
18001f80
00000000
00000000
00000000
ENDCHAR
STARTCHAR 3125
ENCODING 12581
SWIDTH 520 0
DWIDTH 29 0
BBX 29 28 0 -4
BITMAP
00000000
00000000
00000000
000c0000
000e0000
000f0000
000e0000
000c0000
001c0000
00180000
00180000
00380000
00300000
00700000
00600000
00e00000
00c00000
01c00000
01800000
03000000
07000000
0e003f00
1fffff80
0c000000
00000000
00000000
00000000
00000000
ENDCHAR
STARTCHAR 3126
ENCODING 12582
SWIDTH 520 0
DWIDTH 29 0
BBX 29 28 0 -4
BITMAP
00000000
00000000
00000000
00038000
0071c000
0079c000
00718000
00718000
00718000
00718000
00718000
00718000
00718000
00718000
00718000
00618000
00618000
00e18000
00e18000
01c180c0
01c1c0c0
0381c0c0
0700e1c0
0e00ffe0
18001f80
00000000
00000000
00000000
ENDCHAR
STARTCHAR 3127
ENCODING 12583
SWIDTH 520 0
DWIDTH 29 0
BBX 29 28 0 -4
BITMAP
00000000
00000000
00000000
000e0000
000f0000
000e0000
00060000
00060000
00060000
00060000
00060000
00060000
00060000
00060000
00060000
00060000
00060000
00060000
00060000
00060000
000e0000
000e0000
000e0000
000e0000
000e0000
00000000
00000000
00000000
ENDCHAR
STARTCHAR 3128
ENCODING 12584
SWIDTH 520 0
DWIDTH 29 0
BBX 29 28 0 -4
BITMAP
00000000
00000000
00000000
00000c00
00000e00
00001e00
00001e00
00001c00
03803800
00e03800
00707000
00387000
001ee000
000fe000
0007c000
0003c000
0007e000
000ef000
001c7800
00383c00
00701e00
01c00e00
07000600
0c000000
00000000
00000000
00000000
00000000
ENDCHAR
STARTCHAR 3129
ENCODING 12585
SWIDTH 520 0
DWIDTH 29 0
BBX 29 28 0 -4
BITMAP
00000000
00000000
00000000
00000000
00000000
00000000
00000c00
00000700
0e000700
07000700
07000700
07000700
07000700
06000600
06000600
06000600
06000600
06000600
06000600
0efffe00
1ff00600
0c000600
00000000
00000000
00000000
00000000
00000000
00000000
ENDCHAR
STARTCHAR 3220
ENCODING 12832
SWIDTH 520 0
DWIDTH 29 0
BBX 29 28 0 -4
BITMAP
00000000
00000000
00000000
00000000
07000600
0e000300
0c000180
180000c0
380000c0
380000e0
30000060
70000c60
70001e70
71fff070
70000070
70000070
70000060
30000060
380000e0
180000c0
180001c0
0c000180
0e000300
06000600
03000000
00000000
00000000
00000000
ENDCHAR
STARTCHAR 3221
ENCODING 12833
SWIDTH 520 0
DWIDTH 29 0
BBX 29 28 0 -4
BITMAP
00000000
00000000
00000000
00000000
07000600
0e000300
0c000180
180038c0
387fe0c0
380000e0
30000060
70000060
70000070
70000070
70000070
70000070
70000060
30000060
380000e0
18000ec0
19fffbc0
0c000180
0e000300
06000600
03000000
00000000
00000000
00000000
ENDCHAR
STARTCHAR 3222
ENCODING 12834
SWIDTH 520 0
DWIDTH 29 0
BBX 29 28 0 -4
BITMAP
00000000
00000000
00000000
03000000
06000600
0e000300
0c001980
19fffcc0
380000c0
380000e0
30000060
70000060
70000070
70007070
707fc070
70000070
70000060
30000060
380000e0
180000c0
18000dc0
0dfff980
0e000300
06000600
03000000
00000000
00000000
00000000
ENDCHAR
STARTCHAR 3223
ENCODING 12835
SWIDTH 520 0
DWIDTH 29 0
BBX 29 28 0 -4
BITMAP
00000000
00000000
00000000
00000000
07000600
0e000300
0d800f80
19fffcc0
39cd8cc0
39cd8ce0
31cd8c60
71cd8c60
71cd8c70
71d98c70
71d98c70
71d9fc70
71f06c60
31e00c60
39c00ce0
19c00cc0
19fffdc0
0d800d80
0e000300
06000600
03000000
00000000
00000000
00000000
ENDCHAR
STARTCHAR 3224
ENCODING 12836
SWIDTH 520 0
DWIDTH 29 0
BBX 29 28 0 -4
BITMAP
00000000
00000000
00000000
00000000
07000600
0e000300
0c001980
19fff0c0
380e00c0
380e00e0
300c0060
700c0060
700c6070
707fe070
700c6070
700c6070
700c6060
300c6060
381c60e0
181c60c0
18186dc0
0dffff80
0e000300
06000600
03000000
00000000
00000000
00000000
ENDCHAR
STARTCHAR 3225
ENCODING 12837
SWIDTH 520 0
DWIDTH 29 0
BBX 29 28 0 -4
BITMAP
00000000
00000000
00000000
00000000
07000700
0e0c0380
0c070180
180300c0
380380c0
380006e0
33ffff60
70000060
70000070
70000070
701cc070
70187070
70303860
30701c60
38600ce0
18c00ec0
19800fc0
0f000780
0e000300
06000600
03000000
00000000
00000000
00000000
ENDCHAR
STARTCHAR 3226
ENCODING 12838
SWIDTH 520 0
DWIDTH 29 0
BBX 29 28 0 -4
BITMAP
00000000
00000000
00000000
00000000
07000600
0e0c0300
0c0e0180
180c00c0
380c00c0
380c0ce0
300c1e60
700df060
701f0070
71fc0070
730c0070
700c0070
700c0060
300c0c60
380c0ce0
180c0cc0
180fffc0
0c000180
0e000300
06000600
03000000
00000000
00000000
00000000
ENDCHAR
STARTCHAR 3227
ENCODING 12839
SWIDTH 520 0
DWIDTH 29 0
BBX 29 28 0 -4
BITMAP
00000000
00000000
00000000
00000000
07000600
0e000300
0c038180
180180c0
380d80c0
380f80e0
300d8060
701cc060
7018c070
7018c070
7018e070
70306070
70306060
30607060
386038e0
18c03cc0
19801fc0
0d800f80
0e000300
06000600
03000000
00000000
00000000
00000000
ENDCHAR
STARTCHAR 3228
ENCODING 12840
SWIDTH 520 0
DWIDTH 29 0
BBX 29 28 0 -4
BITMAP
00000000
00000000
00000000
00000000
07000600
0e0c0300
0c0c0180
180c00c0
380c00c0
380c60e0
30ffe060
700c6060
700ce070
700ce070
700ce070
701cc070
7018c060
3018c660
3830c6e0
1870c6c0
1860e7c0
0dc07f80
0e000300
06000600
03000000
00000000
00000000
00000000
ENDCHAR
STARTCHAR 3229
ENCODING 12841
SWIDTH 520 0
DWIDTH 29 0
BBX 29 28 0 -4
BITMAP
00000000
00000000
00000000
00000000
07000600
0e070300
0c070180
180300c0
380300c0
380300e0
30030060
70030e60
73fff870
70030070
70030070
70030070
70030060
30030060
380300e0
180300c0
180301c0
0c030180
0e000300
06000600
03000000
00000000
00000000
00000000
ENDCHAR
STARTCHAR 4E00
ENCODING 19968
SWIDTH 520 0
DWIDTH 29 0
BBX 29 28 0 -4
BITMAP
00000000
00000000
00000000
00000000
00000000
00000000
00000000
00000000
00000000
00000000
00000000
000000c0
3fffffe0
00000000
00000000
00000000
00000000
00000000
00000000
00000000
00000000
00000000
00000000
00000000
00000000
00000000
00000000
00000000
ENDCHAR
STARTCHAR 4E01
ENCODING 19969
SWIDTH 520 0
DWIDTH 29 0
BBX 29 28 0 -4
BITMAP
00000000
00000000
000000c0
000001e0
3fffff00
00070000
00070000
00070000
00070000
00070000
00070000
00070000
00070000
00070000
00070000
00070000
00070000
00070000
00070000
00070000
00070000
00070000
00070000
00070000
003f0000
000e0000
000c0000
00000000
ENDCHAR
STARTCHAR 4E03
ENCODING 19971
SWIDTH 520 0
DWIDTH 29 0
BBX 29 28 0 -4
BITMAP
00000000
00000000
000e0000
000e0000
000e0000
000e0000
000e0000
000e0000
000e01c0
000e01e0
000e1f00
000ff000
001f0000
01fe0000
1f0e0000
300e0000
000e0000
000e0000
000e0000
000e00c0
000e00c0
000e00e0
000e00e0
000e00e0
000ffff0
0003ff80
00000000
00000000
ENDCHAR
STARTCHAR 4E07
ENCODING 19975
SWIDTH 520 0
DWIDTH 29 0
BBX 29 28 0 -4
BITMAP
00000000
00000000
000000c0
000001e0
3ffffff0
001c0000
001c0000
001c0000
001c0000
001c0600
001fff00
001c0e00
00180e00
00380e00
00380e00
00380e00
00380e00
00700e00
00700e00
00e00c00
00c01c00
01c01c00
03801c00
0703fc00
0c00f800
18007000
70000000
00000000
ENDCHAR
STARTCHAR 4E08
ENCODING 19976
SWIDTH 520 0
DWIDTH 29 0
BBX 29 28 0 -4
BITMAP
00000000
00060000
00038000
00030000
00030000
00030000
00030180
000303c0
3fffffc0
00030000
00030000
00030000
03070000
03070000
01870000
01870000
00c70000
00660000
007e0000
003e0000
001e0000
003f0000
0073e000
00e0fe00
03803fc0
0e000f00
38000000
00000000
ENDCHAR
STARTCHAR 4E09
ENCODING 19977
SWIDTH 520 0
DWIDTH 29 0
BBX 29 28 0 -4
BITMAP
00000000
00000000
00000000
00000000
00000380
1fffffc0
00000000
00000000
00000000
00000000
00000000
00000000
00000c00
00000e00
07ffff00
00000000
00000000
00000000
00000000
00000000
00000000
00000000
000001c0
7fffffe0
00000000
00000000
00000000
00000000
ENDCHAR
STARTCHAR 4E0A
ENCODING 19978
SWIDTH 520 0
DWIDTH 29 0
BBX 29 28 0 -4
BITMAP
00000000
000c0000
000f0000
000e0000
000e0000
000e0000
000e0000
000e0000
000e0000
000e0300
000e0780
000ffc00
000e0000
000e0000
000e0000
000e0000
000e0000
000e0000
000e0000
000e0000
000e0000
000e0000
000e00c0
000e01e0
3ffffff0
00000000
00000000
00000000
ENDCHAR
STARTCHAR 4E0B
ENCODING 19979
SWIDTH 520 0
DWIDTH 29 0
BBX 29 28 0 -4
BITMAP
00000000
00000000
00000000
000001c0
3fffff00
000e0000
000e0000
000e0000
000e0000
000e0000
000f0000
000ff000
000e7c00
000e1e00
000e0f00
000e0700
000e0000
000e0000
000e0000
000e0000
000e0000
000e0000
000e0000
000e0000
000e0000
000e0000
00000000
00000000
ENDCHAR
STARTCHAR 4E0C
ENCODING 19980
SWIDTH 520 0
DWIDTH 29 0
BBX 29 28 0 -4
BITMAP
00000000
00000000
00000000
000001c0
1fffffe0
00303000
00303000
00303000
00703000
00703000
00703000
00703000
00703000
00703000
00603000
00603000
00e03000
00e03000
00c03000
01c03000
01803000
03003000
06003000
0c003000
18003000
30003000
00000000
00000000
ENDCHAR
STARTCHAR 4E0D
ENCODING 19981
SWIDTH 520 0
DWIDTH 29 0
BBX 29 28 0 -4
BITMAP
00000000
00000000
000001c0
3fffffe0
00038000
00070000
00070000
000e0000
000e0000
001f8000
001f6000
003f3000
00771c00
00e70e00
01c70780
018703c0
030701c0
060701e0
1c0700e0
30070000
00070000
00070000
00070000
00070000
00070000
00070000
00000000
00000000
ENDCHAR
STARTCHAR 4E0E
ENCODING 19982
SWIDTH 520 0
DWIDTH 29 0
BBX 29 28 0 -4
BITMAP
00000000
00c00000
00e00000
00e00000
00e00000
00c00000
00c001c0
00ffff00
00c00000
00c00000
00c00000
00c00000
01c00380
03ffffc0
00000380
00000380
00000380
00006380
3ffff300
00000300
00000700
00000700
00000700
00000e00
0001fe00
00003c00
00003000
00000000
ENDCHAR
STARTCHAR 4E10
ENCODING 19984
SWIDTH 520 0
DWIDTH 29 0
BBX 29 28 0 -4
BITMAP
00000000
000000c0
000001e0
1fffff00
000e0000
000e0000
0c0e0000
0f0e0180
0e0fffc0
0e0e0000
0e0e0000
0e0e0000
0e0e0000
0e0e0180
1fffffc0
00000380
00000380
00000380
00000380
00000380
00000380
00000300
00000700
00000700
0000fe00
00003e00
00001800
00000000
ENDCHAR
STARTCHAR 4E11
ENCODING 19985
SWIDTH 520 0
DWIDTH 29 0
BBX 29 28 0 -4
BITMAP
00000000
00000000
00000000
00000600
0fffff00
00380700
00380700
00380600
00380600
00380600
00380e00
00380e00
00380e00
07fffe00
00380e00
00300e00
00300e00
00300e00
00300e00
00700e00
00700e00
00700c00
00700c00
00700ce0
3fdfff80
00000000
00000000
00000000
ENDCHAR
STARTCHAR 4E13
ENCODING 19987
SWIDTH 520 0
DWIDTH 29 0
BBX 29 28 0 -4
BITMAP
00000000
000c0000
000e0000
000c0000
000c0000
001c0600
0fffff00
001c0000
00180000
00180000
003800c0
3fffffe0
00300000
00300000
00700000
00700e00
007fff00
00001e00
00003800
00003000
00706000
001ec000
000f8000
0003e000
0001e000
0000e000
00000000
00000000
ENDCHAR
STARTCHAR 4E14
ENCODING 19988
SWIDTH 520 0
DWIDTH 29 0
BBX 29 28 0 -4
BITMAP
00000000
00000000
00000000
00fffe00
00c01c00
00c01c00
00c01c00
00c01c00
00c01c00
00c01c00
00fffc00
00c01c00
00c01c00
00c01c00
00c01c00
00c01c00
00c01c00
00fffc00
00c01c00
00c01c00
00c01c00
00c01c00
00c01c00
00c01ce0
7ffffff0
00000000
00000000
00000000
ENDCHAR
STARTCHAR 4E15
ENCODING 19989
SWIDTH 520 0
DWIDTH 29 0
BBX 29 28 0 -4
BITMAP
00000000
00000000
00000180
000003c0
1fffffe0
00070000
00070000
000e0000
000e0000
001f0000
001f0000
003f7000
00773c00
00e71e00
01c70f80
038707c0
070703c0
0e0701c0
18070000
30070000
00070000
00070000
00070000
000701c0
3fffffe0
00000000
00000000
00000000
ENDCHAR
STARTCHAR 4E16
ENCODING 19990
SWIDTH 520 0
DWIDTH 29 0
BBX 29 28 0 -4
BITMAP
00000000
00001800
000c1e00
000e1c00
070c1c00
070c1c00
070c1c00
070c1c00
070c1c00
070c1de0
3fffff00
070c1c00
070c1c00
070c1c00
070c1c00
070c1c00
070c1c00
070c1c00
070c1c00
070ffc00
070c1c00
070c0000
07000000
070000c0
070001e0
03ffff00
00000000
00000000
ENDCHAR
STARTCHAR 4E18
ENCODING 19992
SWIDTH 520 0
DWIDTH 29 0
BBX 29 28 0 -4
BITMAP
00000000
00000000
00000e00
00003e00
0003f000
03fe0000
01c00000
01800000
01800000
01800000
01800000
01800380
01ffffc0
0180e000
0180e000
0180e000
0180e000
0180e000
0180e000
0180e000
0180e000
0180e000
0180e0c0
0180e1e0
3fffbf00
00000000
00000000
00000000
ENDCHAR
ENDFONT
